<svg width="74" height="27" viewBox="0 0 74 27" fill="none" xmlns="http://www.w3.org/2000/svg">
<path d="M10.0909 13.5V16.875H6.72727V13.5H10.0909Z" fill="black"/>
<path d="M20.1818 13.5H21.8636V16.875H20.1818V13.5Z" fill="black"/>
<path d="M16.8182 16.875V18.5625H20.1818V16.875H16.8182Z" fill="black"/>
<path fill-rule="evenodd" clip-rule="evenodd" d="M15.1364 0H11.7727V1.6875H8.40909V3.375H6.72727V5.0625H5.04545V6.75H3.36364V8.4375H1.68182V10.125H0V15.1875H3.36364V16.875H5.04545V18.5625H3.36364V23.625H5.04545V27H6.72727V23.625H5.04545V18.5625H6.72727V20.25H8.40909V27H10.0909V18.5625H16.8182V27H18.5V20.25H20.1818V18.5625H21.8636V23.625H20.1818V27H21.8636V23.625H23.5455V18.5625H21.8636V16.875H23.5455V15.1875H26.9091V10.125H25.2273V8.4375H23.5455V6.75H21.8636V5.0625H20.1818V3.375H18.5V1.6875H15.1364V0ZM15.1364 1.6875V3.375H18.5V5.0625H20.1818V6.75H21.8636V8.4375H23.5455V10.125H25.2273V13.5H23.5455V11.8125H20.1818V10.125H6.72727V11.8125H3.36364V13.5H1.68182V10.125H3.36364V8.4375H5.04545V6.75H6.72727V5.0625H8.40909V3.375H11.7727V1.6875H15.1364ZM10.0909 13.5V11.8125H6.72727V13.5H5.04545V16.875H6.72727V18.5625H10.0909V16.875H11.7727V13.5H10.0909ZM16.8182 13.5V11.8125H20.1818V13.5H16.8182ZM16.8182 16.875H15.1364V13.5H16.8182V16.875Z" fill="black"/>
<path d="M11.7727 20.25H15.1364V27H11.7727V20.25Z" fill="black"/>
<path d="M11.7727 1.6875H15.1363V3.375H18.4999V5.0625H20.1818V6.75H21.8636V8.4375H23.5454V10.125H25.2272V13.5H23.5454V11.8125H20.1818V10.125H6.72722V11.8125H3.36358V13.5H1.68176V10.125H3.36358V8.4375H5.0454V6.75H6.72722V5.0625H8.40904V3.375H11.7727V1.6875Z" fill="white"/>
<path fill-rule="evenodd" clip-rule="evenodd" d="M10.0909 13.5V11.8125H6.72722V13.5H5.0454V16.875H6.72722V18.5625H5.0454V23.625H6.72722V27H8.40904V20.25H6.72722V18.5625H10.0909V27H11.7727V20.25H15.1363V27H16.8181V18.5625H20.1818V20.25H18.4999V27H20.1818V23.625H21.8636V18.5625H20.1818V16.875H21.8636V13.5H20.1818V11.8125H16.8181V13.5H15.1363V16.875H16.8181V18.5625H10.0909V16.875H11.7727V13.5H10.0909ZM10.0909 13.5V16.875H6.72722V13.5H10.0909ZM16.8181 16.875V13.5H20.1818V16.875H16.8181Z" fill="white"/>
<path d="M42.0455 11.8125H45.4091V13.5H42.0455V11.8125Z" fill="black"/>
<path d="M40.3636 15.1875V13.5H42.0455V15.1875H40.3636Z" fill="black"/>
<path d="M38.6818 16.875V15.1875H40.3636V16.875H38.6818Z" fill="black"/>
<path fill-rule="evenodd" clip-rule="evenodd" d="M40.3636 20.25H38.6818V16.875H37V21.9375H38.6818V23.625H37V25.3125H38.6818V27H40.3636V25.3125H42.0455V27H45.4091V25.3125H47.0909V27H50.4545V23.625H48.7727V21.9375H50.4545V16.875H48.7727V15.1875H47.0909V13.5H45.4091V15.1875H47.0909V16.875H48.7727V20.25H47.0909V18.5625H40.3636V20.25ZM47.0909 20.25H45.4091V21.9375H47.0909V20.25ZM48.7727 23.625V25.3125H47.0909V23.625H48.7727ZM45.4091 25.3125V23.625H42.0455V25.3125H45.4091ZM40.3636 25.3125H38.6818V23.625H40.3636V25.3125Z" fill="black"/>
<path d="M40.3636 20.25V21.9375H42.0455V20.25H40.3636Z" fill="black"/>
<path d="M45.409 13.5H42.0454V15.1875H40.3636V16.875H38.6818V20.25H40.3636V21.9375H42.0454V20.25H40.3636V18.5625H47.0909V20.25H45.409V21.9375H47.0909V20.25H48.7727V16.875H47.0909V15.1875H45.409V13.5Z" fill="white"/>
<path d="M40.3636 23.625H38.6818V25.3125H40.3636V27H42.0454V25.3125H45.409V27H47.0909V25.3125H48.7727V23.625H47.0909V25.3125H45.409V23.625H42.0454V25.3125H40.3636V23.625Z" fill="white"/>
<path d="M65.5909 10.125H68.9545V11.8125H65.5909V10.125Z" fill="black"/>
<path d="M63.909 13.5V11.8125H65.5909V13.5H63.909Z" fill="black"/>
<path d="M62.2272 15.1875V13.5H63.909V15.1875H62.2272Z" fill="black"/>
<path d="M62.2272 18.5625H60.5454V15.1875H62.2272V18.5625Z" fill="black"/>
<path d="M72.3181 18.5625H70.6363V16.875H63.909V18.5625H62.2272V20.25H60.5454V23.625H62.2272V20.25H63.909V25.3125H65.5909V20.25H68.9545V25.3125H70.6363V20.25H72.3181V23.625H74V20.25H72.3181V18.5625Z" fill="black"/>
<path d="M72.3181 15.1875H74V18.5625H72.3181V15.1875Z" fill="black"/>
<path fill-rule="evenodd" clip-rule="evenodd" d="M70.6363 13.5V11.8125H68.9545V13.5H70.6363ZM70.6363 13.5H72.3181V15.1875H70.6363V13.5Z" fill="black"/>
<path d="M65.5908 11.8125H68.9544V13.5H70.6363V15.1875H72.3181V18.5625H70.6363V16.875H63.909V18.5625H62.2272V15.1875H63.909V13.5H65.5908V11.8125Z" fill="white"/>
<path d="M72.3181 20.25H70.6363V25.3125H72.3181V20.25Z" fill="white"/>
<path d="M65.5908 20.25H68.9544V27H65.5908V20.25Z" fill="white"/>
<path d="M63.909 20.25H62.2272V25.3125H63.909V20.25Z" fill="white"/>
</svg>
