<svg width="941" height="260" viewBox="0 0 941 260" fill="none" xmlns="http://www.w3.org/2000/svg">
<path fill-rule="evenodd" clip-rule="evenodd" d="M2.78313 212.124H44.5301V214.94H25.0482V234.654H44.5301V237.47H5.56627V234.654H22.2651V214.94H2.78313V212.124ZM2.78313 214.94V234.654H0V214.94H2.78313ZM44.5301 234.654V214.94H47.3133V234.654H44.5301ZM13.9157 229.021H16.6988V226.205H19.4819V229.021V231.837H13.9157V229.021ZM36.1807 229.021H38.9639V226.205H41.747V229.021V231.837H36.1807V229.021Z" fill="black"/>
<path fill-rule="evenodd" clip-rule="evenodd" d="M5.56634 217.756H11.1326H19.482H22.2651V231.837V234.654H11.1326H5.56634V217.756ZM5.56634 234.654V237.47H2.7832V234.654H5.56634ZM11.1326 229.021V223.389H16.6989V226.205H19.482V231.837H13.9157V229.021H11.1326ZM27.8314 217.756H33.3977H41.7471H44.5302V223.389V231.837V234.654H33.3977H27.8314V217.756ZM33.3977 223.389H38.9639V226.205H41.7471L41.7471 231.837H36.1808V229.021H33.3977V223.389Z" fill="#123251"/>
<path fill-rule="evenodd" clip-rule="evenodd" d="M5.56634 214.94H2.7832V234.654H5.56634V217.756H22.2651V214.94H5.56634ZM25.0483 234.654V217.756V214.94H27.8314H44.5302V217.756H27.8314V234.654H25.0483Z" fill="#00E5D4"/>
<path fill-rule="evenodd" clip-rule="evenodd" d="M16.6988 223.389H11.1326V229.021H16.6988V223.389ZM38.9639 223.389H33.3976V229.021H38.9639V223.389Z" fill="#93FCEE"/>
<path fill-rule="evenodd" clip-rule="evenodd" d="M22.2652 237.47H19.482V243.102H16.6989V248.735H13.9158V254.367H16.6989V248.735H19.482V243.102H22.2652V237.47ZM44.5302 237.47H41.7471V243.102H38.964V248.735H36.1808V254.367H38.964V248.735H41.7471V243.102H44.5302V237.47Z" fill="#123251"/>
<path fill-rule="evenodd" clip-rule="evenodd" d="M19.482 237.47H2.7832V243.102H5.56634V248.735H8.34947V254.367H11.1326V260H13.9157V254.367V248.735H16.6989V243.102H19.482V237.47ZM25.0483 237.47H41.7471V243.102H38.9639V248.735H36.1808V254.367V260H33.3977V254.367H30.6145V248.735H27.8314V243.102H25.0483V237.47Z" fill="#93FCEE"/>
<path fill-rule="evenodd" clip-rule="evenodd" d="M8.34947 169.88H41.7471V172.696H44.5302V175.512H47.3133V209.307H44.5302V212.123H41.7471V214.94H8.34947V212.123H5.56634V209.307H2.7832V175.512H5.56634V172.696H8.34947V169.88Z" fill="black"/>
<path fill-rule="evenodd" clip-rule="evenodd" d="M41.747 172.696H8.34937V175.512H11.1325V178.328H13.9156V181.145H16.6988V183.961H19.4819V186.777H22.265V189.593H27.8313V186.777H30.6144V183.961H33.3976V181.145H36.1807V178.328H38.9638V175.512H41.747V172.696Z" fill="#93FCEE"/>
<path fill-rule="evenodd" clip-rule="evenodd" d="M8.34948 212.124H41.7471V209.307H38.9639V206.491H36.1808V203.675H33.3977V200.858H30.6145V198.042H27.8314V195.226H22.2651V198.042H19.482V200.858H16.6989V203.675H13.9157V206.491H11.1326V209.307H8.34948V212.124Z" fill="#123251"/>
<path fill-rule="evenodd" clip-rule="evenodd" d="M44.5303 209.307V175.512H41.7471V178.328H38.964V181.145H36.1809V183.961H33.3977V186.777H30.6146V189.593H27.8315V195.226H30.6146V198.042H33.3977V200.858H36.1809V203.675H38.964V206.491H41.7471L41.7471 209.307H44.5303Z" fill="#123251"/>
<path fill-rule="evenodd" clip-rule="evenodd" d="M5.56641 175.512L5.56641 209.307H8.34954V206.491H11.1327V203.675H13.9158V200.858H16.6989V198.042H19.4821V195.226H22.2652V189.593H19.4821V186.777H16.6989V183.961H13.9158V181.145H11.1327V178.328H8.34954V175.512H5.56641Z" fill="#00E5D4"/>
<path fill-rule="evenodd" clip-rule="evenodd" d="M11.1325 175.512H8.34937V178.328H11.1325V181.145H13.9156V183.961H16.6988V186.777H19.4819V189.593H22.265V192.41H25.0482V189.593H22.265V186.777H19.4819V183.961H16.6988V181.145H13.9156V178.328H11.1325V175.512Z" fill="#123251"/>
<path fill-rule="evenodd" clip-rule="evenodd" d="M141.41 212.124H184.151V214.94H164.205V234.654H184.151V237.47H144.259V234.654H161.355V214.94H141.41V212.124ZM141.41 214.94V234.654H138.56V214.94H141.41ZM184.151 234.654V214.94H187V234.654H184.151ZM152.807 229.021H155.657V226.205H158.506V229.021V231.837H152.807V229.021ZM175.602 229.021H178.452V226.205H181.301V229.021V231.837H175.602V229.021Z" fill="black"/>
<path fill-rule="evenodd" clip-rule="evenodd" d="M144.259 217.756H149.958H158.506H161.355V231.837V234.654H149.958H144.259V217.756ZM144.259 234.654V237.47H141.41V234.654H144.259ZM149.958 229.021V223.389H155.657V226.205H158.506V231.837H152.807V229.021H149.958ZM167.054 217.756H172.753H181.301H184.151V223.389V231.837V234.654H172.753H167.054V217.756ZM172.753 223.389H178.452V226.205H181.301V231.837H175.602V229.021H172.753V223.389Z" fill="#123251"/>
<path fill-rule="evenodd" clip-rule="evenodd" d="M144.259 214.94H141.41V234.654H144.259V217.756H161.355V214.94H144.259ZM164.205 234.654V217.756V214.94H167.054H184.151V217.756H167.054V234.654H164.205Z" fill="#00E5D4"/>
<path fill-rule="evenodd" clip-rule="evenodd" d="M155.657 223.389H149.958V229.021H155.657V223.389ZM178.452 223.389H172.753V229.021H178.452V223.389Z" fill="#93FCEE"/>
<path fill-rule="evenodd" clip-rule="evenodd" d="M161.356 237.47H158.506V243.102H155.657V248.735H152.807V254.367H155.657V248.735H158.506V243.102H161.356V237.47ZM184.151 237.47H181.301V243.102H178.452V248.735H175.603V254.367H178.452V248.735H181.301V243.102H184.151V237.47Z" fill="#123251"/>
<path fill-rule="evenodd" clip-rule="evenodd" d="M158.506 237.47H141.41V243.102H144.259V248.735H147.108V254.367H149.958V260H152.807V254.367V248.735H155.657V243.102H158.506V237.47ZM164.205 237.47H181.301V243.102H178.452V248.735H175.602V254.367V260H172.753V254.367H169.904V248.735H167.054V243.102H164.205V237.47Z" fill="#93FCEE"/>
<path fill-rule="evenodd" clip-rule="evenodd" d="M147.108 169.88H181.301V172.696H184.151V175.512H187V209.307H184.151V212.123H181.301V214.94H147.108V212.123H144.259V209.307H141.41V175.512H144.259V172.696H147.108V169.88Z" fill="black"/>
<path fill-rule="evenodd" clip-rule="evenodd" d="M181.301 172.696H147.108V175.512H149.958V178.328H152.807V181.145H155.657V183.961H158.506V186.777H161.355V189.593H167.054V186.777H169.904V183.961H172.753V181.145H175.602V178.328H178.452V175.512H181.301V172.696Z" fill="#93FCEE"/>
<path fill-rule="evenodd" clip-rule="evenodd" d="M147.108 212.124H181.301V209.307H178.452V206.491H175.602V203.675H172.753V200.858H169.904V198.042H167.054V195.226H161.355V198.042H158.506V200.858H155.657V203.675H152.807V206.491H149.958V209.307H147.108V212.124Z" fill="#123251"/>
<path fill-rule="evenodd" clip-rule="evenodd" d="M184.151 209.307V175.512H181.301V209.307H184.151ZM178.452 206.491H181.301V178.328H178.452V181.145H175.602V183.961H172.753V186.777H169.904V189.593H167.054V195.226H169.904V198.042H172.753V200.858H175.602V203.675H178.452V206.491Z" fill="#123251"/>
<path fill-rule="evenodd" clip-rule="evenodd" d="M144.259 175.512V209.307H147.108V206.491H149.958V203.675H152.807V200.858H155.657V198.042H158.506V195.226H161.355V189.593H158.506V186.777H155.657V183.961H152.807V181.145H149.958V178.328H147.108V175.512H144.259Z" fill="#00E5D4"/>
<path fill-rule="evenodd" clip-rule="evenodd" d="M149.958 175.512H147.108V178.328H149.958V181.145H152.807V183.961H155.657V186.777H158.506V189.593H161.355V192.41H164.205V189.593H161.355V186.777H158.506V183.961H155.657V181.145H152.807V178.328H149.958V175.512Z" fill="#123251"/>
<path fill-rule="evenodd" clip-rule="evenodd" d="M96.2831 212.124H138.03V214.94H118.548V234.654H138.03V237.47H99.0663V234.654H115.765V214.94H96.2831V212.124ZM96.2831 214.94V234.654H93.5V214.94H96.2831ZM138.03 234.654V214.94H140.813V234.654H138.03ZM107.416 229.021H110.199V226.205H112.982V229.021V231.837H107.416V229.021ZM129.681 229.021H132.464V226.205H135.247V229.021V231.837H129.681V229.021Z" fill="black"/>
<path fill-rule="evenodd" clip-rule="evenodd" d="M99.0663 217.756H104.633H112.982H115.765V231.837V234.654H104.633H99.0663V217.756ZM99.0663 234.654V237.47H96.2832V234.654H99.0663ZM104.633 229.021V223.389H110.199V226.205H112.982V231.837H107.416V229.021H104.633ZM121.331 217.756H126.898H135.247H138.03V223.389V231.837V234.654H126.898H121.331V217.756ZM126.898 223.389H132.464V226.205H135.247L135.247 231.837H129.681V229.021H126.898V223.389Z" fill="#123251"/>
<path fill-rule="evenodd" clip-rule="evenodd" d="M99.0663 214.94H96.2832V234.654H99.0663V217.756H115.765V214.94H99.0663ZM118.548 234.654V217.756V214.94H121.331H138.03V217.756H121.331V234.654H118.548Z" fill="#00E5D4"/>
<path fill-rule="evenodd" clip-rule="evenodd" d="M110.199 223.389H104.633V229.021H110.199V223.389ZM132.464 223.389H126.898V229.021H132.464V223.389Z" fill="#93FCEE"/>
<path fill-rule="evenodd" clip-rule="evenodd" d="M115.765 237.47H112.982V243.102H110.199V248.735H107.416V254.367H110.199V248.735H112.982V243.102H115.765V237.47ZM138.03 237.47H135.247V243.102H132.464V248.735H129.681V254.367H132.464V248.735H135.247V243.102H138.03V237.47Z" fill="#123251"/>
<path fill-rule="evenodd" clip-rule="evenodd" d="M112.982 237.47H96.2832V243.102H99.0663V248.735H101.849V254.367H104.633V260H107.416V254.367V248.735H110.199V243.102H112.982V237.47ZM118.548 237.47H135.247V243.102H132.464V248.735H129.681V254.367V260H126.898V254.367H124.115V248.735H121.331V243.102H118.548V237.47Z" fill="#93FCEE"/>
<path fill-rule="evenodd" clip-rule="evenodd" d="M101.849 169.88H135.247V172.696H138.03V175.512H140.813V209.307H138.03V212.123H135.247V214.94H101.849V212.123H99.0663V209.307H96.2832V175.512H99.0663V172.696H101.849V169.88Z" fill="black"/>
<path fill-rule="evenodd" clip-rule="evenodd" d="M135.247 172.696H101.849V175.512H104.632V178.328H107.416V181.145H110.199V183.961H112.982V186.777H115.765V189.593H121.331V186.777H124.114V183.961H126.898V181.145H129.681V178.328H132.464V175.512H135.247V172.696Z" fill="#93FCEE"/>
<path fill-rule="evenodd" clip-rule="evenodd" d="M101.849 212.124H135.247V209.307H132.464V206.491H129.681V203.675H126.898V200.858H124.115V198.042H121.331V195.226H115.765V198.042H112.982V200.858H110.199V203.675H107.416V206.491H104.633V209.307H101.849V212.124Z" fill="#123251"/>
<path fill-rule="evenodd" clip-rule="evenodd" d="M138.03 209.307V175.512H135.247V178.328H132.464V181.145H129.681V183.961H126.898V186.777H124.115V189.593H121.331V195.226H124.115V198.042H126.898V200.858H129.681V203.675H132.464V206.491H135.247L135.247 209.307H138.03Z" fill="#123251"/>
<path fill-rule="evenodd" clip-rule="evenodd" d="M99.0664 175.512V209.307H101.85V206.491H104.633V203.675H107.416V200.858H110.199V198.042H112.982V195.226H115.765V189.593H112.982V186.777H110.199V183.961H107.416V181.145H104.633V178.328H101.85V175.512H99.0664Z" fill="#00E5D4"/>
<path fill-rule="evenodd" clip-rule="evenodd" d="M104.632 175.512H101.849V178.328H104.632V181.145H107.416V183.961H110.199V186.777H112.982V189.593H115.765V192.41H118.548V189.593H115.765V186.777H112.982V183.961H110.199V181.145H107.416V178.328H104.632V175.512Z" fill="#123251"/>
<path fill-rule="evenodd" clip-rule="evenodd" d="M50.2289 212.124H93.9638V214.94H73.5542V234.654H93.9638V237.47H53.1446V234.654H70.6385V214.94H50.2289V212.124ZM50.2289 214.94V234.654H47.3132V214.94H50.2289ZM93.9638 234.654V214.94H96.8795V234.654H93.9638ZM61.8915 229.021H64.8072V226.205H67.7229V229.021V231.837H61.8915V229.021ZM85.2168 229.021H88.1325V226.205H91.0482V229.021V231.837H85.2168V229.021Z" fill="black"/>
<path fill-rule="evenodd" clip-rule="evenodd" d="M53.1447 217.756H58.976H67.723H70.6386V231.837V234.654H58.976H53.1447V217.756ZM53.1447 234.654V237.47H50.229V234.654H53.1447ZM58.976 229.021V223.389H64.8073V226.205H67.723V231.837H61.8917V229.021H58.976ZM76.47 217.756H82.3013H91.0483H93.9639V223.389V231.837V234.654H82.3013H76.47V217.756ZM82.3013 223.389H88.1326V226.205H91.0483L91.0483 231.837H85.217V229.021H82.3013V223.389Z" fill="#123251"/>
<path fill-rule="evenodd" clip-rule="evenodd" d="M53.1447 214.94H50.229V234.654H53.1447V217.756H70.6386V214.94H53.1447ZM73.5543 234.654V217.756V214.94H76.47H93.9639V217.756H76.47V234.654H73.5543Z" fill="#00E5D4"/>
<path fill-rule="evenodd" clip-rule="evenodd" d="M64.8072 223.389H58.9758V229.021H64.8072V223.389ZM88.1325 223.389H82.3011V229.021H88.1325V223.389Z" fill="#93FCEE"/>
<path fill-rule="evenodd" clip-rule="evenodd" d="M70.6386 237.47H67.7229V243.102H64.8073V248.735H61.8916V254.367H64.8073V248.735H67.7229V243.102H70.6386V237.47ZM93.9639 237.47H91.0482V243.102H88.1326V248.735H85.2169V254.367H88.1326V248.735H91.0482V243.102H93.9639V237.47Z" fill="#123251"/>
<path fill-rule="evenodd" clip-rule="evenodd" d="M67.723 237.47H50.229V243.102H53.1447V248.735H56.0603V254.367H58.976V260H61.8917V254.367V248.735H64.8073V243.102H67.723V237.47ZM73.5543 237.47H91.0483V243.102H88.1326V248.735H85.217V254.367L85.217 260H82.3013V254.367H79.3856V248.735H76.47V243.102H73.5543V237.47Z" fill="#93FCEE"/>
<path fill-rule="evenodd" clip-rule="evenodd" d="M56.0603 169.88H91.0483V172.696H93.9639V175.512H96.8796V209.307H93.9639V212.123H91.0483V214.94H56.0603V212.123H53.1447V209.307H50.229V175.512H53.1447V172.696H56.0603V169.88Z" fill="black"/>
<path fill-rule="evenodd" clip-rule="evenodd" d="M91.0483 172.696H56.0603V175.512H58.976V178.328H61.8916V181.145H64.8073V183.961H67.723V186.777H70.6386V189.593H76.4699V186.777H79.3856V183.961H82.3013V181.145H85.2169V178.328H88.1326V175.512H91.0483V172.696Z" fill="#93FCEE"/>
<path fill-rule="evenodd" clip-rule="evenodd" d="M56.0604 212.124H91.0483V209.307H88.1327V206.491H85.217V203.675H82.3014V200.858H79.3857V198.042H76.47V195.226H70.6387V198.042H67.723V200.858H64.8074V203.675H61.8917V206.491H58.9761V209.307H56.0604V212.124Z" fill="#123251"/>
<path fill-rule="evenodd" clip-rule="evenodd" d="M93.9639 209.307V175.512H91.0482V178.328H88.1325V181.145H85.2169V183.961H82.3012V186.777H79.3856V189.593H76.4699V195.226H79.3856V198.042H82.3012V200.858H85.2169V203.675H88.1325V206.491H91.0482L91.0482 209.307H93.9639Z" fill="#123251"/>
<path fill-rule="evenodd" clip-rule="evenodd" d="M53.1448 175.512V209.307H56.0604V206.491H58.9761V203.675H61.8918V200.858H64.8074V198.042H67.7231V195.226H70.6388V189.593H67.7231V186.777H64.8074V183.961H61.8918V181.145H58.9761V178.328H56.0604V175.512H53.1448Z" fill="#00E5D4"/>
<path fill-rule="evenodd" clip-rule="evenodd" d="M58.976 175.512H56.0603V178.328H58.976V181.145H61.8916V183.961H64.8073V186.777H67.723V189.593H70.6386V192.41H73.5543V189.593H70.6386V186.777H67.723V183.961H64.8073V181.145H61.8916V178.328H58.976V175.512Z" fill="#123251"/>
<rect x="74" width="43" height="43" fill="black"/>
<rect x="76.6875" y="2.6875" width="37.625" height="37.625" fill="#A8FCB5"/>
<rect x="79.1958" y="5.19586" width="35.1167" height="35.1166" fill="#2E99FC"/>
<path d="M79.375 5.375H82.0625V8.0625H79.375V5.375Z" fill="black"/>
<path d="M108.938 5.375H111.625V8.0625H108.938V5.375Z" fill="black"/>
<path d="M108.938 34.9375H111.625V37.625H108.938V34.9375Z" fill="black"/>
<path d="M79.375 34.9375H82.0625V37.625H79.375V34.9375Z" fill="black"/>
<path d="M106.25 10.75H87.4375V13.4375H84.75V18.8125H92.8125V16.125H100.875V21.5H92.8125V26.875H100.875V24.1875H106.25V21.5H108.938V13.4375H106.25V10.75Z" fill="black"/>
<path d="M92.8125 29.5625H100.875V34.9375H92.8125V29.5625Z" fill="black"/>
<path d="M103.562 8.0625H84.75V10.75H82.0625V16.125H90.125V13.4375H98.1875V18.8125H90.125V24.1875H98.1875V21.5H103.562V18.8125H106.25V10.75H103.562V8.0625Z" fill="#A8FCB5"/>
<path d="M90.125 26.875H98.1875V32.25H90.125V26.875Z" fill="#A8FCB5"/>
<path fill-rule="evenodd" clip-rule="evenodd" d="M938.217 212.124H896.47V214.94H915.952V234.654H896.47V237.47H935.434V234.654H918.735V214.94H938.217V212.124ZM938.217 214.94V234.654H941V214.94H938.217ZM896.47 234.654V214.94H893.687V234.654H896.47ZM927.084 229.021H924.301V226.205H921.518V229.021V231.837H927.084V229.021ZM904.819 229.021H902.036V226.205H899.253V229.021V231.837H904.819V229.021Z" fill="black"/>
<path fill-rule="evenodd" clip-rule="evenodd" d="M935.434 217.756H929.868H921.518H918.735V231.837V234.654H929.868H935.434V217.756ZM935.434 234.654V237.47H938.217V234.654H935.434ZM929.868 229.021V223.389H924.301V226.205H921.518V231.837H927.084V229.021H929.868ZM913.169 217.756H907.602H899.253H896.47V223.389V231.837V234.654H907.602H913.169V217.756ZM907.602 223.389H902.036V226.205H899.253L899.253 231.837H904.819V229.021H907.602V223.389Z" fill="#123251"/>
<path fill-rule="evenodd" clip-rule="evenodd" d="M935.434 214.94H938.217V234.654H935.434V217.756H918.735V214.94H935.434ZM915.952 234.654V217.756V214.94H913.169H896.47V217.756H913.169V234.654H915.952Z" fill="#00E5D4"/>
<path fill-rule="evenodd" clip-rule="evenodd" d="M924.301 223.389H929.867V229.021H924.301V223.389ZM902.036 223.389H907.602V229.021H902.036V223.389Z" fill="#93FCEE"/>
<path fill-rule="evenodd" clip-rule="evenodd" d="M918.735 237.47H921.518V243.102H924.301V248.735H927.084V254.367H924.301V248.735H921.518V243.102H918.735V237.47ZM896.47 237.47H899.253V243.102H902.036V248.735H904.819V254.367H902.036V248.735H899.253V243.102H896.47V237.47Z" fill="#123251"/>
<path fill-rule="evenodd" clip-rule="evenodd" d="M921.518 237.47H938.217V243.102H935.434V248.735H932.651V254.367H929.868V260H927.084V254.367V248.735H924.301V243.102H921.518V237.47ZM915.952 237.47H899.253V243.102H902.036V248.735H904.819V254.367V260H907.602V254.367H910.386V248.735H913.169V243.102H915.952V237.47Z" fill="#93FCEE"/>
<path fill-rule="evenodd" clip-rule="evenodd" d="M932.651 169.88H899.253V172.696H896.47V175.512H893.687V209.307H896.47V212.123H899.253V214.94H932.651V212.123H935.434V209.307H938.217V175.512H935.434V172.696H932.651V169.88Z" fill="black"/>
<path fill-rule="evenodd" clip-rule="evenodd" d="M899.253 172.696H932.651V175.512H929.868V178.328H927.084V181.145H924.301V183.961H921.518V186.777H918.735V189.593H913.169V186.777H910.386V183.961H907.602V181.145H904.819V178.328H902.036V175.512H899.253V172.696Z" fill="#93FCEE"/>
<path fill-rule="evenodd" clip-rule="evenodd" d="M932.651 212.124H899.253V209.307H902.036V206.491H904.819V203.675H907.602V200.858H910.386V198.042H913.169V195.226H918.735V198.042H921.518V200.858H924.301V203.675H927.084V206.491H929.868V209.307H932.651V212.124Z" fill="#123251"/>
<path fill-rule="evenodd" clip-rule="evenodd" d="M896.47 209.307V175.512H899.253V178.328H902.036V181.145H904.819V183.961H907.602V186.777H910.386V189.593H913.169V195.226H910.386V198.042H907.602V200.858H904.819V203.675H902.036V206.491H899.253L899.253 209.307H896.47Z" fill="#123251"/>
<path fill-rule="evenodd" clip-rule="evenodd" d="M935.434 175.512V209.307H932.651V206.491H929.868V203.675H927.084V200.858H924.301V198.042L921.518 198.042V195.226H918.735V189.593H921.518V186.777L924.301 186.777V183.961H927.084V181.145H929.868V178.328H932.651V175.512H935.434Z" fill="#00E5D4"/>
<path fill-rule="evenodd" clip-rule="evenodd" d="M929.868 175.512H932.651V178.328H929.868V181.145H927.084V183.961H924.301V186.777H921.518V189.593H918.735V192.41H915.952V189.593H918.735V186.777H921.518V183.961H924.301V181.145H927.084V178.328H929.868V175.512Z" fill="#123251"/>
<path fill-rule="evenodd" clip-rule="evenodd" d="M799.59 212.124H756.849V214.94H776.795V234.654H756.849V237.47H796.741V234.654H779.645V214.94H799.59V212.124ZM799.59 214.94V234.654H802.44V214.94H799.59ZM756.849 234.654V214.94H754V234.654H756.849ZM788.193 229.021H785.343V226.205H782.494V229.021V231.837H788.193V229.021ZM765.398 229.021H762.548V226.205H759.699V229.021V231.837H765.398V229.021Z" fill="black"/>
<path fill-rule="evenodd" clip-rule="evenodd" d="M796.741 217.756H791.042H782.494H779.645V231.837V234.654H791.042H796.741V217.756ZM796.741 234.654V237.47H799.59V234.654H796.741ZM791.042 229.021V223.389H785.343V226.205H782.494V231.837H788.193V229.021H791.042ZM773.946 217.756H768.247H759.699H756.849V223.389V231.837V234.654H768.247H773.946V217.756ZM768.247 223.389H762.548V226.205H759.699V231.837H765.398V229.021H768.247V223.389Z" fill="#123251"/>
<path fill-rule="evenodd" clip-rule="evenodd" d="M796.741 214.94H799.59V234.654H796.741V217.756H779.645V214.94H796.741ZM776.795 234.654V217.756V214.94H773.946H756.849V217.756H773.946V234.654H776.795Z" fill="#00E5D4"/>
<path fill-rule="evenodd" clip-rule="evenodd" d="M785.343 223.389H791.042V229.021H785.343V223.389ZM762.548 223.389H768.247V229.021H762.548V223.389Z" fill="#93FCEE"/>
<path fill-rule="evenodd" clip-rule="evenodd" d="M779.645 237.47H782.494V243.102H785.343V248.735H788.193V254.367H785.343V248.735H782.494V243.102H779.645V237.47ZM756.849 237.47H759.699V243.102H762.548V248.735H765.398V254.367H762.548V248.735H759.699V243.102H756.849V237.47Z" fill="#123251"/>
<path fill-rule="evenodd" clip-rule="evenodd" d="M782.494 237.47H799.59V243.102H796.741V248.735H793.892V254.367H791.042V260H788.193V254.367V248.735H785.343V243.102H782.494V237.47ZM776.795 237.47H759.699V243.102H762.548V248.735H765.398V254.367V260H768.247V254.367H771.096V248.735H773.946V243.102H776.795V237.47Z" fill="#93FCEE"/>
<path fill-rule="evenodd" clip-rule="evenodd" d="M793.892 169.88H759.699V172.696H756.849V175.512H754V209.307H756.849V212.123H759.699V214.94H793.892V212.123H796.741V209.307H799.59V175.512H796.741V172.696H793.892V169.88Z" fill="black"/>
<path fill-rule="evenodd" clip-rule="evenodd" d="M759.699 172.696H793.891V175.512H791.042V178.328H788.193V181.145H785.343V183.961H782.494V186.777H779.644V189.593H773.946V186.777H771.096V183.961H768.247V181.145H765.398V178.328H762.548V175.512H759.699V172.696Z" fill="#93FCEE"/>
<path fill-rule="evenodd" clip-rule="evenodd" d="M793.892 212.124H759.699V209.307H762.548V206.491H765.398V203.675H768.247V200.858H771.096V198.042H773.946V195.226H779.645V198.042H782.494V200.858H785.343V203.675H788.193V206.491H791.042V209.307H793.892V212.124Z" fill="#123251"/>
<path fill-rule="evenodd" clip-rule="evenodd" d="M756.849 209.307V175.512H759.699V209.307H756.849ZM762.548 206.491H759.699V178.328H762.548V181.145H765.398V183.961H768.247V186.777H771.096V189.593H773.946V195.226H771.096V198.042H768.247V200.858H765.398V203.675H762.548V206.491Z" fill="#123251"/>
<path fill-rule="evenodd" clip-rule="evenodd" d="M796.741 175.512V209.307H793.892V206.491H791.042V203.675H788.193V200.858H785.343V198.042H782.494V195.226H779.645V189.593H782.494V186.777H785.343V183.961H788.193V181.145H791.042V178.328H793.892V175.512H796.741Z" fill="#00E5D4"/>
<path fill-rule="evenodd" clip-rule="evenodd" d="M791.042 175.512H793.891V178.328H791.042V181.145H788.193V183.961H785.343V186.777H782.494V189.593H779.644V192.41H776.795V189.593H779.644V186.777H782.494V183.961H785.343V181.145H788.193V178.328H791.042V175.512Z" fill="#123251"/>
<path fill-rule="evenodd" clip-rule="evenodd" d="M844.717 212.124H802.97V214.94H822.452V234.654H802.97V237.47H841.934V234.654H825.235V214.94H844.717V212.124ZM844.717 214.94V234.654H847.5V214.94H844.717ZM802.97 234.654V214.94H800.187V234.654H802.97ZM833.584 229.021H830.801V226.205H828.018V229.021V231.837H833.584V229.021ZM811.319 229.021H808.536V226.205H805.753V229.021V231.837H811.319V229.021Z" fill="black"/>
<path fill-rule="evenodd" clip-rule="evenodd" d="M841.934 217.756H836.368H828.018H825.235V231.837V234.654H836.368H841.934V217.756ZM841.934 234.654V237.47H844.717V234.654H841.934ZM836.368 229.021V223.389H830.801V226.205H828.018V231.837H833.584V229.021H836.368ZM819.669 217.756H814.102H805.753H802.97V223.389V231.837V234.654H814.102H819.669V217.756ZM814.102 223.389H808.536V226.205H805.753L805.753 231.837H811.319V229.021H814.102V223.389Z" fill="#123251"/>
<path fill-rule="evenodd" clip-rule="evenodd" d="M841.934 214.94H844.717V234.654H841.934V217.756H825.235V214.94H841.934ZM822.452 234.654V217.756V214.94H819.669H802.97V217.756H819.669V234.654H822.452Z" fill="#00E5D4"/>
<path fill-rule="evenodd" clip-rule="evenodd" d="M830.801 223.389H836.367V229.021H830.801V223.389ZM808.536 223.389H814.102V229.021H808.536V223.389Z" fill="#93FCEE"/>
<path fill-rule="evenodd" clip-rule="evenodd" d="M825.235 237.47H828.018V243.102H830.801V248.735H833.584V254.367H830.801V248.735H828.018V243.102H825.235V237.47ZM802.97 237.47H805.753V243.102H808.536V248.735H811.319V254.367H808.536V248.735H805.753V243.102H802.97V237.47Z" fill="#123251"/>
<path fill-rule="evenodd" clip-rule="evenodd" d="M828.018 237.47H844.717V243.102H841.934V248.735H839.151V254.367H836.368V260H833.584V254.367V248.735H830.801V243.102H828.018V237.47ZM822.452 237.47H805.753V243.102H808.536V248.735H811.319V254.367V260H814.102V254.367H816.886V248.735H819.669V243.102H822.452V237.47Z" fill="#93FCEE"/>
<path fill-rule="evenodd" clip-rule="evenodd" d="M839.151 169.88H805.753V172.696H802.97V175.512H800.187V209.307H802.97V212.123H805.753V214.94H839.151V212.123H841.934V209.307H844.717V175.512H841.934V172.696H839.151V169.88Z" fill="black"/>
<path fill-rule="evenodd" clip-rule="evenodd" d="M805.753 172.696H839.151V175.512H836.368V178.328H833.584V181.145H830.801V183.961H828.018V186.777H825.235V189.593H819.669V186.777H816.886V183.961H814.102V181.145H811.319V178.328H808.536V175.512H805.753V172.696Z" fill="#93FCEE"/>
<path fill-rule="evenodd" clip-rule="evenodd" d="M839.151 212.124H805.753V209.307H808.536V206.491H811.319V203.675H814.102V200.858H816.886V198.042H819.669V195.226H825.235V198.042H828.018V200.858H830.801V203.675H833.584V206.491H836.368V209.307H839.151V212.124Z" fill="#123251"/>
<path fill-rule="evenodd" clip-rule="evenodd" d="M802.97 209.307V175.512H805.753V178.328H808.536V181.145H811.319V183.961H814.102V186.777H816.886V189.593H819.669V195.226H816.886V198.042H814.102V200.858H811.319V203.675H808.536V206.491H805.753L805.753 209.307H802.97Z" fill="#123251"/>
<path fill-rule="evenodd" clip-rule="evenodd" d="M841.934 175.512V209.307H839.151V206.491H836.368V203.675H833.584V200.858H830.801V198.042H828.018V195.226H825.235V189.593H828.018V186.777H830.801V183.961H833.584V181.145H836.368V178.328H839.151V175.512H841.934Z" fill="#00E5D4"/>
<path fill-rule="evenodd" clip-rule="evenodd" d="M836.368 175.512H839.151V178.328H836.368V181.145H833.584V183.961H830.801V186.777H828.018V189.593H825.235V192.41H822.452V189.593H825.235V186.777H828.018V183.961H830.801V181.145H833.584V178.328H836.368V175.512Z" fill="#123251"/>
<path fill-rule="evenodd" clip-rule="evenodd" d="M890.771 212.124H847.036V214.94H867.446V234.654H847.036V237.47H887.855V234.654H870.361V214.94H890.771V212.124ZM890.771 214.94V234.654H893.687V214.94H890.771ZM847.036 234.654V214.94H844.121V234.654H847.036ZM879.108 229.021H876.193V226.205H873.277V229.021V231.837H879.108V229.021ZM855.783 229.021H852.867V226.205H849.952V229.021V231.837H855.783V229.021Z" fill="black"/>
<path fill-rule="evenodd" clip-rule="evenodd" d="M887.855 217.756H882.024H873.277H870.361V231.837V234.654H882.024H887.855V217.756ZM887.855 234.654V237.47H890.771V234.654H887.855ZM882.024 229.021V223.389H876.193V226.205H873.277V231.837H879.108V229.021H882.024ZM864.53 217.756H858.699H849.952H847.036V223.389V231.837V234.654H858.699H864.53V217.756ZM858.699 223.389H852.868V226.205H849.952L849.952 231.837H855.783V229.021H858.699V223.389Z" fill="#123251"/>
<path fill-rule="evenodd" clip-rule="evenodd" d="M887.855 214.94H890.771V234.654H887.855V217.756H870.361V214.94H887.855ZM867.446 234.654V217.756V214.94H864.53H847.036V217.756H864.53V234.654H867.446Z" fill="#00E5D4"/>
<path fill-rule="evenodd" clip-rule="evenodd" d="M876.193 223.389H882.024V229.021H876.193V223.389ZM852.868 223.389H858.699V229.021H852.868V223.389Z" fill="#93FCEE"/>
<path fill-rule="evenodd" clip-rule="evenodd" d="M870.362 237.47H873.277V243.102H876.193V248.735H879.109V254.367H876.193V248.735H873.277V243.102H870.362V237.47ZM847.036 237.47H849.952V243.102H852.868V248.735H855.783V254.367H852.868V248.735H849.952V243.102H847.036V237.47Z" fill="#123251"/>
<path fill-rule="evenodd" clip-rule="evenodd" d="M873.277 237.47H890.771V243.102H887.855V248.735H884.94V254.367H882.024V260H879.108V254.367V248.735H876.193V243.102H873.277V237.47ZM867.446 237.47H849.952V243.102H852.868V248.735H855.783V254.367L855.783 260H858.699V254.367H861.614V248.735H864.53V243.102H867.446V237.47Z" fill="#93FCEE"/>
<path fill-rule="evenodd" clip-rule="evenodd" d="M884.94 169.88H849.952V172.696H847.036V175.512H844.121V209.307H847.036V212.123H849.952V214.94H884.94V212.123H887.855V209.307H890.771V175.512H887.855V172.696H884.94V169.88Z" fill="black"/>
<path fill-rule="evenodd" clip-rule="evenodd" d="M849.952 172.696H884.94V175.512H882.024V178.328H879.108V181.145H876.193V183.961H873.277V186.777H870.362V189.593H864.53V186.777H861.615V183.961H858.699V181.145H855.783V178.328H852.868V175.512H849.952V172.696Z" fill="#93FCEE"/>
<path fill-rule="evenodd" clip-rule="evenodd" d="M884.94 212.124H849.952V209.307H852.867V206.491H855.783V203.675H858.699V200.858H861.614V198.042H864.53V195.226H870.361V198.042H873.277V200.858H876.193V203.675H879.108V206.491H882.024V209.307H884.94V212.124Z" fill="#123251"/>
<path fill-rule="evenodd" clip-rule="evenodd" d="M847.036 209.307V175.512H849.952V178.328H852.867V181.145H855.783V183.961L858.699 183.961V186.777H861.614V189.593H864.53V195.226H861.614V198.042H858.699V200.858L855.783 200.858V203.675H852.867V206.491H849.952L849.952 209.307H847.036Z" fill="#123251"/>
<path fill-rule="evenodd" clip-rule="evenodd" d="M887.855 175.512V209.307H884.94V206.491H882.024V203.675H879.108V200.858H876.193V198.042H873.277V195.226H870.361V189.593H873.277V186.777H876.193V183.961H879.108V181.145H882.024V178.328H884.94V175.512H887.855Z" fill="#00E5D4"/>
<path fill-rule="evenodd" clip-rule="evenodd" d="M882.024 175.512H884.94V178.328H882.024V181.145H879.108V183.961H876.193V186.777H873.277V189.593H870.362V192.41H867.446V189.593H870.362V186.777H873.277V183.961H876.193V181.145H879.108V178.328H882.024V175.512Z" fill="#123251"/>
<rect x="824" width="43" height="43" fill="black"/>
<rect x="826.688" y="2.6875" width="37.625" height="37.625" fill="#A8FCB5"/>
<rect x="829.196" y="5.19586" width="35.1167" height="35.1166" fill="#2E99FC"/>
<path d="M829.375 5.375H832.062V8.0625H829.375V5.375Z" fill="black"/>
<path d="M858.938 5.375H861.625V8.0625H858.938V5.375Z" fill="black"/>
<path d="M858.938 34.9375H861.625V37.625H858.938V34.9375Z" fill="black"/>
<path d="M829.375 34.9375H832.062V37.625H829.375V34.9375Z" fill="black"/>
<path d="M856.25 10.75H837.438V13.4375H834.75V18.8125H842.812V16.125H850.875V21.5H842.812V26.875H850.875V24.1875H856.25V21.5H858.938V13.4375H856.25V10.75Z" fill="black"/>
<path d="M842.812 29.5625H850.875V34.9375H842.812V29.5625Z" fill="black"/>
<path d="M853.562 8.0625H834.75V10.75H832.062V16.125H840.125V13.4375H848.188V18.8125H840.125V24.1875H848.188V21.5H853.562V18.8125H856.25V10.75H853.562V8.0625Z" fill="#A8FCB5"/>
<path d="M840.125 26.875H848.188V32.25H840.125V26.875Z" fill="#A8FCB5"/>
</svg>
