<svg width="335" height="135" viewBox="0 0 335 135" fill="none" xmlns="http://www.w3.org/2000/svg">
<rect x="37.4199" width="21" height="21" fill="black"/>
<rect x="38.7324" y="1.3125" width="18.375" height="18.375" fill="#A8FCB5"/>
<rect x="39.9575" y="2.53754" width="17.15" height="17.15" fill="#2E99FC"/>
<path d="M40.0449 2.625H41.3574V3.9375H40.0449V2.625Z" fill="black"/>
<path d="M54.4824 2.625H55.7949V3.9375H54.4824V2.625Z" fill="black"/>
<path d="M54.4824 17.0625H55.7949V18.375H54.4824V17.0625Z" fill="black"/>
<path d="M40.0449 17.0625H41.3574V18.375H40.0449V17.0625Z" fill="black"/>
<path d="M53.1699 5.25H43.9824V6.5625H42.6699V9.1875H46.6074V7.875H50.5449V10.5H46.6074V13.125H50.5449V11.8125H53.1699V10.5H54.4824V6.5625H53.1699V5.25Z" fill="black"/>
<path d="M46.6074 14.4375H50.5449V17.0625H46.6074V14.4375Z" fill="black"/>
<path d="M51.8574 3.9375H42.6699V5.25H41.3574V7.875H45.2949V6.5625H49.2324V9.1875H45.2949V11.8125H49.2324V10.5H51.8574V9.1875H53.1699V5.25H51.8574V3.9375Z" fill="#A8FCB5"/>
<path d="M45.2949 13.125H49.2324V15.75H45.2949V13.125Z" fill="#A8FCB5"/>
<path fill-rule="evenodd" clip-rule="evenodd" d="M1.39037 106.082H22.246V107.489H12.5134V117.338H22.246V118.745H2.78075V117.338H11.123V107.489H1.39037V106.082ZM1.39037 107.489V117.338H0V107.489H1.39037ZM22.246 117.338V107.489H23.6364V117.338H22.246ZM6.95187 114.524H8.34225V113.117H9.73262V114.524V115.931H6.95187V114.524ZM18.0749 114.524H19.4652V113.117H20.8556V114.524V115.931H18.0749V114.524Z" fill="black"/>
<path fill-rule="evenodd" clip-rule="evenodd" d="M2.78076 108.896H5.5615H9.73263H11.123V115.931V117.338H5.5615H2.78076V108.896ZM2.78076 117.338V118.745H1.39038V117.338H2.78076ZM5.5615 114.524V111.71H8.34225V113.117H9.73263V115.931H6.95188V114.524H5.5615ZM13.9038 108.896H16.6845H20.8556H22.246V111.71V115.931V117.338H16.6845H13.9038V108.896ZM16.6845 111.71H19.4652V113.117H20.8556V115.931H18.0749V114.524H16.6845V111.71Z" fill="#123251"/>
<path fill-rule="evenodd" clip-rule="evenodd" d="M2.78076 107.489H1.39038V117.338H2.78076V108.896H11.123V107.489H2.78076ZM12.5134 117.338V108.896V107.489H13.9038H22.246V108.896H13.9038V117.338H12.5134Z" fill="#00E5D4"/>
<path fill-rule="evenodd" clip-rule="evenodd" d="M8.34227 111.71H5.56152V114.524H8.34227V111.71ZM19.4653 111.71H16.6845V114.524H19.4653V111.71Z" fill="#93FCEE"/>
<path fill-rule="evenodd" clip-rule="evenodd" d="M11.123 118.745H9.73265V121.558H8.34228V124.372H6.9519V127.186H8.34228V124.372H9.73265V121.558H11.123V118.745ZM22.246 118.745H20.8556V121.558H19.4653V124.372H18.0749V127.186H19.4653V124.372H20.8556V121.558H22.246V118.745Z" fill="#123251"/>
<path fill-rule="evenodd" clip-rule="evenodd" d="M9.73263 118.745H1.39038V121.558H2.78076V124.372H4.17113V127.186H5.5615V130H6.95188V127.186V124.372H8.34225V121.558H9.73263V118.745ZM12.5134 118.745H20.8556V121.558H19.4652V124.372H18.0749V127.186V130H16.6845V127.186H15.2941V124.372H13.9038V121.558H12.5134V118.745Z" fill="#93FCEE"/>
<path fill-rule="evenodd" clip-rule="evenodd" d="M4.17113 84.9784H20.8556V86.3853H22.246V87.7922H23.6364V104.675H22.246V106.082H20.8556V107.489H4.17113V106.082H2.78076V104.675H1.39038V87.7922H2.78076V86.3853H4.17113V84.9784Z" fill="black"/>
<path fill-rule="evenodd" clip-rule="evenodd" d="M20.8556 86.3853H4.17114V87.7922H5.56152V89.1992H6.95189V90.6061H8.34227V92.013H9.73264V93.4199H11.123V94.8269H13.9038V93.4199H15.2941V92.013H16.6845V90.6061H18.0749V89.1992H19.4653V87.7922H20.8556V86.3853Z" fill="#93FCEE"/>
<path fill-rule="evenodd" clip-rule="evenodd" d="M4.17122 106.082H20.8557V104.675H19.4653V103.268H18.075V101.861H16.6846V100.455H15.2942V99.0476H13.9038V97.6407H11.1231V99.0476H9.73272V100.455H8.34234V101.861H6.95197V103.268H5.56159V104.675H4.17122V106.082Z" fill="#123251"/>
<path fill-rule="evenodd" clip-rule="evenodd" d="M22.2461 104.675V87.7922H20.8557L20.8557 89.1992H19.4653V90.6061H18.075V92.013H16.6846V93.4199H15.2942V94.8269H13.9038V97.6407H15.2942V99.0476H16.6846V100.455H18.075V101.862H19.4653V103.268H20.8557L20.8557 104.675H22.2461Z" fill="#123251"/>
<path fill-rule="evenodd" clip-rule="evenodd" d="M2.78076 87.7922L2.78076 104.675H4.17114V103.268H5.56151V101.862H6.95189V100.455H8.34226V99.0476H9.73263V97.6407H11.123V94.8269H9.73263V93.4199H8.34226V92.013H6.95189V90.6061H5.56151V89.1992H4.17114V87.7922H2.78076Z" fill="#00E5D4"/>
<path fill-rule="evenodd" clip-rule="evenodd" d="M5.56152 87.7922H4.17114V89.1992H5.56152L5.56152 90.6061H6.95189V92.013H8.34227V93.4199H9.73264V94.8269H11.123V96.2338H12.5134V94.8269L11.123 94.8269V93.4199H9.73264V92.013H8.34227V90.6061H6.95189V89.1992H5.56152V87.7922Z" fill="#123251"/>
<path fill-rule="evenodd" clip-rule="evenodd" d="M70.6442 106.082H91.9964V107.489H82.032V117.338H91.9964V118.745H72.0677V117.338H80.6085V107.489H70.6442V106.082ZM70.6442 107.489V117.338H69.2207V107.489H70.6442ZM91.9964 117.338V107.489H93.4198V117.338H91.9964ZM76.3381 114.524H77.7616V113.117H79.1851V114.524V115.931H76.3381V114.524ZM87.7259 114.524H89.1494V113.117H90.5729V114.524V115.931H87.7259V114.524Z" fill="black"/>
<path fill-rule="evenodd" clip-rule="evenodd" d="M72.0678 108.896H74.9147H79.1852H80.6086V115.931V117.338H74.9147H72.0678V108.896ZM72.0678 117.338V118.745H70.6443V117.338H72.0678ZM74.9147 114.524V111.71H77.7617V113.117H79.1852L79.1852 115.931H76.3382V114.524H74.9147ZM83.4556 108.896H86.3026H90.573H91.9965V111.71V115.931V117.338H86.3026H83.4556V108.896ZM86.3026 111.71H89.1495V113.117H90.573V115.931H87.726V114.524H86.3026V111.71Z" fill="#123251"/>
<path fill-rule="evenodd" clip-rule="evenodd" d="M72.0678 107.489H70.6443V117.338H72.0678V108.896H80.6086V107.489H72.0678ZM82.0321 117.338V108.896V107.489H83.4556H91.9965V108.896H83.4556V117.338H82.0321Z" fill="#00E5D4"/>
<path fill-rule="evenodd" clip-rule="evenodd" d="M77.7615 111.71H74.9146V114.524H77.7615V111.71ZM89.1493 111.71H86.3024V114.524H89.1493V111.71Z" fill="#93FCEE"/>
<path fill-rule="evenodd" clip-rule="evenodd" d="M80.6086 118.745H79.1851V121.558H77.7616V124.372H76.3381V127.186H77.7616V124.372H79.1851V121.558H80.6086V118.745ZM91.9964 118.745H90.5729V121.558H89.1494V124.372H87.726V127.186H89.1494V124.372H90.5729V121.558H91.9964V118.745Z" fill="#123251"/>
<path fill-rule="evenodd" clip-rule="evenodd" d="M79.1852 118.745H70.6443V121.558H72.0678V124.372H73.4912V127.186H74.9147V130H76.3382V127.186V124.372H77.7617V121.558H79.1852V118.745ZM82.0321 118.745H90.573V121.558H89.1495V124.372H87.726V127.186V130H86.3026V127.186H84.8791V124.372H83.4556V121.558H82.0321V118.745Z" fill="#93FCEE"/>
<path fill-rule="evenodd" clip-rule="evenodd" d="M73.4912 84.9784H90.573V86.3853H91.9965V87.7922H93.4199V104.675H91.9965V106.082H90.573V107.489H73.4912V106.082H72.0678V104.675H70.6443V87.7922H72.0678V86.3853H73.4912V84.9784Z" fill="black"/>
<path fill-rule="evenodd" clip-rule="evenodd" d="M90.573 86.3853H73.4912V87.7922H74.9147V89.1992H76.3382V90.6061H77.7616V92.013H79.1851V93.4199H80.6086V94.8269H83.4556V93.4199H84.879V92.013H86.3025V90.6061H87.726V89.1992H89.1495V87.7922H90.573V86.3853Z" fill="#93FCEE"/>
<path fill-rule="evenodd" clip-rule="evenodd" d="M73.4913 106.082H90.573V104.675H89.1495V103.268H87.726V101.861H86.3026V100.455H84.8791V99.0476H83.4556V97.6407H80.6086V99.0476H79.1852V100.455H77.7617V101.861H76.3382V103.268H74.9147V104.675H73.4913V106.082Z" fill="#123251"/>
<path fill-rule="evenodd" clip-rule="evenodd" d="M91.9966 104.675V87.7922H90.5731L90.5731 89.1992H89.1496V90.6061H87.7261V92.013H86.3027V93.4199H84.8792V94.8269H83.4557V97.6407H84.8792V99.0476H86.3027V100.455H87.7261V101.862H89.1496V103.268H90.5731L90.5731 104.675H91.9966Z" fill="#123251"/>
<path fill-rule="evenodd" clip-rule="evenodd" d="M72.0679 87.7922V104.675H73.4913V103.268H74.9148V101.862H76.3383L76.3383 100.455H77.7618V99.0476H79.1853V97.6407H80.6087V94.8269H79.1853V93.4199H77.7618V92.013H76.3383L76.3383 90.6061H74.9148V89.1992H73.4913V87.7922H72.0679Z" fill="#00E5D4"/>
<path fill-rule="evenodd" clip-rule="evenodd" d="M74.9147 87.7922H73.4912V89.1992H74.9147L74.9147 90.6061H76.3382V92.013H77.7616V93.4199H79.1851V94.8269H80.6086V96.2338H82.0321V94.8269L80.6086 94.8269V93.4199H79.1851V92.013H77.7616V90.6061H76.3382V89.1992H74.9147V87.7922Z" fill="#123251"/>
<path fill-rule="evenodd" clip-rule="evenodd" d="M48.1003 106.082H68.9559V107.489H59.2233V117.338H68.9559V118.745H49.4907V117.338H57.833V107.489H48.1003V106.082ZM48.1003 107.489V117.338H46.71V107.489H48.1003ZM68.9559 117.338V107.489H70.3463V117.338H68.9559ZM53.6618 114.524H55.0522V113.117H56.4426V114.524V115.931H53.6618V114.524ZM64.7848 114.524H66.1752V113.117H67.5656V114.524V115.931H64.7848V114.524Z" fill="black"/>
<path fill-rule="evenodd" clip-rule="evenodd" d="M49.4907 108.896H52.2715H56.4426H57.833V115.931V117.338H52.2715H49.4907V108.896ZM49.4907 117.338V118.745H48.1003V117.338H49.4907ZM52.2715 114.524V111.71H55.0522V113.117H56.4426V115.931H53.6618V114.524H52.2715ZM60.6137 108.896H63.3945H67.5656H68.956V111.71V115.931V117.338H63.3945H60.6137V108.896ZM63.3945 111.71H66.1752V113.117H67.5656V115.931H64.7848V114.524H63.3945V111.71Z" fill="#123251"/>
<path fill-rule="evenodd" clip-rule="evenodd" d="M49.4907 107.489H48.1003V117.338H49.4907V108.896H57.833V107.489H49.4907ZM59.2233 117.338V108.896V107.489H60.6137H68.956V108.896H60.6137V117.338H59.2233Z" fill="#00E5D4"/>
<path fill-rule="evenodd" clip-rule="evenodd" d="M55.0522 111.71H52.2715V114.524H55.0522V111.71ZM66.1752 111.71H63.3945V114.524H66.1752V111.71Z" fill="#93FCEE"/>
<path fill-rule="evenodd" clip-rule="evenodd" d="M57.833 118.745H56.4426V121.558H55.0522V124.372H53.6619V127.186H55.0522V124.372H56.4426V121.558H57.833V118.745ZM68.956 118.745H67.5656V121.558H66.1752V124.372H64.7849V127.186H66.1752V124.372H67.5656V121.558H68.956V118.745Z" fill="#123251"/>
<path fill-rule="evenodd" clip-rule="evenodd" d="M56.4426 118.745H48.1003V121.558H49.4907V124.372H50.8811V127.186H52.2715V130H53.6618V127.186V124.372H55.0522V121.558H56.4426V118.745ZM59.2233 118.745H67.5656V121.558H66.1752V124.372H64.7848V127.186V130H63.3945V127.186H62.0041V124.372H60.6137V121.558H59.2233V118.745Z" fill="#93FCEE"/>
<path fill-rule="evenodd" clip-rule="evenodd" d="M50.8811 84.9784H67.5656V86.3853H68.956V87.7922H70.3463V104.675H68.956V106.082H67.5656V107.489H50.8811V106.082H49.4907V104.675H48.1003V87.7922H49.4907V86.3853H50.8811V84.9784Z" fill="black"/>
<path fill-rule="evenodd" clip-rule="evenodd" d="M67.5656 86.3853H50.8811V87.7922H52.2715V89.1992H53.6619V90.6061H55.0522V92.013H56.4426V93.4199H57.833V94.8269H60.6137V93.4199H62.0041V92.013H63.3945V90.6061H64.7848V89.1992H66.1752V87.7922H67.5656V86.3853Z" fill="#93FCEE"/>
<path fill-rule="evenodd" clip-rule="evenodd" d="M50.8812 106.082H67.5657V104.675H66.1753V103.268H64.7849V101.861H63.3946V100.455H62.0042V99.0476H60.6138V97.6407H57.8331V99.0476H56.4427V100.455H55.0523V101.861H53.6619V103.268H52.2716V104.675H50.8812V106.082Z" fill="#123251"/>
<path fill-rule="evenodd" clip-rule="evenodd" d="M68.9561 104.675V87.7922H67.5657L67.5657 89.1992H66.1753V90.6061H64.7849V92.013H63.3946V93.4199H62.0042V94.8269H60.6138V97.6407H62.0042V99.0476H63.3946V100.455H64.7849V101.862H66.1753V103.268H67.5657L67.5657 104.675H68.9561Z" fill="#123251"/>
<path fill-rule="evenodd" clip-rule="evenodd" d="M49.4907 87.7922V104.675H50.8811V103.268H52.2715V101.862H53.6618V100.455H55.0522V99.0476H56.4426V97.6407H57.833V94.8269H56.4426V93.4199H55.0522V92.013H53.6618V90.6061H52.2715V89.1992H50.8811V87.7922H49.4907Z" fill="#00E5D4"/>
<path fill-rule="evenodd" clip-rule="evenodd" d="M52.2715 87.7922H50.8811V89.1992H52.2715L52.2715 90.6061H53.6619V92.013H55.0522V93.4199H56.4426V94.8269H57.833V96.2338H59.2234V94.8269L57.833 94.8269V93.4199H56.4426V92.013H55.0522V90.6061H53.6619V89.1992H52.2715V87.7922Z" fill="#123251"/>
<path fill-rule="evenodd" clip-rule="evenodd" d="M25.0931 106.082H46.9418V107.489H36.7457V117.338H46.9418V118.745H26.5496V117.338H35.2891V107.489H25.0931V106.082ZM25.0931 107.489V117.338H23.6365V107.489H25.0931ZM46.9418 117.338V107.489H48.3984V117.338H46.9418ZM30.9194 114.524H32.376V113.117H33.8326V114.524V115.931H30.9194V114.524ZM42.5721 114.524H44.0286V113.117H45.4852V114.524V115.931H42.5721V114.524Z" fill="black"/>
<path fill-rule="evenodd" clip-rule="evenodd" d="M26.5496 108.896H29.4628H33.8325H35.2891L35.2891 115.931V117.338H29.4628H26.5496V108.896ZM26.5496 117.338V118.745H25.093V117.338H26.5496ZM29.4628 114.524V111.71H32.3759V113.117H33.8325V115.931H30.9193V114.524H29.4628ZM38.2023 108.896H41.1154H45.4852H46.9418V111.71V115.931V117.338H41.1154H38.2023V108.896ZM41.1154 111.71H44.0286V113.117H45.4852V115.931H42.572V114.524H41.1154V111.71Z" fill="#123251"/>
<path fill-rule="evenodd" clip-rule="evenodd" d="M26.5496 107.489H25.093V117.338H26.5496V108.896H35.2891V107.489H26.5496ZM36.7457 117.338V108.896V107.489H38.2023H46.9418V108.896H38.2023V117.338H36.7457Z" fill="#00E5D4"/>
<path fill-rule="evenodd" clip-rule="evenodd" d="M32.3761 111.71H29.4629V114.524H32.3761V111.71ZM44.0287 111.71H41.1156V114.524H44.0287V111.71Z" fill="#93FCEE"/>
<path fill-rule="evenodd" clip-rule="evenodd" d="M35.2892 118.745H33.8326V121.558H32.376V124.372H30.9194V127.186H32.376V124.372H33.8326V121.558H35.2892V118.745ZM46.9418 118.745H45.4853V121.558H44.0287V124.372H42.5721V127.186H44.0287V124.372H45.4853V121.558H46.9418V118.745Z" fill="#123251"/>
<path fill-rule="evenodd" clip-rule="evenodd" d="M33.8325 118.745H25.093V121.558H26.5496V124.372H28.0062V127.186H29.4628V130H30.9193V127.186V124.372H32.3759V121.558H33.8325V118.745ZM36.7457 118.745H45.4852V121.558H44.0286V124.372H42.572V127.186V130H41.1154V127.186H39.6588V124.372H38.2023V121.558H36.7457V118.745Z" fill="#93FCEE"/>
<path fill-rule="evenodd" clip-rule="evenodd" d="M28.0062 84.9784H45.4852V86.3853H46.9418V87.7922H48.3983V104.675H46.9418V106.082H45.4852V107.489H28.0062V106.082H26.5496V104.675H25.093V87.7922H26.5496V86.3853H28.0062V84.9784Z" fill="black"/>
<path fill-rule="evenodd" clip-rule="evenodd" d="M45.4851 86.3853H28.0061V87.7922H29.4627V89.1992H30.9193V90.6061H32.3759V92.013H33.8324V93.4199H35.289V94.8269H38.2022V93.4199H39.6588V92.013H41.1153V90.6061H42.5719V89.1992H44.0285V87.7922H45.4851V86.3853Z" fill="#93FCEE"/>
<path fill-rule="evenodd" clip-rule="evenodd" d="M28.0061 106.082H45.4851V104.675H44.0285V103.268H42.5719V101.861H41.1154V100.455H39.6588V99.0476H38.2022V97.6407H35.289V99.0476H33.8324V100.455H32.3759V101.861H30.9193V103.268H29.4627V104.675H28.0061V106.082Z" fill="#123251"/>
<path fill-rule="evenodd" clip-rule="evenodd" d="M46.9417 104.675V87.7922H45.4851L45.4851 89.1992H44.0285V90.6061H42.5719V92.013H41.1153V93.4199H39.6587V94.8269H38.2022V97.6407H39.6587V99.0476H41.1153V100.455H42.5719V101.862H44.0285V103.268H45.4851L45.4851 104.675H46.9417Z" fill="#123251"/>
<path fill-rule="evenodd" clip-rule="evenodd" d="M26.5496 87.7922V104.675H28.0061V103.268H29.4627V101.862H30.9193V100.455H32.3759V99.0476H33.8325V97.6407H35.2891V94.8269H33.8325V93.4199H32.3759V92.013H30.9193V90.6061H29.4627V89.1992H28.0061V87.7922H26.5496Z" fill="#00E5D4"/>
<path fill-rule="evenodd" clip-rule="evenodd" d="M29.4627 87.7922H28.0061V89.1992H29.4627L29.4627 90.6061H30.9193V92.013H32.3759V93.4199H33.8324V94.8269H35.289V96.2338H36.7456V94.8269L35.289 94.8269V93.4199H33.8324V92.013H32.3759V90.6061H30.9193V89.1992H29.4627V87.7922Z" fill="#123251"/>
<path fill-rule="evenodd" clip-rule="evenodd" d="M333.03 111.082H312.174V112.489H321.907V122.338H312.174V123.745H331.639V122.338H323.297V112.489H333.03V111.082ZM333.03 112.489V122.338H334.42V112.489H333.03ZM312.174 122.338V112.489H310.784V122.338H312.174ZM327.468 119.524H326.078V118.117H324.687V119.524V120.931H327.468V119.524ZM316.345 119.524H314.955V118.117H313.564V119.524V120.931H316.345V119.524Z" fill="black"/>
<path fill-rule="evenodd" clip-rule="evenodd" d="M331.639 113.896H328.858H324.687H323.297V120.931V122.338H328.858H331.639V113.896ZM331.639 122.338V123.745H333.03V122.338H331.639ZM328.858 119.524V116.71H326.078V118.117H324.687V120.931H327.468V119.524H328.858ZM320.516 113.896H317.735H313.564H312.174V116.71V120.931V122.338H317.735H320.516V113.896ZM317.735 116.71H314.955V118.117H313.564V120.931H316.345V119.524H317.735V116.71Z" fill="#123251"/>
<path fill-rule="evenodd" clip-rule="evenodd" d="M331.639 112.489H333.03V122.338H331.639V113.896H323.297V112.489H331.639ZM321.907 122.338V113.896V112.489H320.516H312.174V113.896H320.516V122.338H321.907Z" fill="#00E5D4"/>
<path fill-rule="evenodd" clip-rule="evenodd" d="M326.078 116.71H328.858V119.524H326.078V116.71ZM314.955 116.71H317.735V119.524H314.955V116.71Z" fill="#93FCEE"/>
<path fill-rule="evenodd" clip-rule="evenodd" d="M323.297 123.745H324.687V126.558H326.078V129.372H327.468V132.186H326.078V129.372H324.687V126.558H323.297V123.745ZM312.174 123.745H313.564V126.558H314.955V129.372H316.345V132.186H314.955V129.372H313.564V126.558H312.174V123.745Z" fill="#123251"/>
<path fill-rule="evenodd" clip-rule="evenodd" d="M324.687 123.745H333.03V126.558H331.639V129.372H330.249V132.186H328.858V135H327.468V132.186V129.372H326.078V126.558H324.687V123.745ZM321.907 123.745H313.564V126.558H314.955V129.372H316.345V132.186V135H317.735V132.186H319.126V129.372H320.516V126.558H321.907V123.745Z" fill="#93FCEE"/>
<path fill-rule="evenodd" clip-rule="evenodd" d="M330.249 89.9784H313.564V91.3853H312.174V92.7922H310.784V109.675H312.174V111.082H313.564V112.489H330.249V111.082H331.639V109.675H333.03V92.7922H331.639V91.3853H330.249V89.9784Z" fill="black"/>
<path fill-rule="evenodd" clip-rule="evenodd" d="M313.564 91.3853H330.249V92.7922H328.858V94.1992H327.468V95.6061H326.078V97.013H324.687V98.4199H323.297V99.8269H320.516V98.4199H319.126V97.013H317.735V95.6061H316.345V94.1992H314.955V92.7922H313.564V91.3853Z" fill="#93FCEE"/>
<path fill-rule="evenodd" clip-rule="evenodd" d="M330.249 111.082H313.564V109.675H314.955V108.268H316.345V106.861H317.735V105.455H319.126V104.048H320.516V102.641H323.297V104.048H324.687V105.455H326.078V106.861H327.468V108.268H328.858V109.675H330.249V111.082Z" fill="#123251"/>
<path fill-rule="evenodd" clip-rule="evenodd" d="M312.174 109.675V92.7922H313.564L313.564 94.1992H314.955V95.6061H316.345V97.013H317.735V98.4199H319.126V99.8269H320.516V102.641H319.126V104.048H317.735V105.455H316.345V106.862H314.955V108.268H313.564L313.564 109.675H312.174Z" fill="#123251"/>
<path fill-rule="evenodd" clip-rule="evenodd" d="M331.639 92.7922V109.675H330.249V108.268H328.858V106.862H327.468V105.455H326.078V104.048H324.687V102.641H323.297V99.8269H324.687V98.4199H326.078V97.013H327.468V95.6061H328.858V94.1992H330.249V92.7922H331.639Z" fill="#00E5D4"/>
<path fill-rule="evenodd" clip-rule="evenodd" d="M328.858 92.7922H330.249V94.1992H328.858L328.858 95.6061H327.468V97.013H326.078V98.4199H324.687V99.8269H323.297V101.234H321.907V99.8269L323.297 99.8269V98.4199H324.687V97.013H326.078V95.6061H327.468V94.1992H328.858V92.7922Z" fill="#123251"/>
<path fill-rule="evenodd" clip-rule="evenodd" d="M263.776 111.082H242.424V112.489H252.388V122.338H242.424V123.745H262.352V122.338H253.811V112.489H263.776V111.082ZM263.776 112.489V122.338H265.199V112.489H263.776ZM242.424 122.338V112.489H241V122.338H242.424ZM258.082 119.524H256.658V118.117H255.235V119.524V120.931H258.082V119.524ZM246.694 119.524H245.271V118.117H243.847V119.524V120.931H246.694V119.524Z" fill="black"/>
<path fill-rule="evenodd" clip-rule="evenodd" d="M262.352 113.896H259.505H255.235H253.811V120.931V122.338H259.505H262.352V113.896ZM262.352 122.338V123.745H263.776V122.338H262.352ZM259.505 119.524V116.71H256.658V118.117H255.235L255.235 120.931H258.082V119.524H259.505ZM250.964 113.896H248.117H243.847H242.423V116.71V120.931V122.338H248.117H250.964V113.896ZM248.117 116.71H245.27V118.117H243.847V120.931H246.694V119.524H248.117V116.71Z" fill="#123251"/>
<path fill-rule="evenodd" clip-rule="evenodd" d="M262.352 112.489H263.776V122.338H262.352V113.896H253.811V112.489H262.352ZM252.388 122.338V113.896V112.489H250.964H242.423V113.896H250.964V122.338H252.388Z" fill="#00E5D4"/>
<path fill-rule="evenodd" clip-rule="evenodd" d="M256.658 116.71H259.505V119.524H256.658V116.71ZM245.271 116.71H248.118V119.524H245.271V116.71Z" fill="#93FCEE"/>
<path fill-rule="evenodd" clip-rule="evenodd" d="M253.811 123.745H255.235V126.558H256.658V129.372H258.082V132.186H256.658V129.372H255.235V126.558H253.811V123.745ZM242.424 123.745H243.847V126.558H245.27V129.372H246.694V132.186H245.27V129.372H243.847V126.558H242.424V123.745Z" fill="#123251"/>
<path fill-rule="evenodd" clip-rule="evenodd" d="M255.235 123.745H263.776V126.558H262.352V129.372H260.929V132.186H259.505V135H258.082V132.186V129.372H256.658V126.558H255.235V123.745ZM252.388 123.745H243.847V126.558H245.27V129.372H246.694V132.186V135H248.117V132.186H249.541V129.372H250.964V126.558H252.388V123.745Z" fill="#93FCEE"/>
<path fill-rule="evenodd" clip-rule="evenodd" d="M260.929 89.9784H243.847V91.3853H242.423V92.7922H241V109.675H242.423V111.082H243.847V112.489H260.929V111.082H262.352V109.675H263.776V92.7922H262.352V91.3853H260.929V89.9784Z" fill="black"/>
<path fill-rule="evenodd" clip-rule="evenodd" d="M243.847 91.3853H260.929V92.7922H259.505V94.1992H258.082V95.6061H256.658V97.013H255.235V98.4199H253.811V99.8269H250.964V98.4199H249.541V97.013H248.117V95.6061H246.694V94.1992H245.27V92.7922H243.847V91.3853Z" fill="#93FCEE"/>
<path fill-rule="evenodd" clip-rule="evenodd" d="M260.929 111.082H243.847V109.675H245.27V108.268H246.694V106.861H248.117V105.455H249.541V104.048H250.964V102.641H253.811V104.048H255.235V105.455H256.658V106.861H258.082V108.268H259.505V109.675H260.929V111.082Z" fill="#123251"/>
<path fill-rule="evenodd" clip-rule="evenodd" d="M242.423 109.675V92.7922H243.847L243.847 94.1992H245.27V95.6061H246.694V97.013H248.117V98.4199H249.541V99.8269H250.964V102.641H249.541V104.048H248.117V105.455H246.694V106.862H245.27V108.268H243.847L243.847 109.675H242.423Z" fill="#123251"/>
<path fill-rule="evenodd" clip-rule="evenodd" d="M262.352 92.7922V109.675H260.929V108.268H259.505V106.862H258.082L258.082 105.455H256.658V104.048H255.235V102.641H253.811V99.8269H255.235V98.4199H256.658V97.013H258.082L258.082 95.6061H259.505V94.1992H260.929V92.7922H262.352Z" fill="#00E5D4"/>
<path fill-rule="evenodd" clip-rule="evenodd" d="M259.505 92.7922H260.929V94.1992H259.505L259.505 95.6061H258.082V97.013H256.658V98.4199H255.235V99.8269H253.811V101.234H252.388V99.8269L253.811 99.8269V98.4199H255.235V97.013H256.658V95.6061H258.082V94.1992H259.505V92.7922Z" fill="#123251"/>
<path fill-rule="evenodd" clip-rule="evenodd" d="M286.32 111.082H265.464V112.489H275.197V122.338H265.464V123.745H284.929V122.338H276.587V112.489H286.32V111.082ZM286.32 112.489V122.338H287.71V112.489H286.32ZM265.464 122.338V112.489H264.074V122.338H265.464ZM280.758 119.524H279.368V118.117H277.977V119.524V120.931H280.758V119.524ZM269.635 119.524H268.245V118.117H266.854V119.524V120.931H269.635V119.524Z" fill="black"/>
<path fill-rule="evenodd" clip-rule="evenodd" d="M284.929 113.896H282.148H277.977H276.587V120.931V122.338H282.148H284.929V113.896ZM284.929 122.338V123.745H286.32V122.338H284.929ZM282.148 119.524V116.71H279.368V118.117H277.977V120.931H280.758V119.524H282.148ZM273.806 113.896H271.025H266.854H265.464V116.71V120.931V122.338H271.025H273.806V113.896ZM271.025 116.71H268.245V118.117H266.854V120.931H269.635V119.524H271.025V116.71Z" fill="#123251"/>
<path fill-rule="evenodd" clip-rule="evenodd" d="M284.929 112.489H286.32V122.338H284.929V113.896H276.587V112.489H284.929ZM275.197 122.338V113.896V112.489H273.806H265.464V113.896H273.806V122.338H275.197Z" fill="#00E5D4"/>
<path fill-rule="evenodd" clip-rule="evenodd" d="M279.368 116.71H282.148V119.524H279.368V116.71ZM268.245 116.71H271.025V119.524H268.245V116.71Z" fill="#93FCEE"/>
<path fill-rule="evenodd" clip-rule="evenodd" d="M276.587 123.745H277.977V126.558H279.368V129.372H280.758V132.186H279.368V129.372H277.977V126.558H276.587V123.745ZM265.464 123.745H266.854V126.558H268.245V129.372H269.635V132.186H268.245V129.372H266.854V126.558H265.464V123.745Z" fill="#123251"/>
<path fill-rule="evenodd" clip-rule="evenodd" d="M277.977 123.745H286.32V126.558H284.929V129.372H283.539V132.186H282.148V135H280.758V132.186V129.372H279.368V126.558H277.977V123.745ZM275.197 123.745H266.854V126.558H268.245V129.372H269.635V132.186V135H271.025V132.186H272.416V129.372H273.806V126.558H275.197V123.745Z" fill="#93FCEE"/>
<path fill-rule="evenodd" clip-rule="evenodd" d="M283.539 89.9784H266.854V91.3853H265.464V92.7922H264.074V109.675H265.464V111.082H266.854V112.489H283.539V111.082H284.929V109.675H286.32V92.7922H284.929V91.3853H283.539V89.9784Z" fill="black"/>
<path fill-rule="evenodd" clip-rule="evenodd" d="M266.854 91.3853H283.539V92.7922H282.148V94.1992H280.758V95.6061H279.368V97.013H277.977V98.4199H276.587V99.8269H273.806V98.4199H272.416V97.013H271.025V95.6061H269.635V94.1992H268.245V92.7922H266.854V91.3853Z" fill="#93FCEE"/>
<path fill-rule="evenodd" clip-rule="evenodd" d="M283.539 111.082H266.854V109.675H268.245V108.268H269.635V106.861H271.025V105.455H272.416V104.048H273.806V102.641H276.587V104.048H277.977V105.455H279.368V106.861H280.758V108.268H282.148V109.675H283.539V111.082Z" fill="#123251"/>
<path fill-rule="evenodd" clip-rule="evenodd" d="M265.464 109.675V92.7922H266.854L266.854 94.1992H268.245V95.6061H269.635V97.013H271.025V98.4199H272.416V99.8269H273.806V102.641H272.416V104.048H271.025V105.455H269.635V106.862H268.245V108.268H266.854L266.854 109.675H265.464Z" fill="#123251"/>
<path fill-rule="evenodd" clip-rule="evenodd" d="M284.929 92.7922V109.675H283.539V108.268H282.148V106.862H280.758V105.455H279.368V104.048H277.977V102.641H276.587V99.8269H277.977V98.4199H279.368V97.013H280.758V95.6061H282.148V94.1992H283.539V92.7922H284.929Z" fill="#00E5D4"/>
<path fill-rule="evenodd" clip-rule="evenodd" d="M282.148 92.7922H283.539V94.1992H282.148L282.148 95.6061H280.758V97.013H279.368V98.4199H277.977V99.8269H276.587V101.234H275.197V99.8269L276.587 99.8269V98.4199H277.977V97.013H279.368V95.6061H280.758V94.1992H282.148V92.7922Z" fill="#123251"/>
<path fill-rule="evenodd" clip-rule="evenodd" d="M309.327 111.082H287.478V112.489H297.674V122.338H287.478V123.745H307.87V122.338H299.131V112.489H309.327V111.082ZM309.327 112.489V122.338H310.783V112.489H309.327ZM287.478 122.338V112.489H286.022V122.338H287.478ZM303.501 119.524H302.044V118.117H300.587V119.524V120.931H303.501V119.524ZM291.848 119.524H290.391V118.117H288.935V119.524V120.931H291.848V119.524Z" fill="black"/>
<path fill-rule="evenodd" clip-rule="evenodd" d="M307.87 113.896H304.957H300.587H299.131L299.131 120.931V122.338H304.957H307.87V113.896ZM307.87 122.338V123.745H309.327V122.338H307.87ZM304.957 119.524V116.71H302.044V118.117H300.587V120.931H303.501V119.524H304.957ZM296.218 113.896H293.304H288.935H287.478V116.71V120.931V122.338H293.304H296.218V113.896ZM293.304 116.71H290.391V118.117H288.935V120.931H291.848V119.524H293.304V116.71Z" fill="#123251"/>
<path fill-rule="evenodd" clip-rule="evenodd" d="M307.87 112.489H309.327V122.338H307.87V113.896H299.131V112.489H307.87ZM297.674 122.338V113.896V112.489H296.218H287.478V113.896H296.218V122.338H297.674Z" fill="#00E5D4"/>
<path fill-rule="evenodd" clip-rule="evenodd" d="M302.044 116.71H304.957V119.524H302.044V116.71ZM290.391 116.71H293.304V119.524H290.391V116.71Z" fill="#93FCEE"/>
<path fill-rule="evenodd" clip-rule="evenodd" d="M299.131 123.745H300.587V126.558H302.044V129.372H303.5V132.186H302.044V129.372H300.587V126.558H299.131V123.745ZM287.478 123.745H288.935V126.558H290.391V129.372H291.848V132.186H290.391V129.372H288.935V126.558H287.478V123.745Z" fill="#123251"/>
<path fill-rule="evenodd" clip-rule="evenodd" d="M300.587 123.745H309.327V126.558H307.87V129.372H306.414V132.186H304.957V135H303.501V132.186V129.372H302.044V126.558H300.587V123.745ZM297.674 123.745H288.935V126.558H290.391V129.372H291.848V132.186V135H293.304V132.186H294.761V129.372H296.218V126.558H297.674V123.745Z" fill="#93FCEE"/>
<path fill-rule="evenodd" clip-rule="evenodd" d="M306.414 89.9784H288.935V91.3853H287.478V92.7922H286.022V109.675H287.478V111.082H288.935V112.489H306.414V111.082H307.87V109.675H309.327V92.7922H307.87V91.3853H306.414V89.9784Z" fill="black"/>
<path fill-rule="evenodd" clip-rule="evenodd" d="M288.935 91.3853H306.414V92.7922H304.957V94.1992H303.501V95.6061H302.044V97.013H300.587V98.4199H299.131V99.8269H296.218V98.4199H294.761V97.013H293.305V95.6061H291.848V94.1992H290.391V92.7922H288.935V91.3853Z" fill="#93FCEE"/>
<path fill-rule="evenodd" clip-rule="evenodd" d="M306.414 111.082H288.935V109.675H290.391V108.268H291.848V106.861H293.305V105.455H294.761V104.048H296.218V102.641H299.131V104.048H300.587V105.455H302.044V106.861H303.501V108.268H304.957V109.675H306.414V111.082Z" fill="#123251"/>
<path fill-rule="evenodd" clip-rule="evenodd" d="M287.478 109.675V92.7922H288.935L288.935 94.1992H290.391V95.6061H291.848V97.013H293.305V98.4199H294.761V99.8269H296.218V102.641H294.761V104.048H293.305V105.455H291.848V106.862H290.391V108.268H288.935L288.935 109.675H287.478Z" fill="#123251"/>
<path fill-rule="evenodd" clip-rule="evenodd" d="M307.87 92.7922V109.675H306.414V108.268H304.957V106.862H303.501V105.455H302.044V104.048H300.587V102.641H299.131V99.8269H300.587V98.4199H302.044V97.013H303.501V95.6061H304.957V94.1992H306.414V92.7922H307.87Z" fill="#00E5D4"/>
<path fill-rule="evenodd" clip-rule="evenodd" d="M304.957 92.7922H306.414V94.1992H304.957L304.957 95.6061H303.501V97.013H302.044V98.4199H300.587V99.8269H299.131V101.234H297.674V99.8269L299.131 99.8269V98.4199H300.587V97.013H302.044V95.6061H303.501V94.1992H304.957V92.7922Z" fill="#123251"/>
<rect x="276" y="5" width="21" height="21" fill="black"/>
<rect x="277.312" y="6.3125" width="18.375" height="18.375" fill="#A8FCB5"/>
<rect x="278.538" y="7.53754" width="17.15" height="17.15" fill="#2E99FC"/>
<path d="M278.625 7.625H279.938V8.9375H278.625V7.625Z" fill="black"/>
<path d="M293.062 7.625H294.375V8.9375H293.062V7.625Z" fill="black"/>
<path d="M293.062 22.0625H294.375V23.375H293.062V22.0625Z" fill="black"/>
<path d="M278.625 22.0625H279.938V23.375H278.625V22.0625Z" fill="black"/>
<path d="M291.75 10.25H282.562V11.5625H281.25V14.1875H285.188V12.875H289.125V15.5H285.188V18.125H289.125V16.8125H291.75V15.5H293.062V11.5625H291.75V10.25Z" fill="black"/>
<path d="M285.188 19.4375H289.125V22.0625H285.188V19.4375Z" fill="black"/>
<path d="M290.438 8.9375H281.25V10.25H279.938V12.875H283.875V11.5625H287.812V14.1875H283.875V16.8125H287.812V15.5H290.438V14.1875H291.75V10.25H290.438V8.9375Z" fill="#A8FCB5"/>
<path d="M283.875 18.125H287.812V20.75H283.875V18.125Z" fill="#A8FCB5"/>
</svg>
