<svg width="56" height="56" viewBox="0 0 56 56" fill="none" xmlns="http://www.w3.org/2000/svg">
<path fill-rule="evenodd" clip-rule="evenodd" d="M17.5 0H31.5V3.5H38.5V7H42V10.5H45.5V14H49V21H42V28H49V35H45.5V38.5H42V42H35V45.5H31.5V52.5H28V49H21V52.5H17.5V45.5H14V42H7V38.5H3.5V31.5H0V14H3.5V10.5H7V7H10.5V3.5H17.5V0ZM49 35V38.5H56V10.5H49V14H52.5V35H49Z" fill="#3900B1"/>
<path d="M7 49V42H3.5V49H7Z" fill="#3900B1"/>
<path fill-rule="evenodd" clip-rule="evenodd" d="M10.5 52.5V49H7V52.5H10.5ZM10.5 52.5H17.5V56H10.5V52.5Z" fill="#3900B1"/>
<path d="M38.5 52.5V56H31.5V52.5H38.5Z" fill="#3900B1"/>
<path d="M42 49V52.5H38.5V49H42Z" fill="#3900B1"/>
<path d="M42 49H45.5V42H42V49Z" fill="#3900B1"/>
<path d="M52.5 14H49V21H42V28H49V35H52.5V14Z" fill="#F5F954"/>
<path d="M35 42H42V49H38.5V52.5H31.5V45.5H35V42Z" fill="#F5F954"/>
<path d="M14 45.5H17.5V52.5H10.5V49H7V42H14V45.5Z" fill="#F5F954"/>
<path d="M7 14H10.5V24.5H7V14Z" fill="#F5F954"/>
<path d="M17.5 14H14V24.5H17.5V14Z" fill="#F5F954"/>
</svg>
