<svg width="29" height="29" viewBox="0 0 29 29" fill="none" xmlns="http://www.w3.org/2000/svg">
<path d="M10.75 18.1034H17.9167V21.7241H10.75V18.1034Z" fill="black"/>
<path d="M10.75 10.8621V18.1034H7.16667V10.8621H10.75Z" fill="black"/>
<path d="M10.75 10.8621V7.24138H17.9167V10.8621H10.75Z" fill="black"/>
<path d="M17.9167 10.8621V18.1034H21.5V10.8621H17.9167Z" fill="black"/>
<path fill-rule="evenodd" clip-rule="evenodd" d="M21.5 0H7.16667V3.62069H3.58333V7.24138H0V21.7241H3.58333V25.3448H7.16667V28.9655H21.5V25.3448H25.0833V21.7241H28.6667V7.24138H25.0833V3.62069H21.5V0ZM21.5 3.62069V7.24138H25.0833V21.7241H21.5V25.3448H7.16667V21.7241H3.58333V7.24138H7.16667V3.62069H21.5Z" fill="black"/>
<path fill-rule="evenodd" clip-rule="evenodd" d="M21.5 3.62061H7.16671V7.2413H3.58337V21.7241H7.16671V25.3447H21.5V21.7241H25.0834V7.2413H21.5V3.62061ZM17.9167 21.7241V18.1034H21.5V10.862H17.9167V7.2413H10.75V10.862H7.16671V18.1034H10.75V21.7241H17.9167Z" fill="#FFBAAA"/>
</svg>
