<svg width="60" height="29" viewBox="0 0 60 29" fill="none" xmlns="http://www.w3.org/2000/svg">
<path d="M19 17H21V18H19V17Z" fill="black"/>
<path d="M19 15V17H18V15H19Z" fill="black"/>
<path d="M19 15V14H21V15H19Z" fill="black"/>
<path d="M21 15V17H22V15H21Z" fill="black"/>
<path fill-rule="evenodd" clip-rule="evenodd" d="M22 12H18V13H17V14H16V18H17V19H18V20H22V19H23V18H24V14H23V13H22V12ZM22 13V14H23V18H22V19H18V18H17V14H18V13H22Z" fill="black"/>
<path fill-rule="evenodd" clip-rule="evenodd" d="M22 13H18V14H17V18H18V19H22V18H23V14H22V13ZM21 18V17H22V15H21V14H19V15H18V17H19V18H21Z" fill="#FFBAAA"/>
<path d="M31 19H33V20H31V19Z" fill="black"/>
<path d="M31 17V19H30V17H31Z" fill="black"/>
<path d="M31 17V16H33V17H31Z" fill="black"/>
<path d="M33 17V19H34V17H33Z" fill="black"/>
<path fill-rule="evenodd" clip-rule="evenodd" d="M34 14H30V15H29V16H28V20H29V21H30V22H34V21H35V20H36V16H35V15H34V14ZM34 15V16H35V20H34V21H30V20H29V16H30V15H34Z" fill="black"/>
<path fill-rule="evenodd" clip-rule="evenodd" d="M34 15H30V16H29V20H30V21H34V20H35V16H34V15ZM33 20V19H34V17H33V16H31V17H30V19H31V20H33Z" fill="#FFBAAA"/>
<path d="M43 21H45V22H43V21Z" fill="black"/>
<path d="M43 19V21H42V19H43Z" fill="black"/>
<path d="M43 19V18H45V19H43Z" fill="black"/>
<path d="M45 19V21H46V19H45Z" fill="black"/>
<path fill-rule="evenodd" clip-rule="evenodd" d="M46 16H42V17H41V18H40V22H41V23H42V24H46V23H47V22H48V18H47V17H46V16ZM46 17V18H47V22H46V23H42V22H41V18H42V17H46Z" fill="black"/>
<path fill-rule="evenodd" clip-rule="evenodd" d="M46 17H42V18H41V22H42V23H46V22H47V18H46V17ZM45 22V21H46V19H45V18H43V19H42V21H43V22H45Z" fill="#FFBAAA"/>
<path d="M55 23H57V24H55V23Z" fill="black"/>
<path d="M55 21V23H54V21H55Z" fill="black"/>
<path d="M55 21V20H57V21H55Z" fill="black"/>
<path d="M57 21V23H58V21H57Z" fill="black"/>
<path fill-rule="evenodd" clip-rule="evenodd" d="M58 18H54V19H53V20H52V24H53V25H54V26H58V25H59V24H60V20H59V19H58V18ZM58 19V20H59V24H58V25H54V24H53V20H54V19H58Z" fill="black"/>
<path fill-rule="evenodd" clip-rule="evenodd" d="M58 19H54V20H53V24H54V25H58V24H59V20H58V19ZM57 24V23H58V21H57V20H55V21H54V23H55V24H57Z" fill="#FFBAAA"/>
</svg>
