<svg width="60" height="29" viewBox="0 0 60 29" fill="none" xmlns="http://www.w3.org/2000/svg">
<path d="M11 5V3H12V5H11Z" fill="black"/>
<path fill-rule="evenodd" clip-rule="evenodd" d="M11 0H4V1H2V3H1V7H2V8H3V7H5V9H4V10H2V9H1V10H0V13H1V14H2V15H4V16H11V15H13V14H14V13H15V11H16V5H15V3H14V2H13V1H11V0ZM2 14V13H1V10H2V11H5V9H7V8H6V6H3V7H2V4H3V3H4V4H6V5H8V6H9V8H10V9H9V10H8V11H7V12H5V13H3V14H2ZM11 6H12V5H13V3H12V2H11V3H10V5H11V6Z" fill="black"/>
<path fill-rule="evenodd" clip-rule="evenodd" d="M12 2H11V3H10V5H11V6H12V5H13V3H12V2ZM12 3V5H11V3H12Z" fill="white"/>
<path d="M3 3H4V4H6V5H5V6H3V7H2V4H3V3Z" fill="white"/>
<path d="M7 6H6V8H8V7H9V6H8V5H7V6Z" fill="white"/>
<path d="M7 9V10H8V11H7V12H6V11H5V9H7Z" fill="white"/>
<path d="M8 10V9H9V10H8Z" fill="white"/>
<path d="M1 10H2V11H4V12H5V13H3V14H2V13H1V10Z" fill="white"/>
<path d="M5 5H7V6H5V5Z" fill="#E64434"/>
<path d="M8 8V7H9V8H10V9H8V10H7V8H8Z" fill="#E64434"/>
<path d="M6 12V11H4V12H6Z" fill="#E64434"/>
</svg>
