<svg width="169" height="81" viewBox="0 0 169 81" fill="none" xmlns="http://www.w3.org/2000/svg">
<path d="M38.7291 3.52173H70.4166V7.04347H77.4583V17.6087H88.0208V10.5652H95.0624V3.52173H130.271V7.04347H133.792V17.6087H140.833V28.1739H158.437V31.6956H165.479V56.3478H158.437V66.913H151.396V73.9565H130.271V70.4348H116.187V73.9565H109.146V77.4783H95.0624V73.9565H88.0208V70.4348H84.4999V73.9565H70.4166V70.4348H59.8541V77.4783H38.7291V73.9565H31.6874V70.4348H28.1666V66.913H10.5624V59.8696H3.52075V38.7391H10.5624V31.6956H28.1666V17.6087H31.6874V10.5652H38.7291V3.52173Z" fill="white"/>
<path d="M119.708 14.087H116.187V24.6522H119.708V14.087Z" fill="black"/>
<path d="M105.625 14.087H109.146V24.6522H105.625V14.087Z" fill="black"/>
<path d="M63.375 14.087H59.8542V24.6522H63.375V14.087Z" fill="black"/>
<path d="M49.2917 14.087H52.8125V24.6522H49.2917V14.087Z" fill="black"/>
<path fill-rule="evenodd" clip-rule="evenodd" d="M66.8958 0H45.7708V3.52174H38.7292V7.04348H35.2083V10.5652H31.6875V17.6087H28.1667V24.6522H24.6458V28.1739H17.6042V31.6957H10.5625V35.2174H7.04167V38.7391H3.52083V45.7826H0V52.8261H3.52083V59.8696H7.04167V63.3913H10.5625V66.913H17.6042V70.4348H28.1667V73.9565H31.6875V77.4783H38.7292V81H52.8125V77.4783H59.8542V73.9565H63.375V70.4348H66.8958V73.9565H73.9375V77.4783H84.5V73.9565H88.0208V77.4783H95.0625V81H109.146V77.4783H116.187V73.9565H119.708V70.4348H123.229V73.9565H130.271V77.4783H144.354V73.9565H151.396V70.4348H154.917V66.913H158.437V59.8696H161.958V56.3478H165.479V49.3043H169V38.7391H165.479V31.6957H161.958V28.1739H154.917V24.6522H140.833V17.6087H137.312V10.5652H133.792V7.04348H130.271V3.52174H123.229V0H102.104V3.52174H95.0625V7.04348H91.5417V10.5652H88.0208V17.6087H80.9792V10.5652H77.4583V7.04348H73.9375V3.52174H66.8958V0ZM66.8958 3.52174V7.04348H73.9375V10.5652H77.4583V17.6087H80.9792V24.6522H88.0208V17.6087H91.5417V10.5652H95.0625V7.04348H102.104V3.52174H123.229V7.04348H130.271V10.5652H133.792V17.6087H137.312V24.6522H140.833V28.1739H154.917V31.6957H161.958V38.7391H165.479V49.3043H161.958V56.3478H154.917V66.913H151.396V70.4348H144.354V73.9565H130.271V70.4348H123.229V66.913H116.187V73.9565H109.146V77.4783H95.0625V73.9565H88.0208V70.4348H84.5V73.9565H73.9375V70.4348H66.8958V66.913H59.8542V73.9565H52.8125V77.4783H38.7292V73.9565H31.6875V70.4348H28.1667V66.913H17.6042V63.3913H10.5625V59.8696H7.04167V52.8261H3.52083V45.7826H7.04167V38.7391H10.5625V35.2174H17.6042V31.6957H28.1667V24.6522H31.6875V17.6087H35.2083V10.5652H38.7292V7.04348H45.7708V3.52174H66.8958Z" fill="black"/>
<path fill-rule="evenodd" clip-rule="evenodd" d="M70.4167 14.0869H73.9375V17.6087H70.4167V14.0869ZM73.9375 17.6087H77.4583V24.6521H73.9375V17.6087Z" fill="#93FCEE"/>
<path d="M14.0833 56.3478H10.5625V59.8695H14.0833V56.3478Z" fill="#93FCEE"/>
<path d="M17.6042 59.8695H24.6458V56.3478H28.1667V52.826H31.6875V59.8695H28.1667V63.3913H17.6042V59.8695Z" fill="#93FCEE"/>
<path d="M38.7292 66.913H35.2083V70.4347H38.7292V73.9565H52.8125V70.4347H56.3333V66.913H59.8542V56.3478H52.8125V66.913H49.2917V70.4347H38.7292V66.913Z" fill="#93FCEE"/>
<path d="M73.9375 63.3913H70.4167V66.913H73.9375V63.3913Z" fill="#93FCEE"/>
<path d="M77.4583 66.913H84.5V70.4347H77.4583V66.913Z" fill="#93FCEE"/>
<path d="M88.0208 52.826H84.5V59.8695H88.0208V52.826Z" fill="#93FCEE"/>
<path fill-rule="evenodd" clip-rule="evenodd" d="M91.5417 66.913H95.0625V70.4347H91.5417V66.913ZM95.0625 70.4347H105.625V66.913H109.146V56.3478H116.187V66.913H112.667V70.4347H109.146V73.9565H95.0625V70.4347Z" fill="#93FCEE"/>
<path d="M126.75 63.3913H130.271V66.913H126.75V63.3913Z" fill="#93FCEE"/>
<path d="M140.833 66.913H133.792V70.4347H140.833V66.913Z" fill="#93FCEE"/>
<path fill-rule="evenodd" clip-rule="evenodd" d="M154.917 38.7391H151.396V35.2173H154.917V38.7391ZM154.917 38.7391V45.7826H151.396V49.3043H140.833V52.826H144.354V63.3913H140.833V66.913H147.875V63.3913H151.396V52.826H154.917V49.3043H158.437V38.7391H154.917Z" fill="#93FCEE"/>
<path fill-rule="evenodd" clip-rule="evenodd" d="M130.271 14.0869H126.75V17.6087H130.271V14.0869ZM130.271 17.6087H133.792V24.6521H130.271V17.6087Z" fill="#93FCEE"/>
</svg>
