<svg width="113" height="82" viewBox="0 0 113 82" fill="none" xmlns="http://www.w3.org/2000/svg">
<path d="M38.75 4.22729H73.9773V7.75002H77.5V18.3182H84.5454V28.8864H102.159V32.4091H109.205V57.0682H102.159V67.6364H95.1136V74.6818H73.9773V71.1591H59.8863V74.6818H52.8409V78.2046H38.75V74.6818H31.7045V71.1591H24.6591V67.6364H10.5682V60.5909H3.52271V39.4546H10.5682V32.4091H24.6591V25.3637H31.7045V11.2727H38.75V4.22729Z" fill="white"/>
<path d="M63.4091 14.7955H59.8864V25.3637H63.4091V14.7955Z" fill="black"/>
<path d="M49.3182 14.7955H52.8409V25.3637H49.3182V14.7955Z" fill="black"/>
<path fill-rule="evenodd" clip-rule="evenodd" d="M66.9318 0.70459H45.7955V4.22732H38.75V7.75004H35.2273V11.2728H31.7045V18.3182H28.1818V25.3637H24.6591V28.8864H17.6136V32.4091H10.5682V35.9319H7.04545V39.4546H3.52273V46.5H0V53.5455H3.52273V60.591H7.04545V64.1137H10.5682V67.6364H17.6136V71.1591H28.1818V74.6819H31.7045V78.2046H38.75V81.7273H52.8409V78.2046H59.8864V74.6819H63.4091V71.1591H66.9318V74.6819H73.9773V78.2046H88.0682V74.6819H95.1136V71.1591H98.6364V67.6364H102.159V60.591H105.682V57.0682H109.205V50.0228H112.727V39.4546H109.205V32.4091H105.682V28.8864H98.6364V25.3637H84.5455V18.3182H81.0227V11.2728H77.5V7.75004H73.9773V4.22732H66.9318V0.70459ZM66.9318 4.22732V7.75004H73.9773V11.2728H77.5V18.3182H81.0227V25.3637H84.5455V28.8864H98.6364V32.4091H105.682V39.4546H109.205V50.0228H105.682V57.0682H98.6364V67.6364H95.1136V71.1591H88.0682V74.6819H73.9773V71.1591H66.9318V67.6364H59.8864V74.6819H52.8409V78.2046H38.75V74.6819H31.7045V71.1591H28.1818V67.6364H17.6136V64.1137H10.5682V60.591H7.04545V53.5455H3.52273V46.5H7.04545V39.4546H10.5682V35.9319H17.6136V32.4091H28.1818V25.3637H31.7045V18.3182H35.2273V11.2728H38.75V7.75004H45.7955V4.22732H66.9318Z" fill="black"/>
<path d="M73.9772 14.7954H70.4545V18.3181H73.9772V25.3636H77.4999V18.3181H73.9772V14.7954Z" fill="#93FCEE"/>
<path d="M98.6363 35.9318H95.1136V39.4545H98.6363V46.5H95.1136V50.0227H84.5454V53.5454H88.0681V64.1136H84.5454V67.6363H77.4999V71.159H84.5454V67.6363H91.5908V64.1136H95.1136V53.5454H98.6363V50.0227H102.159V39.4545H98.6363V35.9318Z" fill="#93FCEE"/>
<path d="M31.7045 53.5454H28.1818V57.0681H24.659V60.5909H17.6136V64.1136H28.1818V60.5909H31.7045V53.5454Z" fill="#93FCEE"/>
<path d="M14.0908 57.0681H10.5681V60.5909H14.0908V57.0681Z" fill="#93FCEE"/>
<path fill-rule="evenodd" clip-rule="evenodd" d="M35.2272 67.6363H38.7499V71.159H35.2272V67.6363ZM38.7499 71.159H49.3181V67.6363H52.8408V57.0681H59.8863V67.6363H56.3636V71.159H52.8408V74.6818H38.7499V71.159Z" fill="#93FCEE"/>
<path d="M70.4545 64.1136H73.9772V67.6363H70.4545V64.1136Z" fill="#93FCEE"/>
</svg>
