<svg width="42" height="165" viewBox="0 0 42 165" fill="none" xmlns="http://www.w3.org/2000/svg">
<path d="M15.75 0H23.625V5.2381H26.25V10.4762H28.875V18.3333H31.5V28.8095H34.125V39.2857H36.75V55H39.375V86.4286H36.75V104.762H34.125V112.619H31.5V117.857H28.875V120.476H23.625V123.095H18.375V120.476H15.75V117.857H13.125V112.619H10.5V107.381H7.875V99.5238H5.25V89.0476H2.625V39.2857H5.25V26.1905H7.875V13.0952H10.5V7.85714H13.125V2.61905H15.75V0Z" fill="#343BE6"/>
<path d="M15.75 18.3333H21V23.5713H23.625V31.4285H26.25V41.9047H28.875V57.619H31.5V89.0475H28.875V107.381H26.25V115.238H23.625V117.857H18.375V115.238H15.75V107.381H13.125V94.2856H10.5V78.5713H7.875V44.5237H10.5V31.4285H13.125V20.9523H15.75V18.3333Z" fill="white"/>
<path d="M21 41.9048H15.75V49.7619H13.125V65.4762H10.5V78.5715H13.125V94.2857H15.75V104.762H18.375V112.619H23.625V104.762H26.25V89.0476H28.875V70.7143H26.25V60.2381H23.625V49.7619H21V41.9048Z" fill="black"/>
</svg>
