<svg width="38" height="38" viewBox="0 0 38 38" fill="none" xmlns="http://www.w3.org/2000/svg">
<path d="M27.7731 26.856L22.6267 31.1743L21.5471 29.8877L26.6935 25.5694L25.6139 24.2828L28.1871 22.1236L27.1075 20.837L28.3941 19.7574L29.4737 21.044L28.1871 22.1236L29.2667 23.4102L26.6935 25.5694L27.7731 26.856Z" fill="white"/>
<path fill-rule="evenodd" clip-rule="evenodd" d="M20.6746 26.2349L21.7542 27.5215L19.181 29.6807L18.1014 28.3941L16.8148 29.4737L17.8944 30.7602L16.6078 31.8398L15.5282 30.5532L14.2416 31.6328L9.92329 26.4864L11.2099 25.4069L10.1303 24.1203L8.84371 25.1999L7.76413 23.9133L10.3373 21.7541L7.09858 17.8943L5.81199 18.9739L4.73241 17.6873L8.59219 14.4486L7.51261 13.162L13.9456 7.76408L15.0251 9.05067L16.3117 7.97109L17.3913 9.25769L16.1047 10.3373L17.1843 11.6239L14.6111 13.783L15.6907 15.0696L11.8309 18.3083L12.9105 19.5949L11.6239 20.6745L12.7035 21.9611L15.2767 19.802L16.3563 21.0885L17.6428 20.009L21.9612 25.1553L20.6746 26.2349ZM12.7035 21.9611L11.4169 23.0407L12.4965 24.3273L13.7831 23.2477L12.7035 21.9611ZM8.59219 14.4486L9.67176 15.7352L10.9584 14.6556L9.87878 13.369L8.59219 14.4486Z" fill="white"/>
<path d="M21.0441 8.38512L22.3307 7.30554L24.4898 9.87872L25.7764 8.79915L21.4581 3.65277L18.8849 5.81193L21.0441 8.38512Z" fill="white"/>
<path d="M23.8688 16.9772L22.5822 18.0568L20.423 15.4836L26.856 10.0857L27.9356 11.3723L29.2222 10.2928L31.3813 12.8659L30.0947 13.9455L31.1743 15.2321L27.3145 18.4708L26.235 17.1843L24.9484 18.2638L23.8688 16.9772Z" fill="white"/>
<path d="M27.98 24.4898L26.9004 23.2032L28.187 22.1236L27.1075 20.837L28.3941 19.7574L26.2349 17.1843L24.9483 18.2638L23.8687 16.9772L22.5821 18.0568L20.423 15.4836L24.2827 12.2449L23.2032 10.9583L24.4898 9.87872L22.3306 7.30554L21.044 8.38512L19.9644 7.09852L18.6778 8.1781L17.5983 6.89151L16.3117 7.97109L17.3912 9.25768L16.1047 10.3373L17.1842 11.6239L14.611 13.783L15.6906 15.0696L13.1174 17.2288L14.197 18.5154L12.9104 19.5949L13.99 20.8815L15.2766 19.802L16.3562 21.0885L17.6428 20.009L21.9611 25.1553L20.6745 26.2349L21.7541 27.5215L19.1809 29.6807L20.2605 30.9673L27.98 24.4898Z" fill="#D834E6"/>
<path d="M19.1809 29.6807L18.1013 28.3941L16.8147 29.4737L17.8943 30.7602L19.1809 29.6807Z" fill="#D834E6"/>
<path d="M13.783 23.2477L12.4964 24.3273L11.4168 23.0407L12.7034 21.9611L13.783 23.2477Z" fill="#D834E6"/>
<path d="M22.4197 33.5404L28.8526 28.1425L27.7731 26.856L22.6267 31.1743L21.5471 29.8877L20.2605 30.9673L22.4197 33.5404Z" fill="black"/>
<path d="M16.6078 31.8398L17.6873 33.1264L20.2605 30.9673L19.1809 29.6807L16.6078 31.8398Z" fill="black"/>
<path d="M14.2416 31.6328L15.3212 32.9194L16.6078 31.8398L15.5282 30.5532L14.2416 31.6328Z" fill="black"/>
<path d="M9.92327 26.4864L8.63668 27.566L12.955 32.7124L14.2416 31.6328L9.92327 26.4864Z" fill="black"/>
<path d="M8.84369 25.1999L9.92327 26.4864L11.2099 25.4069L10.1303 24.1203L8.84369 25.1999Z" fill="black"/>
<path d="M7.76411 23.9133L6.47752 24.9928L7.5571 26.2794L8.84369 25.1999L7.76411 23.9133Z" fill="black"/>
<path d="M9.25772 20.4675L6.68453 22.6267L7.76411 23.9133L10.3373 21.7541L9.25772 20.4675Z" fill="black"/>
<path d="M5.81197 18.9739L8.38515 16.8147L10.5443 19.3879L9.25772 20.4675L8.17814 19.1809L6.89155 20.2605L5.81197 18.9739Z" fill="black"/>
<path d="M4.73239 17.6873L3.4458 18.7669L4.52538 20.0535L5.81197 18.9739L4.73239 17.6873Z" fill="black"/>
<path d="M8.59217 14.4486L4.73239 17.6873L3.65281 16.4007L7.51259 13.162L6.43301 11.8754L12.866 6.47749L13.9456 7.76408L16.5187 5.60492L17.5983 6.89151L18.8849 5.81193L17.8053 4.52534L20.3785 2.36618L21.4581 3.65278L22.7447 2.5732L27.063 7.71957L25.7764 8.79915L26.856 10.0857L24.2828 12.2449L23.2032 10.9583L25.7764 8.79915L21.4581 3.65278L18.8849 5.81193L19.9645 7.09853L18.6779 8.17811L17.5983 6.89151L15.0251 9.05067L13.9456 7.76408L7.51259 13.162L8.59217 14.4486Z" fill="black"/>
<path d="M10.9583 14.6556L9.67175 15.7352L8.59217 14.4486L9.87876 13.369L10.9583 14.6556Z" fill="black"/>
<path d="M13.1175 17.2288L10.9583 14.6556L12.2449 13.576L14.4041 16.1492L13.1175 17.2288Z" fill="black"/>
<path d="M12.9105 19.5949L11.8309 18.3083L13.1175 17.2288L14.1971 18.5154L12.9105 19.5949Z" fill="black"/>
<path d="M12.9105 19.5949L13.9901 20.8815L12.7035 21.9611L11.6239 20.6745L12.9105 19.5949Z" fill="black"/>
<path d="M29.2667 23.4102L26.6935 25.5694L27.7731 26.856L30.3463 24.6968L29.2667 23.4102Z" fill="black"/>
<path d="M29.4737 21.044L28.1871 22.1236L29.2667 23.4102L30.5533 22.3306L29.4737 21.044Z" fill="black"/>
<path d="M29.4737 21.044L30.7603 19.9645L28.6011 17.3913L27.3145 18.4708L29.4737 21.044Z" fill="black"/>
<path d="M15.7352 28.1871L14.4486 29.2666L12.2894 26.6935L13.576 25.6139L15.7352 28.1871Z" fill="black"/>
<path d="M17.0218 27.1075L18.3084 26.0279L16.1492 23.4547L14.8626 24.5343L17.0218 27.1075Z" fill="black"/>
</svg>
