<svg width="38" height="38" viewBox="0 0 38 38" fill="none" xmlns="http://www.w3.org/2000/svg">
<path d="M27.7731 11.0028L22.6267 6.68449L21.5471 7.97108L26.6935 12.2894L25.6139 13.576L28.1871 15.7352L27.1075 17.0217L28.3941 18.1013L29.4737 16.8147L28.1871 15.7352L29.2667 14.4486L26.6935 12.2894L27.7731 11.0028Z" fill="white"/>
<path fill-rule="evenodd" clip-rule="evenodd" d="M20.6746 11.6238L21.7542 10.3373L19.181 8.1781L18.1014 9.46469L16.8148 8.38511L17.8944 7.09852L16.6078 6.01894L15.5282 7.30553L14.2416 6.22595L9.92329 11.3723L11.2099 12.4519L10.1303 13.7385L8.84371 12.6589L7.76413 13.9455L10.3373 16.1047L7.09858 19.9644L5.81199 18.8849L4.73241 20.1715L8.59219 23.4102L7.51261 24.6968L13.9456 30.0947L15.0251 28.8081L16.3117 29.8877L17.3913 28.6011L16.1047 27.5215L17.1843 26.2349L14.6111 24.0757L15.6907 22.7892L11.8309 19.5504L12.9105 18.2638L11.6239 17.1842L12.7035 15.8977L15.2767 18.0568L16.3563 16.7702L17.6428 17.8498L21.9612 12.7034L20.6746 11.6238ZM12.7035 15.8977L11.4169 14.8181L12.4965 13.5315L13.7831 14.6111L12.7035 15.8977ZM8.59219 23.4102L9.67176 22.1236L10.9584 23.2032L9.87878 24.4898L8.59219 23.4102Z" fill="white"/>
<path d="M21.0441 29.4736L22.3307 30.5532L24.4898 27.98L25.7764 29.0596L21.4581 34.206L18.8849 32.0468L21.0441 29.4736Z" fill="white"/>
<path d="M23.8688 20.8815L22.5822 19.8019L20.423 22.3751L26.856 27.773L27.9356 26.4864L29.2222 27.566L31.3813 24.9928L30.0947 23.9132L31.1743 22.6267L27.3145 19.3879L26.235 20.6745L24.9484 19.5949L23.8688 20.8815Z" fill="white"/>
<path d="M27.98 13.369L26.9004 14.6556L28.187 15.7351L27.1075 17.0217L28.3941 18.1013L26.2349 20.6745L24.9483 19.5949L23.8687 20.8815L22.5821 19.8019L20.423 22.3751L24.2827 25.6139L23.2032 26.9005L24.4898 27.98L22.3306 30.5532L21.044 29.4736L19.9644 30.7602L18.6778 29.6807L17.5983 30.9672L16.3117 29.8877L17.3912 28.6011L16.1047 27.5215L17.1842 26.2349L14.611 24.0757L15.6906 22.7892L13.1174 20.63L14.197 19.3434L12.9104 18.2638L13.99 16.9772L15.2766 18.0568L16.3562 16.7702L17.6428 17.8498L21.9611 12.7034L20.6745 11.6238L21.7541 10.3373L19.1809 8.17809L20.2605 6.8915L27.98 13.369Z" fill="#D834E6"/>
<path d="M19.1809 8.17809L18.1013 9.46469L16.8147 8.38511L17.8943 7.09851L19.1809 8.17809Z" fill="#D834E6"/>
<path d="M13.783 14.6111L12.4964 13.5315L11.4168 14.8181L12.7034 15.8976L13.783 14.6111Z" fill="#D834E6"/>
<path d="M22.4197 4.31832L28.8526 9.71621L27.7731 11.0028L22.6267 6.68449L21.5471 7.97108L20.2605 6.8915L22.4197 4.31832Z" fill="black"/>
<path d="M16.6078 6.01894L17.6873 4.73234L20.2605 6.8915L19.1809 8.1781L16.6078 6.01894Z" fill="black"/>
<path d="M14.2416 6.22595L15.3212 4.93936L16.6078 6.01894L15.5282 7.30553L14.2416 6.22595Z" fill="black"/>
<path d="M9.92327 11.3723L8.63668 10.2927L12.955 5.14637L14.2416 6.22595L9.92327 11.3723Z" fill="black"/>
<path d="M8.84369 12.6589L9.92327 11.3723L11.2099 12.4519L10.1303 13.7385L8.84369 12.6589Z" fill="black"/>
<path d="M7.76411 13.9455L6.47752 12.8659L7.5571 11.5793L8.84369 12.6589L7.76411 13.9455Z" fill="black"/>
<path d="M9.25772 17.3913L6.68453 15.2321L7.76411 13.9455L10.3373 16.1047L9.25772 17.3913Z" fill="black"/>
<path d="M5.81197 18.8849L8.38515 21.044L10.5443 18.4708L9.25772 17.3913L8.17814 18.6779L6.89155 17.5983L5.81197 18.8849Z" fill="black"/>
<path d="M4.73239 20.1715L3.4458 19.0919L4.52538 17.8053L5.81197 18.8849L4.73239 20.1715Z" fill="black"/>
<path d="M8.59217 23.4102L4.73239 20.1715L3.65281 21.458L7.51259 24.6968L6.43301 25.9834L12.866 31.3813L13.9456 30.0947L16.5187 32.2538L17.5983 30.9673L18.8849 32.0468L17.8053 33.3334L20.3785 35.4926L21.4581 34.206L22.7447 35.2856L27.063 30.1392L25.7764 29.0596L26.856 27.773L24.2828 25.6139L23.2032 26.9005L25.7764 29.0596L21.4581 34.206L18.8849 32.0468L19.9645 30.7602L18.6779 29.6807L17.5983 30.9673L15.0251 28.8081L13.9456 30.0947L7.51259 24.6968L8.59217 23.4102Z" fill="black"/>
<path d="M10.9583 23.2032L9.67175 22.1236L8.59217 23.4102L9.87876 24.4898L10.9583 23.2032Z" fill="black"/>
<path d="M13.1175 20.63L10.9583 23.2032L12.2449 24.2828L14.4041 21.7096L13.1175 20.63Z" fill="black"/>
<path d="M12.9105 18.2638L11.8309 19.5504L13.1175 20.63L14.1971 19.3434L12.9105 18.2638Z" fill="black"/>
<path d="M12.9105 18.2638L13.9901 16.9772L12.7035 15.8977L11.6239 17.1842L12.9105 18.2638Z" fill="black"/>
<path d="M29.2667 14.4486L26.6935 12.2894L27.7731 11.0028L30.3463 13.162L29.2667 14.4486Z" fill="black"/>
<path d="M29.4737 16.8147L28.1871 15.7352L29.2667 14.4486L30.5533 15.5281L29.4737 16.8147Z" fill="black"/>
<path d="M29.4737 16.8147L30.7603 17.8943L28.6011 20.4675L27.3145 19.3879L29.4737 16.8147Z" fill="black"/>
<path d="M15.7352 9.6717L14.4486 8.59212L12.2894 11.1653L13.576 12.2449L15.7352 9.6717Z" fill="black"/>
<path d="M17.0218 10.7513L18.3084 11.8309L16.1492 14.404L14.8626 13.3245L17.0218 10.7513Z" fill="black"/>
</svg>
