<svg width="80" height="86" viewBox="0 0 80 86" fill="none" xmlns="http://www.w3.org/2000/svg">
<path d="M32 32.25H48V43H56V46.5833H68V64.5H56V78.8333H48V82.4167H32V78.8333H24V64.5H12V46.5833H24V43H32V32.25Z" fill="#1E0BF2"/>
<path d="M16 78.8333H12V82.4167H16V78.8333Z" fill="#1E0BF2"/>
<path d="M64 75.25H68V78.8333H64V75.25Z" fill="#1E0BF2"/>
<path d="M4 3.58331H16V39.4166H4V3.58331Z" fill="white"/>
<path d="M16 10.75H28V43H16V10.75Z" fill="white"/>
<path d="M76 3.58331H64V39.4166H76V3.58331Z" fill="white"/>
<path d="M64 10.75H52V43H64V10.75Z" fill="white"/>
<path fill-rule="evenodd" clip-rule="evenodd" d="M36 46.5833V43H44V46.5833H36ZM44 46.5833H48V53.75H44V46.5833Z" fill="black"/>
<path d="M36 46.5833V53.75H32V46.5833H36Z" fill="black"/>
<path d="M72 17.9167H68V21.5H72V17.9167Z" fill="black"/>
<path d="M72 28.6667H68V32.25H72V28.6667Z" fill="black"/>
<path d="M24 57.3333H56V60.9167H24V57.3333Z" fill="black"/>
<path fill-rule="evenodd" clip-rule="evenodd" d="M12 0H4V3.58333H0V14.3333H4V17.9167H0V25.0833H4V28.6667H0V35.8333H4V39.4167H8V43H16V46.5833H12V50.1667H8V60.9167H12V64.5H16V68.0833H20V75.25H12V78.8333H8V86H32V78.8333H28V75.25H24V71.6667H28V68.0833H48V71.6667H52V75.25H48V82.4167H72V75.25H68V71.6667H52V68.0833H64V64.5H68V60.9167H72V50.1667H68V46.5833H64V43H72V39.4167H76V35.8333H80V28.6667H76V25.0833H80V17.9167H76V14.3333H80V3.58333H76V0H68V3.58333H64V7.16667H60V10.75H52V21.5H48V28.6667H32V21.5H28V10.75H20V7.16667H16V3.58333H12V0ZM12 3.58333V7.16667H16V10.75H20V14.3333H24V21.5H28V32.25H24V35.8333H20V39.4167H24V43H16V39.4167H8V35.8333H4V28.6667H8V32.25H12V28.6667H8V25.0833H4V17.9167H8V21.5H12V17.9167H8V14.3333H4V3.58333H12ZM36 43H32V39.4167H28V43H24V46.5833H20V50.1667H12V60.9167H16V64.5H64V60.9167H68V50.1667H60V46.5833H56V43H64V39.4167H72V35.8333H76V28.6667H72V25.0833H76V17.9167H72V14.3333H76V3.58333H68V7.16667H64V10.75H60V14.3333H56V21.5H52V32.25H56V35.8333H60V39.4167H56V43H52V39.4167H48V43H44V35.8333H48V32.25H32V35.8333H36V43ZM68 75.25V78.8333H64V75.25H68Z" fill="black"/>
<path d="M12 78.8333H16V82.4167H12V78.8333Z" fill="black"/>
<path d="M28 39.4167H32V43H36V46.5834H32V53.75H28V39.4167Z" fill="white"/>
<path d="M48 39.4167H52V53.75H48V46.5834H44V43H48V39.4167Z" fill="white"/>
<path d="M60 57.3334H56V64.5H60V57.3334Z" fill="white"/>
<path d="M20 57.3334H24V64.5H20V57.3334Z" fill="white"/>
<path d="M28 68.0834V75.25H32V78.8334H48V75.25H52V71.6667H48V68.0834H28Z" fill="white"/>
</svg>
