<svg width="60" height="64" viewBox="0 0 60 64" fill="none" xmlns="http://www.w3.org/2000/svg">
<path d="M37.5 4H22.5V16H15V20H3.75V40H15V56H22.5V60H37.5V56H45V40H56.25V20H45V16H37.5V4Z" fill="#FFAE4C"/>
<path d="M52.5 56H56.25V60H52.5V56Z" fill="#FFAE4C"/>
<path d="M7.5 52H3.75V56H7.5V52Z" fill="#FFAE4C"/>
<path d="M37.5 0H22.5V4H37.5V0Z" fill="black"/>
<path d="M33.75 20V28H37.5V20H33.75Z" fill="black"/>
<path d="M45 32H15V36H45V32Z" fill="black"/>
<path fill-rule="evenodd" clip-rule="evenodd" d="M33.75 16V8H37.5V4H45V8H48.75V12H45V16H48.75V20H56.25V24H60V36H56.25V40H52.5V44H48.75V52H56.25V56H60V64H37.5V56H41.25V52H45V48H41.25V44H22.5V48H18.75V52H22.5V60H0V52H3.75V48H18.75V44H7.5V40H3.75V36H0V24H3.75V20H11.25V16H15V12H11.25V8H15V4H22.5V8H26.25V16H33.75ZM33.75 20V16H37.5V12H41.25V16H45V20H48.75V24H56.25V36H52.5V40H7.5V36H3.75V24H11.25V20H15V16H18.75V12H22.5V16H26.25V20H33.75ZM26.25 20H22.5V28H26.25V20ZM3.75 52V56H7.5V52H3.75Z" fill="black"/>
<path d="M56.25 56H52.5V60H56.25V56Z" fill="black"/>
<path d="M41.25 12H37.5V16H33.75V20H37.5V28H41.25V12Z" fill="#FFBAAA"/>
<path d="M22.5 12H18.75V28H22.5V20H26.25V16H22.5V12Z" fill="#FFBAAA"/>
<path d="M11.25 32H15V40H11.25V32Z" fill="#FFBAAA"/>
<path d="M48.75 32H45V40H48.75V32Z" fill="#FFBAAA"/>
<path d="M41.25 44V52H37.5V56H22.5V52H18.75V48H22.5V44H41.25Z" fill="#FFBAAA"/>
</svg>
