<svg width="60" height="64" viewBox="0 0 60 64" fill="none" xmlns="http://www.w3.org/2000/svg">
<path d="M22.5 4H37.5V16H45V20H56.25V40H45V56H37.5V60H22.5V56H15V40H3.75V20H15V16H22.5V4Z" fill="#FFAE4C"/>
<path d="M7.5 56H3.75V60H7.5V56Z" fill="#FFAE4C"/>
<path d="M52.5 52H56.25V56H52.5V52Z" fill="#FFAE4C"/>
<path d="M22.5 0H37.5V4H22.5V0Z" fill="black"/>
<path d="M26.25 20V28H22.5V20H26.25Z" fill="black"/>
<path d="M15 32H45V36H15V32Z" fill="black"/>
<path fill-rule="evenodd" clip-rule="evenodd" d="M26.25 16V8H22.5V4H15V8H11.25V12H15V16H11.25V20H3.75V24H0V36H3.75V40H7.5V44H11.25V52H3.75V56H0V64H22.5V56H18.75V52H15V48H18.75V44H37.5V48H41.25V52H37.5V60H60V52H56.25V48H41.25V44H52.5V40H56.25V36H60V24H56.25V20H48.75V16H45V12H48.75V8H45V4H37.5V8H33.75V16H26.25ZM26.25 20V16H22.5V12H18.75V16H15V20H11.25V24H3.75V36H7.5V40H52.5V36H56.25V24H48.75V20H45V16H41.25V12H37.5V16H33.75V20H26.25ZM33.75 20H37.5V28H33.75V20ZM56.25 52V56H52.5V52H56.25Z" fill="black"/>
<path d="M3.75 56H7.5V60H3.75V56Z" fill="black"/>
<path d="M18.75 12H22.5V16H26.25V20H22.5V28H18.75V12Z" fill="#FFBAAA"/>
<path d="M37.5 12H41.25V28H37.5V20H33.75V16H37.5V12Z" fill="#FFBAAA"/>
<path d="M48.75 32H45V40H48.75V32Z" fill="#FFBAAA"/>
<path d="M11.25 32H15V40H11.25V32Z" fill="#FFBAAA"/>
<path d="M18.75 44V52H22.5V56H37.5V52H41.25V48H37.5V44H18.75Z" fill="#FFBAAA"/>
</svg>
