<svg width="72" height="86" viewBox="0 0 72 86" fill="none" xmlns="http://www.w3.org/2000/svg">
<path d="M28.8 32.25H43.2001V43H50.4001V46.5833H61.2001V64.5H50.4001V78.8333H43.2001V82.4167H28.8V78.8333H21.6V64.5H10.8V46.5833H21.6V43H28.8V32.25Z" fill="#FFAE4C"/>
<path d="M14.4 78.8333H10.8V82.4167H14.4V78.8333Z" fill="#FFAE4C"/>
<path d="M57.6001 75.25H61.2001V78.8333H57.6001V75.25Z" fill="#FFAE4C"/>
<path d="M3.6001 3.58325H14.4001V39.4166H3.6001V3.58325Z" fill="white"/>
<path d="M14.4001 10.7499H25.2001V42.9999H14.4001V10.7499Z" fill="white"/>
<path d="M68.4001 3.58325H57.6001V39.4166H68.4001V3.58325Z" fill="white"/>
<path d="M57.6001 10.7499H46.8001V42.9999H57.6001V10.7499Z" fill="white"/>
<path fill-rule="evenodd" clip-rule="evenodd" d="M32.4 46.5833V43H39.6V46.5833H32.4ZM39.6 46.5833H43.2V53.75H39.6V46.5833Z" fill="black"/>
<path d="M32.4 46.5833V53.75H28.8V46.5833H32.4Z" fill="black"/>
<path d="M64.8 17.9167H61.2V21.5H64.8V17.9167Z" fill="black"/>
<path d="M64.8 28.6667H61.2V32.25H64.8V28.6667Z" fill="black"/>
<path d="M21.6 57.3333H50.4V60.9167H21.6V57.3333Z" fill="black"/>
<path fill-rule="evenodd" clip-rule="evenodd" d="M10.8 0H3.6V3.58333H0V14.3333H3.6V17.9167H0V25.0833H3.6V28.6667H0V35.8333H3.6V39.4167H7.2V43H14.4V46.5833H10.8V50.1667H7.2V60.9167H10.8V64.5H14.4V68.0833H18V75.25H10.8V78.8333H7.2V86H28.8V78.8333H25.2V75.25H21.6V71.6667H25.2V68.0833H43.2V71.6667H46.8V75.25H43.2V82.4167H64.8V75.25H61.2V71.6667H46.8V68.0833H57.6V64.5H61.2V60.9167H64.8V50.1667H61.2V46.5833H57.6V43H64.8V39.4167H68.4V35.8333H72V28.6667H68.4V25.0833H72V17.9167H68.4V14.3333H72V3.58333H68.4V0H61.2V3.58333H57.6V7.16667H54V10.75H46.8V21.5H43.2V28.6667H28.8V21.5H25.2V10.75H18V7.16667H14.4V3.58333H10.8V0ZM10.8 3.58333V7.16667H14.4V10.75H18V14.3333H21.6V21.5H25.2V32.25H21.6V35.8333H18V39.4167H21.6V43H14.4V39.4167H7.2V35.8333H3.6V28.6667H7.2V32.25H10.8V28.6667H7.2V25.0833H3.6V17.9167H7.2V21.5H10.8V17.9167H7.2V14.3333H3.6V3.58333H10.8ZM32.4 43H28.8V39.4167H25.2V43H21.6V46.5833H18V50.1667H10.8V60.9167H14.4V64.5H57.6V60.9167H61.2V50.1667H54V46.5833H50.4V43H57.6V39.4167H64.8V35.8333H68.4V28.6667H64.8V25.0833H68.4V17.9167H64.8V14.3333H68.4V3.58333H61.2V7.16667H57.6V10.75H54V14.3333H50.4V21.5H46.8V32.25H50.4V35.8333H54V39.4167H50.4V43H46.8V39.4167H43.2V43H39.6V35.8333H43.2V32.25H28.8V35.8333H32.4V43ZM61.2 75.25V78.8333H57.6V75.25H61.2Z" fill="black"/>
<path d="M10.8 78.8333H14.4V82.4167H10.8V78.8333Z" fill="black"/>
<path d="M25.2 39.4167H28.8V43.0001H32.4V46.5834H28.8V53.7501H25.2V39.4167Z" fill="#FFBAAA"/>
<path d="M43.2 39.4167H46.8V53.7501H43.2V46.5834H39.6V43.0001H43.2V39.4167Z" fill="#FFBAAA"/>
<path d="M54 57.3334H50.4V64.5001H54V57.3334Z" fill="#FFBAAA"/>
<path d="M18 57.3334H21.6V64.5001H18V57.3334Z" fill="#FFBAAA"/>
<path d="M25.2 68.0834V75.2501H28.8V78.8334H43.2V75.2501H46.8V71.6667H43.2V68.0834H25.2Z" fill="#FFBAAA"/>
</svg>
