<svg width="59" height="60" viewBox="0 0 59 60" fill="none" xmlns="http://www.w3.org/2000/svg">
<path d="M36.875 3.75H22.125V15H14.75V18.75H3.6875V37.5H14.75V52.5H22.125V56.25H36.875V52.5H44.25V37.5H55.3125V18.75H44.25V15H36.875V3.75Z" fill="#1E0BF2"/>
<path d="M51.625 52.5H55.3125V56.25H51.625V52.5Z" fill="#1E0BF2"/>
<path d="M7.375 48.75H3.6875V52.5H7.375V48.75Z" fill="#1E0BF2"/>
<path d="M36.875 0H22.125V3.75H36.875V0Z" fill="black"/>
<path d="M33.1875 18.75V26.25H36.875V18.75H33.1875Z" fill="black"/>
<path d="M44.25 30H14.75V33.75H44.25V30Z" fill="black"/>
<path fill-rule="evenodd" clip-rule="evenodd" d="M33.1875 15V7.5H36.875V3.75H44.25V7.5H47.9375V11.25H44.25V15H47.9375V18.75H55.3125V22.5H59V33.75H55.3125V37.5H51.625V41.25H47.9375V48.75H55.3125V52.5H59V60H36.875V52.5H40.5625V48.75H44.25V45H40.5625V41.25H22.125V45H18.4375V48.75H22.125V56.25H0V48.75H3.6875V45H18.4375V41.25H7.375V37.5H3.6875V33.75H0V22.5H3.6875V18.75H11.0625V15H14.75V11.25H11.0625V7.5H14.75V3.75H22.125V7.5H25.8125V15H33.1875ZM33.1875 18.75V15H36.875V11.25H40.5625V15H44.25V18.75H47.9375V22.5H55.3125V33.75H51.625V37.5H7.375V33.75H3.6875V22.5H11.0625V18.75H14.75V15H18.4375V11.25H22.125V15H25.8125V18.75H33.1875ZM25.8125 18.75H22.125V26.25H25.8125V18.75ZM3.6875 48.75V52.5H7.375V48.75H3.6875Z" fill="black"/>
<path d="M55.3125 52.5H51.625V56.25H55.3125V52.5Z" fill="black"/>
<path d="M40.5625 11.25H36.875V15H33.1875V18.75H36.875V26.25H40.5625V11.25Z" fill="white"/>
<path d="M22.125 11.25H18.4375V26.25H22.125V18.75H25.8125V15H22.125V11.25Z" fill="white"/>
<path d="M11.0625 30H14.75V37.5H11.0625V30Z" fill="white"/>
<path d="M47.9375 30H44.25V37.5H47.9375V30Z" fill="white"/>
<path d="M40.5625 41.25V48.75H36.875V52.5H22.125V48.75H18.4375V45H22.125V41.25H40.5625Z" fill="white"/>
</svg>
