<svg width="57" height="95" viewBox="0 0 57 95" fill="none" xmlns="http://www.w3.org/2000/svg">
<path d="M49.875 38.7036H32.0625V49.2592H28.5V73.8888H53.4375V49.2592H49.875V38.7036Z" fill="#4C94FF"/>
<path d="M21.375 17.5925H24.9375V21.111H28.5V35.1851H24.9375V42.2222H21.375V52.7777H17.8125V66.8518H14.25V59.8148H7.125V56.2962H10.6875V52.7777H14.25V49.2592H17.8125V38.7036H10.6875V42.2222H7.125V45.7407H3.5625V31.6666H7.125V35.1851H14.25V31.6666H17.8125V24.6296H21.375V17.5925Z" fill="#FFAE4C"/>
<path d="M17.8125 80.9259H21.375V84.4444H28.5V91.4814H14.25V84.4444H17.8125V80.9259Z" fill="#FFAE4C"/>
<path d="M49.875 87.9629H39.1875V91.4814H49.875V87.9629Z" fill="#FFAE4C"/>
<path d="M42.75 3.51855H53.4375V38.7037H32.0625V14.0741H39.1875V10.5556H42.75V3.51855Z" fill="white"/>
<path d="M49.875 17.5926V21.1111H46.3125V17.5926H49.875Z" fill="black"/>
<path d="M49.875 28.1481V31.6667H46.3125V28.1481H49.875Z" fill="black"/>
<path d="M28.5 52.7778V56.2963H32.0625V52.7778H28.5Z" fill="black"/>
<path fill-rule="evenodd" clip-rule="evenodd" d="M35.625 42.2222V38.7037H46.3125V35.1852H32.0625V42.2222H28.5V35.1852H24.9375V42.2222H21.375V52.7778H24.9375V70.3704H28.5V59.8148H32.0625V63.3333H35.625V66.8519H39.1875V70.3704H42.75V66.8519H46.3125V63.3333H49.875V59.8148H46.3125V63.3333H42.75V66.8519H39.1875V63.3333H35.625V59.8148H32.0625V56.2963H35.625V52.7778H39.1875V49.2593H42.75V52.7778H46.3125V56.2963H49.875V52.7778H46.3125V49.2593H42.75V45.7407H46.3125V42.2222H42.75V45.7407H39.1875V42.2222H35.625ZM35.625 42.2222V45.7407H39.1875V49.2593H35.625V52.7778H32.0625V42.2222H35.625ZM28.5 52.7778V42.2222H24.9375V52.7778H28.5Z" fill="black"/>
<path fill-rule="evenodd" clip-rule="evenodd" d="M53.4375 0H46.3125V3.51852H42.75V7.03704H39.1875V10.5556H35.625V14.0741H32.0625V21.1111H28.5V17.5926H24.9375V14.0741H21.375V7.03704H17.8125V3.51852H10.6875V7.03704H7.125V14.0741H3.5625V31.6667H0V49.2593H7.125V45.7407H10.6875V42.2222H14.25V49.2593H10.6875V52.7778H3.5625V59.8148H7.125V63.3333H10.6875V66.8519H14.25V70.3704H17.8125V80.9259H14.25V84.4444H10.6875V87.963H7.125V95H28.5V91.4815H32.0625V87.963H35.625V95H53.4375V91.4815H57V87.963H53.4375V84.4444H57V77.4074H53.4375V70.3704H57V49.2593H53.4375V42.2222H49.875V38.7037H53.4375V35.1852H57V28.1481H53.4375V24.6296H57V17.5926H53.4375V14.0741H57V3.51852H53.4375V0ZM49.875 17.5926V14.0741H53.4375V3.51852H46.3125V7.03704H42.75V10.5556H39.1875V14.0741H35.625V21.1111H32.0625V35.1852H28.5V21.1111H24.9375V17.5926H21.375V24.6296H17.8125V7.03704H10.6875V14.0741H7.125V17.5926H10.6875V28.1481H7.125V31.6667H3.5625V45.7407H7.125V42.2222H10.6875V38.7037H17.8125V49.2593H14.25V52.7778H10.6875V56.2963H7.125V59.8148H14.25V66.8519H17.8125V52.7778H21.375V77.4074H24.9375V80.9259H32.0625V84.4444H53.4375V77.4074H28.5V70.3704H32.0625V73.8889H35.625V70.3704H39.1875V73.8889H42.75V70.3704H46.3125V73.8889H49.875V70.3704H53.4375V59.8148H49.875V56.2963H53.4375V49.2593H49.875V42.2222H46.3125V38.7037H49.875V35.1852H53.4375V28.1481H49.875V24.6296H53.4375V17.5926H49.875ZM7.125 31.6667H10.6875V35.1852H7.125V31.6667ZM53.4375 87.963V91.4815H39.1875V87.963H53.4375ZM28.5 91.4815H10.6875V87.963H14.25V84.4444H17.8125V80.9259H21.375V84.4444H28.5V91.4815Z" fill="black"/>
<path d="M10.6875 7.03711H17.8125V31.6667H14.25V35.1853H10.6875V31.6667H7.125V28.1482H10.6875V17.5927H7.125V14.0741H10.6875V7.03711Z" fill="#FFBAAA"/>
<path d="M24.9375 42.2223H28.5V52.7778H24.9375V42.2223Z" fill="#FFBAAA"/>
<path d="M24.9375 70.3704V52.7778H21.375V77.4075H24.9375V80.926H32.0625V84.4445H53.4375V77.4075H28.5V70.3704H24.9375Z" fill="#FFBAAA"/>
<path d="M14.25 87.963H10.6875V91.4816H14.25V87.963Z" fill="#FFBAAA"/>
<path d="M49.875 87.963H53.4375V91.4816H49.875V87.963Z" fill="#FFBAAA"/>
</svg>
