<svg width="54" height="87" viewBox="0 0 54 87" fill="none" xmlns="http://www.w3.org/2000/svg">
<path d="M47.25 33.4614H30.375V43.4999H27V66.923H50.625V43.4999H47.25V33.4614Z" fill="#4C94FF"/>
<path d="M20.25 13.3845H23.625V16.7307H27V30.1153H23.625V36.8076H20.25V46.8461H16.875V60.2307H13.5V53.5384H6.75V50.1922H10.125V46.8461H13.5V43.4999H16.875V33.4614H10.125V36.8076H6.75V40.1538H3.375V26.7691H6.75V30.1153H13.5V26.7691H16.875V20.0768H20.25V13.3845Z" fill="#FFAE4C"/>
<path d="M16.875 73.6153H20.25V76.9614H27V83.6538H13.5V76.9614H16.875V73.6153Z" fill="#FFAE4C"/>
<path d="M47.25 80.3076H37.125V83.6538H47.25V80.3076Z" fill="#FFAE4C"/>
<path d="M10.125 0H16.875V3.34615H10.125V0Z" fill="black"/>
<path d="M6.75 10.0385V3.34615H10.125V10.0385H6.75Z" fill="black"/>
<path d="M30.375 50.1923H27V46.8462H23.625V63.5769H27V53.5385H30.375V56.8846H33.75V60.2308H37.125V63.5769H40.5V60.2308H43.875V56.8846H47.25V53.5385H43.875V56.8846H40.5V60.2308H37.125V56.8846H33.75V53.5385H30.375V50.1923Z" fill="black"/>
<path d="M33.75 46.8462H30.375V50.1923H33.75V46.8462Z" fill="black"/>
<path d="M37.125 43.5V46.8462H33.75V43.5H37.125Z" fill="black"/>
<path fill-rule="evenodd" clip-rule="evenodd" d="M37.125 40.1538H33.75V36.8077H37.125V40.1538ZM37.125 40.1538V43.5H40.5V46.8462H43.875V50.1923H47.25V46.8462H43.875V43.5H40.5V40.1538H43.875V36.8077H40.5V40.1538H37.125Z" fill="black"/>
<path fill-rule="evenodd" clip-rule="evenodd" d="M6.75 26.7692V23.4231H10.125V13.3846H6.75V10.0385H3.375V26.7692H0V43.5H6.75V40.1538H10.125V36.8077H13.5V43.5H10.125V46.8462H3.375V53.5385H6.75V56.8846H10.125V60.2308H13.5V63.5769H16.875V73.6154H13.5V76.9615H10.125V80.3077H6.75V87H27V83.6538H30.375V80.3077H33.75V87H50.625V83.6538H54V80.3077H50.625V76.9615H54V70.2692H50.625V63.5769H54V43.5H50.625V36.8077H47.25V33.4615H43.875V30.1154H33.75V33.4615H30.375V36.8077H27V30.1154H30.375V16.7308H27V13.3846H23.625V10.0385H20.25V3.34615H16.875V20.0769H20.25V13.3846H23.625V16.7308H27V30.1154H23.625V36.8077H20.25V46.8462H16.875V60.2308H13.5V53.5385H6.75V50.1923H10.125V46.8462H13.5V43.5H16.875V33.4615H10.125V36.8077H6.75V40.1538H3.375V26.7692H6.75ZM6.75 26.7692H10.125V30.1154H6.75V26.7692ZM23.625 46.8462H20.25V70.2692H23.625V73.6154H30.375V76.9615H50.625V70.2692H27V63.5769H30.375V66.9231H33.75V63.5769H37.125V66.9231H40.5V63.5769H43.875V66.9231H47.25V63.5769H50.625V53.5385H47.25V50.1923H50.625V43.5H47.25V36.8077H43.875V33.4615H33.75V36.8077H30.375V46.8462H27V36.8077H23.625V46.8462ZM20.25 73.6154H16.875V76.9615H13.5V80.3077H10.125V83.6538H27V76.9615H20.25V73.6154ZM50.625 80.3077V83.6538H37.125V80.3077H50.625Z" fill="black"/>
<path d="M10.125 3.34619H16.875V26.7693H13.5V30.1154H10.125V26.7693H6.75V23.4231H10.125V13.3847H6.75V10.0385H10.125V3.34619Z" fill="#FFBAAA"/>
<path d="M23.625 36.8077H27V46.8462H23.625V36.8077Z" fill="#FFBAAA"/>
<path d="M23.625 63.577V46.8462H20.25V70.2693H23.625V73.6154H30.375V76.9616H50.625V70.2693H27V63.577H23.625Z" fill="#FFBAAA"/>
<path d="M13.5 80.3077H10.125V83.6539H13.5V80.3077Z" fill="#FFBAAA"/>
<path d="M47.25 80.3077H50.625V83.6539H47.25V80.3077Z" fill="#FFBAAA"/>
</svg>
