<svg width="57" height="103" viewBox="0 0 57 103" fill="none" xmlns="http://www.w3.org/2000/svg">
<path d="M10.6875 49.7241H46.3125V53.2758H49.875V60.3793H53.4375V85.2414H49.875V95.8965H46.3125V99.4483H10.6875V95.8965H7.125V85.2414H3.5625V60.3793H7.125V53.2758H10.6875V49.7241Z" fill="white"/>
<path d="M21.375 0H24.9375V3.55172H21.375V0Z" fill="black"/>
<path d="M32.0625 21.3103H46.3125V35.5172H35.625V28.4138H32.0625V39.069H24.9375V28.4138H21.375V35.5172H10.6875V21.3103H24.9375V24.8621H32.0625V21.3103Z" fill="black"/>
<path d="M49.875 85.2414H46.3125V81.6897H49.875V85.2414Z" fill="black"/>
<path d="M7.125 85.2414V81.6897H10.6875V85.2414H7.125Z" fill="black"/>
<path d="M21.375 63.931H24.9375V78.1379H21.375V63.931Z" fill="black"/>
<path d="M35.625 63.931H32.0625V78.1379H35.625V63.931Z" fill="black"/>
<path fill-rule="evenodd" clip-rule="evenodd" d="M32.0625 3.55172H24.9375V7.10345H17.8125V10.6552H14.25V14.2069H10.6875V21.3103H7.125V35.5172H10.6875V39.069H7.125V42.6207H3.5625V56.8276H0V85.2414H3.5625V95.8966H7.125V99.4483H10.6875V103H24.9375V99.4483H32.0625V103H46.3125V99.4483H49.875V95.8966H53.4375V85.2414H57V56.8276H53.4375V42.6207H49.875V39.069H46.3125V35.5172H49.875V21.3103H46.3125V14.2069H42.75V10.6552H39.1875V7.10345H32.0625V3.55172ZM32.0625 21.3103V17.7586H42.75V14.2069H39.1875V10.6552H17.8125V14.2069H14.25V17.7586H24.9375V21.3103H32.0625ZM46.3125 39.069V42.6207H49.875V46.1724H32.0625V42.6207H35.625V39.069H46.3125ZM49.875 85.2414H53.4375V60.3793H49.875V53.2759H46.3125V49.7241H10.6875V53.2759H7.125V60.3793H3.5625V85.2414H7.125V95.8966H10.6875V99.4483H24.9375V95.8966H32.0625V99.4483H46.3125V95.8966H49.875V85.2414Z" fill="black"/>
<path d="M32.0625 3.55172V0H35.625V3.55172H32.0625Z" fill="black"/>
<path d="M7.125 42.6207V46.1724H24.9375V42.6207H21.375V39.069H10.6875V42.6207H7.125Z" fill="black"/>
<path d="M17.8125 10.6552H39.1875V14.2069H17.8125V10.6552Z" fill="#FFAE4C"/>
<path d="M14.25 14.2069H42.75V17.7586H14.25V14.2069Z" fill="#FFAE4C"/>
<path d="M24.9375 17.7586H32.0625V21.3103H24.9375V17.7586Z" fill="#FFAE4C"/>
<path d="M10.6875 39.0689H21.375V42.6207H10.6875V39.0689Z" fill="#FFAE4C"/>
<path d="M7.125 42.6207H24.9375V46.1724H7.125V42.6207Z" fill="#FFAE4C"/>
<path d="M35.625 39.0689H46.3125V42.6207H35.625V39.0689Z" fill="#FFAE4C"/>
<path d="M32.0625 42.6207H49.875V46.1724H32.0625V42.6207Z" fill="#FFAE4C"/>
<path d="M10.6875 21.3104H24.9375V24.8621H32.0625V21.3104H46.3125V35.5173H35.625V28.4138H32.0625V39.069H24.9375V28.4138H21.375V35.5173H10.6875V21.3104Z" fill="#FFBAAA"/>
<path d="M17.8125 85.2414H21.375V88.7931H17.8125V85.2414Z" fill="#E64434"/>
<path d="M35.625 88.7931H21.375V92.3448H35.625V88.7931Z" fill="#E64434"/>
<path d="M35.625 88.7931V85.2414H39.1875V88.7931H35.625Z" fill="#E64434"/>
</svg>
