<svg width="616" height="119" viewBox="0 0 616 119" fill="none" xmlns="http://www.w3.org/2000/svg">
<rect y="91.3009" width="22.5243" height="22.5243" fill="black"/>
<rect x="1.40771" y="92.7087" width="19.7088" height="19.7088" fill="#0BE4F2"/>
<path d="M16.8932 92.7087H18.3009V101.155H21.1165V102.563H14.0776V112.417H12.6699V102.563H9.85432V112.417H8.44656V102.563H1.40771V101.155H4.22325V92.7087H5.63102V101.155H16.8932V92.7087Z" fill="#183C5C"/>
<path d="M7.03873 94.1165H15.4853V99.7475H7.03873V94.1165Z" fill="#48EAF6"/>
<path d="M2.81543 103.971H7.03873V111.01H2.81543V103.971Z" fill="#48EAF6"/>
<path d="M19.7086 103.971H15.4853V111.01H19.7086V103.971Z" fill="#48EAF6"/>
<rect x="216.877" y="92.588" width="23.1678" height="23.1678" fill="black"/>
<rect x="218.325" y="94.036" width="20.2719" height="20.2719" fill="#0BE4F2"/>
<path d="M234.253 94.036H235.701V102.724H238.597V104.172H231.357V114.308H229.909V104.172H227.013V114.308H225.565V104.172H218.325V102.724H221.221V94.036H222.669V102.724H234.253V94.036Z" fill="#183C5C"/>
<path d="M224.117 95.484H232.805V101.276H224.117V95.484Z" fill="#48EAF6"/>
<path d="M219.773 105.62H224.117V112.86H219.773V105.62Z" fill="#48EAF6"/>
<path d="M237.149 105.62H232.805V112.86H237.149V105.62Z" fill="#48EAF6"/>
<rect x="216.877" y="70.0637" width="23.1678" height="22.5243" fill="black"/>
<rect x="218.325" y="71.4715" width="20.2719" height="19.7088" fill="#0BE4F2"/>
<path d="M234.253 71.4715H235.701V79.9181H238.597V81.3259H231.357V91.1803H229.909V81.3259H227.013V91.1803H225.565V81.3259H218.325V79.9181H221.221V71.4715H222.669V79.9181H234.253V71.4715Z" fill="#183C5C"/>
<path d="M224.117 72.8793H232.805V78.5103H224.117V72.8793Z" fill="#48EAF6"/>
<path d="M219.773 82.7337H224.117V89.7725H219.773V82.7337Z" fill="#48EAF6"/>
<path d="M237.149 82.7337H232.805V89.7725H237.149V82.7337Z" fill="#48EAF6"/>
<rect x="265.143" y="92.588" width="23.1678" height="23.1678" fill="black"/>
<rect x="266.591" y="94.036" width="20.2719" height="20.2719" fill="#0BE4F2"/>
<path d="M282.519 94.036H283.967V102.724H286.863V104.172H279.623V114.308H278.175V104.172H275.279V114.308H273.831V104.172H266.591V102.724H269.487V94.036H270.935V102.724H282.519V94.036Z" fill="#183C5C"/>
<path d="M272.383 95.484H281.071V101.276H272.383V95.484Z" fill="#48EAF6"/>
<path d="M268.039 105.62H272.383V112.86H268.039V105.62Z" fill="#48EAF6"/>
<path d="M285.415 105.62H281.071V112.86H285.415V105.62Z" fill="#48EAF6"/>
<rect x="254.203" y="79.717" width="22.5243" height="23.1678" fill="black"/>
<rect x="255.61" y="81.165" width="19.7088" height="20.2719" fill="#0BE4F2"/>
<path d="M271.096 81.165H272.504V89.8529H275.319V91.3009H268.28V101.437H266.872V91.3009H264.057V101.437H262.649V91.3009H255.61V89.8529H258.426V81.165H259.834V89.8529H271.096V81.165Z" fill="#183C5C"/>
<path d="M261.241 82.613H269.688V88.4049H261.241V82.613Z" fill="#48EAF6"/>
<path d="M257.018 92.7489H261.241V99.9889H257.018V92.7489Z" fill="#48EAF6"/>
<path d="M273.911 92.7489H269.688V99.9889H273.911V92.7489Z" fill="#48EAF6"/>
<rect x="216.877" y="47.5394" width="23.1678" height="22.5243" fill="black"/>
<rect x="218.325" y="48.9472" width="20.2719" height="19.7088" fill="#0BE4F2"/>
<path d="M234.253 48.9472H235.701V57.3938H238.597V58.8016H231.357V68.656H229.909V58.8016H227.013V68.656H225.565V58.8016H218.325V57.3938H221.221V48.9472H222.669V57.3938H234.253V48.9472Z" fill="#183C5C"/>
<path d="M224.117 50.355H232.805V55.9861H224.117V50.355Z" fill="#48EAF6"/>
<path d="M219.773 60.2094H224.117V67.2482H219.773V60.2094Z" fill="#48EAF6"/>
<path d="M237.149 60.2094H232.805V67.2482H237.149V60.2094Z" fill="#48EAF6"/>
<rect x="216.877" y="24.3716" width="23.1678" height="23.1678" fill="black"/>
<rect x="218.325" y="25.8196" width="20.2719" height="20.2719" fill="#0BE4F2"/>
<path d="M234.253 25.8196H235.701V34.5075H238.597V35.9555H231.357V46.0914H229.909V35.9555H227.013V46.0914H225.565V35.9555H218.325V34.5075H221.221V25.8196H222.669V34.5075H234.253V25.8196Z" fill="#183C5C"/>
<path d="M224.117 27.2676H232.805V33.0595H224.117V27.2676Z" fill="#48EAF6"/>
<path d="M219.773 37.4035H224.117V44.6435H219.773V37.4035Z" fill="#48EAF6"/>
<path d="M237.149 37.4035H232.805V44.6435H237.149V37.4035Z" fill="#48EAF6"/>
<rect x="300.539" y="3.13434" width="23.1678" height="23.1678" fill="black"/>
<rect x="301.987" y="4.58234" width="20.2719" height="20.2719" fill="#0BE4F2"/>
<path d="M317.914 4.58234H319.362V13.2703H322.258V14.7183H315.018V24.8542H313.57V14.7183H310.675V24.8542H309.227V14.7183H301.987V13.2703H304.883V4.58234H306.331V13.2703H317.914V4.58234Z" fill="#183C5C"/>
<path d="M307.779 6.03033H316.466V11.8223H307.779V6.03033Z" fill="#48EAF6"/>
<path d="M303.435 16.1663H307.779V23.4062H303.435V16.1663Z" fill="#48EAF6"/>
<path d="M320.81 16.1663H316.466V23.4062H320.81V16.1663Z" fill="#48EAF6"/>
<rect x="300.539" y="48.8265" width="23.1678" height="22.5243" fill="black"/>
<rect x="301.987" y="50.2343" width="20.2719" height="19.7088" fill="#0BE4F2"/>
<path d="M317.914 50.2343H319.362V58.6809H322.258V60.0887H315.018V69.9431H313.57V60.0887H310.675V69.9431H309.227V60.0887H301.987V58.6809H304.883V50.2343H306.331V58.6809H317.914V50.2343Z" fill="#183C5C"/>
<path d="M307.779 51.6421H316.466V57.2732H307.779V51.6421Z" fill="#48EAF6"/>
<path d="M303.435 61.4965H307.779V68.5353H303.435V61.4965Z" fill="#48EAF6"/>
<path d="M320.81 61.4965H316.466V68.5353H320.81V61.4965Z" fill="#48EAF6"/>
<rect x="300.539" y="71.3508" width="23.1678" height="23.1678" fill="black"/>
<rect x="301.987" y="72.7988" width="20.2719" height="20.2719" fill="#0BE4F2"/>
<path d="M317.914 72.7988H319.362V81.4868H322.258V82.9348H315.018V93.0707H313.57V82.9348H310.675V93.0707H309.227V82.9348H301.987V81.4868H304.883V72.7988H306.331V81.4868H317.914V72.7988Z" fill="#183C5C"/>
<path d="M307.779 74.2468H316.466V80.0388H307.779V74.2468Z" fill="#48EAF6"/>
<path d="M303.435 84.3828H307.779V91.6227H303.435V84.3828Z" fill="#48EAF6"/>
<path d="M320.81 84.3828H316.466V91.6227H320.81V84.3828Z" fill="#48EAF6"/>
<rect x="300.539" y="94.5187" width="23.1678" height="22.5243" fill="black"/>
<rect x="301.987" y="95.9265" width="20.2719" height="19.7088" fill="#0BE4F2"/>
<path d="M317.914 95.9265H319.362V104.373H322.258V105.781H315.018V115.635H313.57V105.781H310.675V115.635H309.227V105.781H301.987V104.373H304.883V95.9265H306.331V104.373H317.914V95.9265Z" fill="#183C5C"/>
<path d="M307.779 97.3342H316.466V102.965H307.779V97.3342Z" fill="#48EAF6"/>
<path d="M303.435 107.189H307.779V114.227H303.435V107.189Z" fill="#48EAF6"/>
<path d="M320.81 107.189H316.466V114.227H320.81V107.189Z" fill="#48EAF6"/>
<rect x="300.539" y="26.3022" width="23.1678" height="22.5243" fill="black"/>
<rect x="301.987" y="27.71" width="20.2719" height="19.7088" fill="#0BE4F2"/>
<path d="M317.914 27.71H319.362V36.1566H322.258V37.5644H315.018V47.4188H313.57V37.5644H310.675V47.4188H309.227V37.5644H301.987V36.1566H304.883V27.71H306.331V36.1566H317.914V27.71Z" fill="#183C5C"/>
<path d="M307.779 29.1178H316.466V34.7489H307.779V29.1178Z" fill="#48EAF6"/>
<path d="M303.435 38.9722H307.779V46.011H303.435V38.9722Z" fill="#48EAF6"/>
<path d="M320.81 38.9722H316.466V46.011H320.81V38.9722Z" fill="#48EAF6"/>
<rect x="434.397" y="3.13434" width="22.5243" height="23.1678" fill="black"/>
<rect x="435.805" y="4.58234" width="19.7088" height="20.2719" fill="#0BE4F2"/>
<path d="M451.29 4.58234H452.698V13.2703H455.514V14.7183H448.475V24.8542H447.067V14.7183H444.252V24.8542H442.844V14.7183H435.805V13.2703H438.62V4.58234H440.028V13.2703H451.29V4.58234Z" fill="#183C5C"/>
<path d="M441.436 6.03033H449.883V11.8223H441.436V6.03033Z" fill="#48EAF6"/>
<path d="M437.213 16.1663H441.436V23.4062H437.213V16.1663Z" fill="#48EAF6"/>
<path d="M454.106 16.1663H449.883V23.4062H454.106V16.1663Z" fill="#48EAF6"/>
<rect x="434.397" y="48.8265" width="22.5243" height="22.5243" fill="black"/>
<rect x="435.805" y="50.2343" width="19.7088" height="19.7088" fill="#0BE4F2"/>
<path d="M451.29 50.2343H452.698V58.6809H455.514V60.0887H448.475V69.9431H447.067V60.0887H444.252V69.9431H442.844V60.0887H435.805V58.6809H438.62V50.2343H440.028V58.6809H451.29V50.2343Z" fill="#183C5C"/>
<path d="M441.436 51.6421H449.883V57.2732H441.436V51.6421Z" fill="#48EAF6"/>
<path d="M437.213 61.4965H441.436V68.5353H437.213V61.4965Z" fill="#48EAF6"/>
<path d="M454.106 61.4965H449.883V68.5353H454.106V61.4965Z" fill="#48EAF6"/>
<rect x="434.397" y="71.3508" width="22.5243" height="23.1678" fill="black"/>
<rect x="435.805" y="72.7988" width="19.7088" height="20.2719" fill="#0BE4F2"/>
<path d="M451.29 72.7988H452.698V81.4868H455.514V82.9348H448.475V93.0707H447.067V82.9348H444.252V93.0707H442.844V82.9348H435.805V81.4868H438.62V72.7988H440.028V81.4868H451.29V72.7988Z" fill="#183C5C"/>
<path d="M441.436 74.2468H449.883V80.0388H441.436V74.2468Z" fill="#48EAF6"/>
<path d="M437.213 84.3828H441.436V91.6227H437.213V84.3828Z" fill="#48EAF6"/>
<path d="M454.106 84.3828H449.883V91.6227H454.106V84.3828Z" fill="#48EAF6"/>
<rect x="434.397" y="94.5187" width="22.5243" height="22.5243" fill="black"/>
<rect x="435.805" y="95.9265" width="19.7088" height="19.7088" fill="#0BE4F2"/>
<path d="M451.29 95.9265H452.698V104.373H455.514V105.781H448.475V115.635H447.067V105.781H444.252V115.635H442.844V105.781H435.805V104.373H438.62V95.9265H440.028V104.373H451.29V95.9265Z" fill="#183C5C"/>
<path d="M441.436 97.3342H449.883V102.965H441.436V97.3342Z" fill="#48EAF6"/>
<path d="M437.213 107.189H441.436V114.227H437.213V107.189Z" fill="#48EAF6"/>
<path d="M454.106 107.189H449.883V114.227H454.106V107.189Z" fill="#48EAF6"/>
<rect x="434.397" y="26.3022" width="22.5243" height="22.5243" fill="black"/>
<rect x="435.805" y="27.71" width="19.7088" height="19.7088" fill="#0BE4F2"/>
<path d="M451.29 27.71H452.698V36.1566H455.514V37.5644H448.475V47.4188H447.067V37.5644H444.252V47.4188H442.844V37.5644H435.805V36.1566H438.62V27.71H440.028V36.1566H451.29V27.71Z" fill="#183C5C"/>
<path d="M441.436 29.1178H449.883V34.7489H441.436V29.1178Z" fill="#48EAF6"/>
<path d="M437.213 38.9722H441.436V46.011H437.213V38.9722Z" fill="#48EAF6"/>
<path d="M454.106 38.9722H449.883V46.011H454.106V38.9722Z" fill="#48EAF6"/>
<rect x="456.921" y="26.3022" width="22.5243" height="22.5243" fill="black"/>
<rect x="458.329" y="27.71" width="19.7088" height="19.7088" fill="#0BE4F2"/>
<path d="M473.815 27.71H475.222V36.1566H478.038V37.5644H470.999V47.4188H469.591V37.5644H466.776V47.4188H465.368V37.5644H458.329V36.1566H461.145V27.71H462.552V36.1566H473.815V27.71Z" fill="#183C5C"/>
<path d="M463.96 29.1178H472.407V34.7489H463.96V29.1178Z" fill="#48EAF6"/>
<path d="M459.737 38.9722H463.96V46.011H459.737V38.9722Z" fill="#48EAF6"/>
<path d="M476.63 38.9722H472.407V46.011H476.63V38.9722Z" fill="#48EAF6"/>
<rect x="471.079" y="71.3508" width="22.5243" height="23.1678" fill="black"/>
<rect x="472.487" y="72.7988" width="19.7088" height="20.2719" fill="#0BE4F2"/>
<path d="M487.973 72.7988H489.38V81.4868H492.196V82.9348H485.157V93.0707H483.749V82.9348H480.934V93.0707H479.526V82.9348H472.487V81.4868H475.303V72.7988H476.71V81.4868H487.973V72.7988Z" fill="#183C5C"/>
<path d="M478.118 74.2468H486.565V80.0388H478.118V74.2468Z" fill="#48EAF6"/>
<path d="M473.895 84.3828H478.118V91.6227H473.895V84.3828Z" fill="#48EAF6"/>
<path d="M490.788 84.3828H486.565V91.6227H490.788V84.3828Z" fill="#48EAF6"/>
<rect x="465.288" y="48.8265" width="22.5243" height="22.5243" fill="black"/>
<rect x="466.695" y="50.2343" width="19.7088" height="19.7088" fill="#0BE4F2"/>
<path d="M482.181 50.2343H483.589V58.6809H486.404V60.0887H479.365V69.9431H477.957V60.0887H475.142V69.9431H473.734V60.0887H466.695V58.6809H469.511V50.2343H470.919V58.6809H482.181V50.2343Z" fill="#183C5C"/>
<path d="M472.326 51.6421H480.773V57.2732H472.326V51.6421Z" fill="#48EAF6"/>
<path d="M468.103 61.4965H472.326V68.5353H468.103V61.4965Z" fill="#48EAF6"/>
<path d="M484.996 61.4965H480.773V68.5353H484.996V61.4965Z" fill="#48EAF6"/>
<rect x="492.317" y="5.06506" width="22.5243" height="22.5243" fill="black"/>
<rect x="493.724" y="6.47284" width="19.7088" height="19.7088" fill="#0BE4F2"/>
<path d="M509.21 6.47284H510.618V14.9194H513.433V16.3272H506.394V26.1816H504.987V16.3272H502.171V26.1816H500.763V16.3272H493.724V14.9194H496.54V6.47284H497.948V14.9194H509.21V6.47284Z" fill="#183C5C"/>
<path d="M499.356 7.88062H507.802V13.5117H499.356V7.88062Z" fill="#48EAF6"/>
<path d="M495.132 17.735H499.356V24.7738H495.132V17.735Z" fill="#48EAF6"/>
<path d="M512.025 17.735H507.802V24.7738H512.025V17.735Z" fill="#48EAF6"/>
<rect x="492.317" y="50.1136" width="22.5243" height="22.5243" fill="black"/>
<rect x="493.724" y="51.5214" width="19.7088" height="19.7088" fill="#0BE4F2"/>
<path d="M509.21 51.5214H510.618V59.968H513.433V61.3758H506.394V71.2302H504.987V61.3758H502.171V71.2302H500.763V61.3758H493.724V59.968H496.54V51.5214H497.948V59.968H509.21V51.5214Z" fill="#183C5C"/>
<path d="M499.356 52.9292H507.802V58.5603H499.356V52.9292Z" fill="#48EAF6"/>
<path d="M495.132 62.7836H499.356V69.8224H495.132V62.7836Z" fill="#48EAF6"/>
<path d="M512.025 62.7836H507.802V69.8224H512.025V62.7836Z" fill="#48EAF6"/>
<rect x="492.317" y="72.6379" width="22.5243" height="23.1678" fill="black"/>
<rect x="493.724" y="74.0859" width="19.7088" height="20.2719" fill="#0BE4F2"/>
<path d="M509.21 74.0859H510.618V82.7739H513.433V84.2219H506.394V94.3578H504.987V84.2219H502.171V94.3578H500.763V84.2219H493.724V82.7739H496.54V74.0859H497.948V82.7739H509.21V74.0859Z" fill="#183C5C"/>
<path d="M499.356 75.5339H507.802V81.3259H499.356V75.5339Z" fill="#48EAF6"/>
<path d="M495.132 85.6699H499.356V92.9098H495.132V85.6699Z" fill="#48EAF6"/>
<path d="M512.025 85.6699H507.802V92.9098H512.025V85.6699Z" fill="#48EAF6"/>
<rect x="492.317" y="95.8057" width="22.5243" height="22.5243" fill="black"/>
<rect x="493.724" y="97.2135" width="19.7088" height="19.7088" fill="#0BE4F2"/>
<path d="M509.21 97.2135H510.618V105.66H513.433V107.068H506.394V116.922H504.987V107.068H502.171V116.922H500.763V107.068H493.724V105.66H496.54V97.2135H497.948V105.66H509.21V97.2135Z" fill="#183C5C"/>
<path d="M499.356 98.6213H507.802V104.252H499.356V98.6213Z" fill="#48EAF6"/>
<path d="M495.132 108.476H499.356V115.514H495.132V108.476Z" fill="#48EAF6"/>
<path d="M512.025 108.476H507.802V115.514H512.025V108.476Z" fill="#48EAF6"/>
<rect x="492.317" y="27.5893" width="22.5243" height="22.5243" fill="black"/>
<rect x="493.724" y="28.9971" width="19.7088" height="19.7088" fill="#0BE4F2"/>
<path d="M509.21 28.9971H510.618V37.4437H513.433V38.8514H506.394V48.7058H504.987V38.8514H502.171V48.7058H500.763V38.8514H493.724V37.4437H496.54V28.9971H497.948V37.4437H509.21V28.9971Z" fill="#183C5C"/>
<path d="M499.356 30.4048H507.802V36.0359H499.356V30.4048Z" fill="#48EAF6"/>
<path d="M495.132 40.2592H499.356V47.2981H495.132V40.2592Z" fill="#48EAF6"/>
<path d="M512.025 40.2592H507.802V47.2981H512.025V40.2592Z" fill="#48EAF6"/>
<rect x="216.877" y="1.84729" width="23.1678" height="22.5243" fill="black"/>
<rect x="218.325" y="3.25507" width="20.2719" height="19.7088" fill="#0BE4F2"/>
<path d="M234.253 3.25507H235.701V11.7017H238.597V13.1094H231.357V22.9638H229.909V13.1094H227.013V22.9638H225.565V13.1094H218.325V11.7017H221.221V3.25507H222.669V11.7017H234.253V3.25507Z" fill="#183C5C"/>
<path d="M224.117 4.66284H232.805V10.2939H224.117V4.66284Z" fill="#48EAF6"/>
<path d="M219.773 14.5172H224.117V21.5561H219.773V14.5172Z" fill="#48EAF6"/>
<path d="M237.149 14.5172H232.805V21.5561H237.149V14.5172Z" fill="#48EAF6"/>
<rect x="240.044" y="1.84729" width="22.5243" height="22.5243" fill="black"/>
<rect x="241.452" y="3.25507" width="19.7088" height="19.7088" fill="#0BE4F2"/>
<path d="M256.938 3.25507H258.345V11.7017H261.161V13.1094H254.122V22.9638H252.714V13.1094H249.899V22.9638H248.491V13.1094H241.452V11.7017H244.268V3.25507H245.675V11.7017H256.938V3.25507Z" fill="#183C5C"/>
<path d="M247.083 4.66284H255.53V10.2939H247.083V4.66284Z" fill="#48EAF6"/>
<path d="M242.86 14.5172H247.083V21.5561H242.86V14.5172Z" fill="#48EAF6"/>
<path d="M259.753 14.5172H255.53V21.5561H259.753V14.5172Z" fill="#48EAF6"/>
<rect x="262.569" y="13.4312" width="22.5243" height="22.5243" fill="black"/>
<rect x="263.977" y="14.839" width="19.7088" height="19.7088" fill="#0BE4F2"/>
<path d="M279.462 14.839H280.87V23.2856H283.685V24.6934H276.646V34.5477H275.239V24.6934H272.423V34.5477H271.015V24.6934H263.977V23.2856H266.792V14.839H268.2V23.2856H279.462V14.839Z" fill="#183C5C"/>
<path d="M269.608 16.2468H278.054V21.8778H269.608V16.2468Z" fill="#48EAF6"/>
<path d="M265.384 26.1011H269.608V33.14H265.384V26.1011Z" fill="#48EAF6"/>
<path d="M282.277 26.1011H278.054V33.14H282.277V26.1011Z" fill="#48EAF6"/>
<rect x="270.935" y="35.9556" width="22.5243" height="22.5243" fill="black"/>
<rect x="272.343" y="37.3633" width="19.7088" height="19.7088" fill="#0BE4F2"/>
<path d="M287.828 37.3633H289.236V45.81H292.052V47.2177H285.013V57.0721H283.605V47.2177H280.789V57.0721H279.382V47.2177H272.343V45.81H275.158V37.3633H276.566V45.81H287.828V37.3633Z" fill="#183C5C"/>
<path d="M277.974 38.7711H286.42V44.4022H277.974V38.7711Z" fill="#48EAF6"/>
<path d="M273.75 48.6255H277.974V55.6643H273.75V48.6255Z" fill="#48EAF6"/>
<path d="M290.644 48.6255H286.42V55.6643H290.644V48.6255Z" fill="#48EAF6"/>
<rect x="240.044" y="58.4798" width="22.5243" height="23.1678" fill="black"/>
<rect x="241.452" y="59.9278" width="19.7088" height="20.2719" fill="#0BE4F2"/>
<path d="M256.938 59.9278H258.345V68.6157H261.161V70.0637H254.122V80.1997H252.714V70.0637H249.899V80.1997H248.491V70.0637H241.452V68.6157H244.268V59.9278H245.675V68.6157H256.938V59.9278Z" fill="#183C5C"/>
<path d="M247.083 61.3758H255.53V67.1678H247.083V61.3758Z" fill="#48EAF6"/>
<path d="M242.86 71.5117H247.083V78.7517H242.86V71.5117Z" fill="#48EAF6"/>
<path d="M259.753 71.5117H255.53V78.7517H259.753V71.5117Z" fill="#48EAF6"/>
<rect x="262.569" y="58.4798" width="22.5243" height="23.1678" fill="black"/>
<rect x="263.977" y="59.9278" width="19.7088" height="20.2719" fill="#0BE4F2"/>
<path d="M279.462 59.9278H280.87V68.6157H283.685V70.0637H276.646V80.1997H275.239V70.0637H272.423V80.1997H271.015V70.0637H263.977V68.6157H266.792V59.9278H268.2V68.6157H279.462V59.9278Z" fill="#183C5C"/>
<path d="M269.608 61.3758H278.054V67.1678H269.608V61.3758Z" fill="#48EAF6"/>
<path d="M265.384 71.5117H269.608V78.7517H265.384V71.5117Z" fill="#48EAF6"/>
<path d="M282.277 71.5117H278.054V78.7517H282.277V71.5117Z" fill="#48EAF6"/>
<rect x="43.7615" y="91.3009" width="23.1678" height="22.5243" fill="black"/>
<rect x="45.2095" y="92.7087" width="20.2719" height="19.7088" fill="#0BE4F2"/>
<path d="M61.1374 92.7087H62.5854V101.155H65.4813V102.563H58.2414V112.417H56.7934V102.563H53.8974V112.417H52.4494V102.563H45.2095V101.155H48.1055V92.7087H49.5534V101.155H61.1374V92.7087Z" fill="#183C5C"/>
<path d="M51.0014 94.1165H59.6894V99.7475H51.0014V94.1165Z" fill="#0BE4F2"/>
<path d="M46.6575 103.971H51.0014V111.01H46.6575V103.971Z" fill="#0BE4F2"/>
<path d="M64.0334 103.971H59.6894V111.01H64.0334V103.971Z" fill="#0BE4F2"/>
<rect x="43.7615" y="68.7766" width="23.1678" height="22.5243" fill="black"/>
<rect x="45.2095" y="70.1844" width="20.2719" height="19.7088" fill="#0BE4F2"/>
<path d="M61.1374 70.1844H62.5854V78.631H65.4813V80.0388H58.2414V89.8931H56.7934V80.0388H53.8974V89.8931H52.4494V80.0388H45.2095V78.631H48.1055V70.1844H49.5534V78.631H61.1374V70.1844Z" fill="#183C5C"/>
<path d="M51.0014 71.5922H59.6894V77.2232H51.0014V71.5922Z" fill="#0BE4F2"/>
<path d="M46.6575 81.4465H51.0014V88.4854H46.6575V81.4465Z" fill="#0BE4F2"/>
<path d="M64.0334 81.4465H59.6894V88.4854H64.0334V81.4465Z" fill="#0BE4F2"/>
<rect x="32.821" y="46.2523" width="22.5243" height="22.5243" fill="black"/>
<rect x="34.2288" y="47.6601" width="19.7088" height="19.7088" fill="#0BE4F2"/>
<path d="M49.7142 47.6601H51.122V56.1067H53.9375V57.5145H46.8987V67.3689H45.4909V57.5145H42.6754V67.3689H41.2676V57.5145H34.2288V56.1067H37.0443V47.6601H38.4521V56.1067H49.7142V47.6601Z" fill="#183C5C"/>
<path d="M39.8598 49.0679H48.3064V54.6989H39.8598V49.0679Z" fill="#48EAF6"/>
<path d="M35.6365 58.9222H39.8598V65.9611H35.6365V58.9222Z" fill="#48EAF6"/>
<path d="M52.5297 58.9222H48.3064V65.9611H52.5297V58.9222Z" fill="#48EAF6"/>
<rect x="22.5244" y="23.0845" width="23.1678" height="23.1678" fill="black"/>
<rect x="23.9724" y="24.5325" width="20.2719" height="20.2719" fill="#0BE4F2"/>
<path d="M39.9003 24.5325H41.3483V33.2204H44.2443V34.6684H37.0043V44.8043H35.5563V34.6684H32.6604V44.8043H31.2124V34.6684H23.9724V33.2204H26.8684V24.5325H28.3164V33.2204H39.9003V24.5325Z" fill="#183C5C"/>
<path d="M29.7644 25.9805H38.4523V31.7724H29.7644V25.9805Z" fill="#48EAF6"/>
<path d="M25.4204 36.1164H29.7644V43.3564H25.4204V36.1164Z" fill="#48EAF6"/>
<path d="M42.7963 36.1164H38.4523V43.3564H42.7963V36.1164Z" fill="#48EAF6"/>
<rect y="0.560181" width="22.5243" height="22.5243" fill="black"/>
<rect x="1.40771" y="1.96796" width="19.7088" height="19.7088" fill="#0BE4F2"/>
<path d="M16.8932 1.96796H18.3009V10.4146H21.1165V11.8223H14.0776V21.6767H12.6699V11.8223H9.85432V21.6767H8.44656V11.8223H1.40771V10.4146H4.22325V1.96796H5.63102V10.4146H16.8932V1.96796Z" fill="#183C5C"/>
<path d="M7.03873 3.37573H15.4853V9.00681H7.03873V3.37573Z" fill="#48EAF6"/>
<path d="M2.81543 13.2301H7.03873V20.269H2.81543V13.2301Z" fill="#48EAF6"/>
<path d="M19.7086 13.2301H15.4853V20.269H19.7086V13.2301Z" fill="#48EAF6"/>
<rect y="46.2523" width="22.5243" height="22.5243" fill="black"/>
<rect x="1.40771" y="47.6601" width="19.7088" height="19.7088" fill="#0BE4F2"/>
<path d="M16.8932 47.6601H18.3009V56.1067H21.1165V57.5145H14.0776V67.3689H12.6699V57.5145H9.85432V67.3689H8.44656V57.5145H1.40771V56.1067H4.22325V47.6601H5.63102V56.1067H16.8932V47.6601Z" fill="#183C5C"/>
<path d="M7.03873 49.0679H15.4853V54.6989H7.03873V49.0679Z" fill="#0BE4F2"/>
<path d="M2.81543 58.9222H7.03873V65.9611H2.81543V58.9222Z" fill="#0BE4F2"/>
<path d="M19.7086 58.9222H15.4853V65.9611H19.7086V58.9222Z" fill="#0BE4F2"/>
<rect y="23.0845" width="22.5243" height="23.1678" fill="black"/>
<rect x="1.40771" y="24.5325" width="19.7088" height="20.2719" fill="#0BE4F2"/>
<path d="M16.8932 24.5325H18.3009V33.2204H21.1165V34.6684H14.0776V44.8043H12.6699V34.6684H9.85432V44.8043H8.44656V34.6684H1.40771V33.2204H4.22325V24.5325H5.63102V33.2204H16.8932V24.5325Z" fill="#183C5C"/>
<path d="M7.03873 25.9805H15.4853V31.7724H7.03873V25.9805Z" fill="#48EAF6"/>
<path d="M2.81543 36.1164H7.03873V43.3564H2.81543V36.1164Z" fill="#48EAF6"/>
<path d="M19.7086 36.1164H15.4853V43.3564H19.7086V36.1164Z" fill="#48EAF6"/>
<rect x="119.057" y="91.3009" width="22.5243" height="22.5243" fill="black"/>
<rect x="120.465" y="92.7087" width="19.7088" height="19.7088" fill="#0BE4F2"/>
<path d="M135.95 92.7087H137.358V101.155H140.174V102.563H133.135V112.417H131.727V102.563H128.911V112.417H127.504V102.563H120.465V101.155H123.28V92.7087H124.688V101.155H135.95V92.7087Z" fill="#183C5C"/>
<path d="M126.096 94.1165H134.542V99.7475H126.096V94.1165Z" fill="#0BE4F2"/>
<path d="M121.873 103.971H126.096V111.01H121.873V103.971Z" fill="#0BE4F2"/>
<path d="M138.766 103.971H134.542V111.01H138.766V103.971Z" fill="#0BE4F2"/>
<rect x="127.423" y="70.0637" width="23.1678" height="22.5243" fill="black"/>
<rect x="128.871" y="71.4715" width="20.2719" height="19.7088" fill="#0BE4F2"/>
<path d="M144.799 71.4715H146.247V79.9181H149.143V81.3259H141.903V91.1803H140.455V81.3259H137.559V91.1803H136.111V81.3259H128.871V79.9181H131.767V71.4715H133.215V79.9181H144.799V71.4715Z" fill="#183C5C"/>
<path d="M134.663 72.8793H143.351V78.5103H134.663V72.8793Z" fill="#0BE4F2"/>
<path d="M130.319 82.7337H134.663V89.7725H130.319V82.7337Z" fill="#0BE4F2"/>
<path d="M147.695 82.7337H143.351V89.7725H147.695V82.7337Z" fill="#0BE4F2"/>
<rect x="151.878" y="70.0637" width="22.5243" height="22.5243" fill="black"/>
<rect x="153.286" y="71.4715" width="19.7088" height="19.7088" fill="#0BE4F2"/>
<path d="M168.771 71.4715H170.179V79.9181H172.995V81.3259H165.956V91.1803H164.548V81.3259H161.732V91.1803H160.325V81.3259H153.286V79.9181H156.101V71.4715H157.509V79.9181H168.771V71.4715Z" fill="#183C5C"/>
<path d="M158.917 72.8793H167.364V78.5103H158.917V72.8793Z" fill="#0BE4F2"/>
<path d="M154.694 82.7337H158.917V89.7725H154.694V82.7337Z" fill="#0BE4F2"/>
<path d="M171.587 82.7337H167.364V89.7725H171.587V82.7337Z" fill="#0BE4F2"/>
<rect x="136.433" y="47.5394" width="22.5243" height="22.5243" fill="black"/>
<rect x="137.841" y="48.9472" width="19.7088" height="19.7088" fill="#0BE4F2"/>
<path d="M153.326 48.9472H154.734V57.3938H157.549V58.8016H150.51V68.656H149.103V58.8016H146.287V68.656H144.879V58.8016H137.841V57.3938H140.656V48.9472H142.064V57.3938H153.326V48.9472Z" fill="#183C5C"/>
<path d="M143.472 50.355H151.918V55.9861H143.472V50.355Z" fill="#0BE4F2"/>
<path d="M139.248 60.2094H143.472V67.2482H139.248V60.2094Z" fill="#0BE4F2"/>
<path d="M156.142 60.2094H151.918V67.2482H156.142V60.2094Z" fill="#0BE4F2"/>
<rect x="146.086" y="24.3716" width="22.5243" height="23.1678" fill="black"/>
<rect x="147.494" y="25.8196" width="19.7088" height="20.2719" fill="#0BE4F2"/>
<path d="M162.979 25.8196H164.387V34.5075H167.202V35.9555H160.164V46.0914H158.756V35.9555H155.94V46.0914H154.532V35.9555H147.494V34.5075H150.309V25.8196H151.717V34.5075H162.979V25.8196Z" fill="#183C5C"/>
<path d="M153.125 27.2676H161.571V33.0595H153.125V27.2676Z" fill="#0BE4F2"/>
<path d="M148.901 37.4035H153.125V44.6435H148.901V37.4035Z" fill="#0BE4F2"/>
<path d="M165.795 37.4035H161.571V44.6435H165.795V37.4035Z" fill="#0BE4F2"/>
<rect width="22.5243" height="22.5243" transform="matrix(-1 0 0 1 208.51 91.3009)" fill="black"/>
<rect width="19.7088" height="19.7088" transform="matrix(-1 0 0 1 207.103 92.7087)" fill="#0BE4F2"/>
<path d="M191.617 92.7087H190.21V101.155H187.394V102.563H194.433V112.417H195.841V102.563H198.656V112.417H200.064V102.563H207.103V101.155H204.287V92.7087H202.879V101.155H191.617V92.7087Z" fill="#183C5C"/>
<path d="M201.472 94.1165H193.025V99.7475H201.472V94.1165Z" fill="#0BE4F2"/>
<path d="M205.695 103.971H201.472V111.01H205.695V103.971Z" fill="#0BE4F2"/>
<path d="M188.802 103.971H193.025V111.01H188.802V103.971Z" fill="#0BE4F2"/>
<rect width="22.5243" height="22.5243" transform="matrix(-1 0 0 1 200.145 70.0637)" fill="black"/>
<rect width="19.7088" height="19.7088" transform="matrix(-1 0 0 1 198.737 71.4715)" fill="#0BE4F2"/>
<path d="M183.251 71.4715H181.844V79.9181H179.028V81.3259H186.067V91.1803H187.475V81.3259H190.29V91.1803H191.698V81.3259H198.737V79.9181H195.921V71.4715H194.514V79.9181H183.251V71.4715Z" fill="#183C5C"/>
<path d="M193.106 72.8793H184.659V78.5103H193.106V72.8793Z" fill="#0BE4F2"/>
<path d="M197.329 82.7337H193.106V89.7725H197.329V82.7337Z" fill="#0BE4F2"/>
<path d="M180.436 82.7337H184.659V89.7725H180.436V82.7337Z" fill="#0BE4F2"/>
<rect width="23.1678" height="22.5243" transform="matrix(-1 0 0 1 191.778 47.5394)" fill="black"/>
<rect width="20.2719" height="19.7088" transform="matrix(-1 0 0 1 190.33 48.9472)" fill="#0BE4F2"/>
<path d="M174.402 48.9472H172.954V57.3938H170.058V58.8016H177.298V68.656H178.746V58.8016H181.642V68.656H183.09V58.8016H190.33V57.3938H187.434V48.9472H185.986V57.3938H174.402V48.9472Z" fill="#183C5C"/>
<path d="M184.538 50.355H175.85V55.9861H184.538V50.355Z" fill="#0BE4F2"/>
<path d="M188.882 60.2094H184.538V67.2482H188.882V60.2094Z" fill="#0BE4F2"/>
<path d="M171.506 60.2094H175.85V67.2482H171.506V60.2094Z" fill="#0BE4F2"/>
<rect width="22.5243" height="23.1678" transform="matrix(-1 0 0 1 181.481 24.3716)" fill="black"/>
<rect width="19.7088" height="20.2719" transform="matrix(-1 0 0 1 180.074 25.8196)" fill="#0BE4F2"/>
<path d="M164.588 25.8196H163.181V34.5075H160.365V35.9555H167.404V46.0914H168.812V35.9555H171.627V46.0914H173.035V35.9555H180.074V34.5075H177.258V25.8196H175.85V34.5075H164.588V25.8196Z" fill="#183C5C"/>
<path d="M174.443 27.2676H165.996V33.0595H174.443V27.2676Z" fill="#0BE4F2"/>
<path d="M178.666 37.4035H174.443V44.6435H178.666V37.4035Z" fill="#0BE4F2"/>
<path d="M161.773 37.4035H165.996V44.6435H161.773V37.4035Z" fill="#0BE4F2"/>
<rect x="150.591" y="1.84729" width="22.5243" height="22.5243" fill="black"/>
<rect x="151.999" y="3.25507" width="19.7088" height="19.7088" fill="#0BE4F2"/>
<path d="M167.484 3.25507H168.892V11.7017H171.708V13.1094H164.669V22.9638H163.261V13.1094H160.445V22.9638H159.038V13.1094H151.999V11.7017H154.814V3.25507H156.222V11.7017H167.484V3.25507Z" fill="#183C5C"/>
<path d="M157.63 4.66284H166.076V10.2939H157.63V4.66284Z" fill="#0BE4F2"/>
<path d="M153.406 14.5172H157.63V21.5561H153.406V14.5172Z" fill="#0BE4F2"/>
<path d="M170.3 14.5172H166.076V21.5561H170.3V14.5172Z" fill="#0BE4F2"/>
<rect x="333.36" y="94.5187" width="22.5243" height="22.5243" fill="black"/>
<rect x="334.767" y="95.9265" width="19.7088" height="19.7088" fill="#0BE4F2"/>
<path d="M350.253 95.9265H351.661V104.373H354.476V105.781H347.437V115.635H346.029V105.781H343.214V115.635H341.806V105.781H334.767V104.373H337.583V95.9265H338.991V104.373H350.253V95.9265Z" fill="#183C5C"/>
<path d="M340.398 97.3342H348.845V102.965H340.398V97.3342Z" fill="#0BE4F2"/>
<path d="M336.175 107.189H340.398V114.227H336.175V107.189Z" fill="#0BE4F2"/>
<path d="M353.068 107.189H348.845V114.227H353.068V107.189Z" fill="#0BE4F2"/>
<rect x="341.726" y="72.6379" width="23.1678" height="23.1678" fill="black"/>
<rect x="343.174" y="74.0859" width="20.2719" height="20.2719" fill="#0BE4F2"/>
<path d="M359.101 74.0859H360.549V82.7739H363.445V84.2219H356.205V94.3578H354.758V84.2219H351.862V94.3578H350.414V84.2219H343.174V82.7739H346.07V74.0859H347.518V82.7739H359.101V74.0859Z" fill="#183C5C"/>
<path d="M348.966 75.5339H357.653V81.3259H348.966V75.5339Z" fill="#0BE4F2"/>
<path d="M344.622 85.6699H348.966V92.9098H344.622V85.6699Z" fill="#0BE4F2"/>
<path d="M361.997 85.6699H357.653V92.9098H361.997V85.6699Z" fill="#0BE4F2"/>
<rect x="366.181" y="72.6379" width="22.5243" height="23.1678" fill="black"/>
<rect x="367.588" y="74.0859" width="19.7088" height="20.2719" fill="#0BE4F2"/>
<path d="M383.074 74.0859H384.482V82.7739H387.297V84.2219H380.258V94.3578H378.851V84.2219H376.035V94.3578H374.627V84.2219H367.588V82.7739H370.404V74.0859H371.812V82.7739H383.074V74.0859Z" fill="#183C5C"/>
<path d="M373.219 75.5339H381.666V81.3259H373.219V75.5339Z" fill="#0BE4F2"/>
<path d="M368.996 85.6699H373.219V92.9098H368.996V85.6699Z" fill="#0BE4F2"/>
<path d="M385.889 85.6699H381.666V92.9098H385.889V85.6699Z" fill="#0BE4F2"/>
<rect x="350.735" y="50.1136" width="22.5243" height="22.5243" fill="black"/>
<rect x="352.143" y="51.5214" width="19.7088" height="19.7088" fill="#0BE4F2"/>
<path d="M367.629 51.5214H369.036V59.968H371.852V61.3758H364.813V71.2302H363.405V61.3758H360.59V71.2302H359.182V61.3758H352.143V59.968H354.959V51.5214H356.366V59.968H367.629V51.5214Z" fill="#183C5C"/>
<path d="M357.774 52.9292H366.221V58.5603H357.774V52.9292Z" fill="#0BE4F2"/>
<path d="M353.551 62.7836H357.774V69.8224H353.551V62.7836Z" fill="#0BE4F2"/>
<path d="M370.444 62.7836H366.221V69.8224H370.444V62.7836Z" fill="#0BE4F2"/>
<rect x="360.389" y="27.5893" width="22.5243" height="22.5243" fill="black"/>
<rect x="361.796" y="28.9971" width="19.7088" height="19.7088" fill="#0BE4F2"/>
<path d="M377.282 28.9971H378.69V37.4437H381.505V38.8514H374.466V48.7058H373.059V38.8514H370.243V48.7058H368.835V38.8514H361.796V37.4437H364.612V28.9971H366.02V37.4437H377.282V28.9971Z" fill="#183C5C"/>
<path d="M367.427 30.4048H375.874V36.0359H367.427V30.4048Z" fill="#0BE4F2"/>
<path d="M363.204 40.2592H367.427V47.2981H363.204V40.2592Z" fill="#0BE4F2"/>
<path d="M380.097 40.2592H375.874V47.2981H380.097V40.2592Z" fill="#0BE4F2"/>
<rect width="22.5243" height="22.5243" transform="matrix(-1 0 0 1 422.813 94.5187)" fill="black"/>
<rect width="19.7088" height="19.7088" transform="matrix(-1 0 0 1 421.406 95.9265)" fill="#0BE4F2"/>
<path d="M405.92 95.9265H404.512V104.373H401.697V105.781H408.736V115.635H410.143V105.781H412.959V115.635H414.367V105.781H421.406V104.373H418.59V95.9265H417.182V104.373H405.92V95.9265Z" fill="#183C5C"/>
<path d="M415.774 97.3342H407.328V102.965H415.774V97.3342Z" fill="#0BE4F2"/>
<path d="M419.998 107.189H415.774V114.227H419.998V107.189Z" fill="#0BE4F2"/>
<path d="M403.105 107.189H407.328V114.227H403.105V107.189Z" fill="#0BE4F2"/>
<rect width="22.5243" height="23.1678" transform="matrix(-1 0 0 1 414.447 72.6379)" fill="black"/>
<rect width="19.7088" height="20.2719" transform="matrix(-1 0 0 1 413.039 74.0859)" fill="#0BE4F2"/>
<path d="M397.554 74.0859H396.146V82.7739H393.331V84.2219H400.369V94.3578H401.777V84.2219H404.593V94.3578H406V84.2219H413.039V82.7739H410.224V74.0859H408.816V82.7739H397.554V74.0859Z" fill="#183C5C"/>
<path d="M407.408 75.5339H398.962V81.3259H407.408V75.5339Z" fill="#0BE4F2"/>
<path d="M411.631 85.6699H407.408V92.9098H411.631V85.6699Z" fill="#0BE4F2"/>
<path d="M394.738 85.6699H398.962V92.9098H394.738V85.6699Z" fill="#0BE4F2"/>
<rect width="23.1678" height="22.5243" transform="matrix(-1 0 0 1 406.081 50.1136)" fill="black"/>
<rect width="20.2719" height="19.7088" transform="matrix(-1 0 0 1 404.633 51.5214)" fill="#0BE4F2"/>
<path d="M388.705 51.5214H387.257V59.968H384.361V61.3758H391.601V71.2302H393.049V61.3758H395.945V71.2302H397.393V61.3758H404.633V59.968H401.737V51.5214H400.289V59.968H388.705V51.5214Z" fill="#183C5C"/>
<path d="M398.841 52.9292H390.153V58.5603H398.841V52.9292Z" fill="#0BE4F2"/>
<path d="M403.185 62.7836H398.841V69.8224H403.185V62.7836Z" fill="#0BE4F2"/>
<path d="M385.809 62.7836H390.153V69.8224H385.809V62.7836Z" fill="#0BE4F2"/>
<rect width="22.5243" height="22.5243" transform="matrix(-1 0 0 1 395.784 27.5893)" fill="black"/>
<rect width="19.7088" height="19.7088" transform="matrix(-1 0 0 1 394.376 28.9971)" fill="#0BE4F2"/>
<path d="M378.891 28.9971H377.483V37.4437H374.667V38.8514H381.706V48.7058H383.114V38.8514H385.93V48.7058H387.337V38.8514H394.376V37.4437H391.561V28.9971H390.153V37.4437H378.891V28.9971Z" fill="#183C5C"/>
<path d="M388.745 30.4048H380.299V36.0359H388.745V30.4048Z" fill="#0BE4F2"/>
<path d="M392.969 40.2592H388.745V47.2981H392.969V40.2592Z" fill="#0BE4F2"/>
<path d="M376.075 40.2592H380.299V47.2981H376.075V40.2592Z" fill="#0BE4F2"/>
<rect x="364.894" y="5.06506" width="22.5243" height="22.5243" fill="black"/>
<rect x="366.301" y="6.47284" width="19.7088" height="19.7088" fill="#0BE4F2"/>
<path d="M381.787 6.47284H383.194V14.9194H386.01V16.3272H378.971V26.1816H377.563V16.3272H374.748V26.1816H373.34V16.3272H366.301V14.9194H369.117V6.47284H370.525V14.9194H381.787V6.47284Z" fill="#183C5C"/>
<path d="M371.932 7.88062H380.379V13.5117H371.932V7.88062Z" fill="#0BE4F2"/>
<path d="M367.709 17.735H371.932V24.7738H367.709V17.735Z" fill="#0BE4F2"/>
<path d="M384.602 17.735H380.379V24.7738H384.602V17.735Z" fill="#0BE4F2"/>
<rect x="526.425" y="91.3009" width="22.5243" height="22.5243" fill="black"/>
<rect x="527.833" y="92.7087" width="19.7088" height="19.7088" fill="#0BE4F2"/>
<path d="M543.318 92.7087H544.726V101.155H547.541V102.563H540.503V112.417H539.095V102.563H536.279V112.417H534.871V102.563H527.833V101.155H530.648V92.7087H532.056V101.155H543.318V92.7087Z" fill="#183C5C"/>
<path d="M533.464 94.1165H541.91V99.7475H533.464V94.1165Z" fill="#0BE4F2"/>
<path d="M529.24 103.971H533.464V111.01H529.24V103.971Z" fill="#0BE4F2"/>
<path d="M546.134 103.971H541.91V111.01H546.134V103.971Z" fill="#0BE4F2"/>
<rect x="534.791" y="70.0637" width="22.5243" height="22.5243" fill="black"/>
<rect x="536.199" y="71.4715" width="19.7088" height="19.7088" fill="#0BE4F2"/>
<path d="M551.684 71.4715H553.092V79.9181H555.908V81.3259H548.869V91.1803H547.461V81.3259H544.645V91.1803H543.238V81.3259H536.199V79.9181H539.014V71.4715H540.422V79.9181H551.684V71.4715Z" fill="#183C5C"/>
<path d="M541.83 72.8793H550.277V78.5103H541.83V72.8793Z" fill="#0BE4F2"/>
<path d="M537.607 82.7337H541.83V89.7725H537.607V82.7337Z" fill="#0BE4F2"/>
<path d="M554.5 82.7337H550.277V89.7725H554.5V82.7337Z" fill="#0BE4F2"/>
<rect x="559.246" y="70.0637" width="22.5243" height="22.5243" fill="black"/>
<rect x="560.654" y="71.4715" width="19.7088" height="19.7088" fill="#0BE4F2"/>
<path d="M576.139 71.4715H577.547V79.9181H580.363V81.3259H573.324V91.1803H571.916V81.3259H569.1V91.1803H567.693V81.3259H560.654V79.9181H563.469V71.4715H564.877V79.9181H576.139V71.4715Z" fill="#183C5C"/>
<path d="M566.285 72.8793H574.732V78.5103H566.285V72.8793Z" fill="#0BE4F2"/>
<path d="M562.062 82.7337H566.285V89.7725H562.062V82.7337Z" fill="#0BE4F2"/>
<path d="M578.955 82.7337H574.732V89.7725H578.955V82.7337Z" fill="#0BE4F2"/>
<rect x="543.157" y="47.5394" width="23.1678" height="22.5243" fill="black"/>
<rect x="544.605" y="48.9472" width="20.2719" height="19.7088" fill="#0BE4F2"/>
<path d="M560.533 48.9472H561.981V57.3938H564.877V58.8016H557.637V68.656H556.189V58.8016H553.293V68.656H551.845V58.8016H544.605V57.3938H547.501V48.9472H548.949V57.3938H560.533V48.9472Z" fill="#183C5C"/>
<path d="M550.397 50.355H559.085V55.9861H550.397V50.355Z" fill="#0BE4F2"/>
<path d="M546.053 60.2094H550.397V67.2482H546.053V60.2094Z" fill="#0BE4F2"/>
<path d="M563.429 60.2094H559.085V67.2482H563.429V60.2094Z" fill="#0BE4F2"/>
<rect x="553.454" y="24.3716" width="22.5243" height="23.1678" fill="black"/>
<rect x="554.862" y="25.8196" width="19.7088" height="20.2719" fill="#0BE4F2"/>
<path d="M570.347 25.8196H571.755V34.5075H574.571V35.9555H567.532V46.0914H566.124V35.9555H563.308V46.0914H561.901V35.9555H554.862V34.5075H557.677V25.8196H559.085V34.5075H570.347V25.8196Z" fill="#183C5C"/>
<path d="M560.493 27.2676H568.94V33.0595H560.493V27.2676Z" fill="#0BE4F2"/>
<path d="M556.27 37.4035H560.493V44.6435H556.27V37.4035Z" fill="#0BE4F2"/>
<path d="M573.163 37.4035H568.94V44.6435H573.163V37.4035Z" fill="#0BE4F2"/>
<rect width="22.5243" height="22.5243" transform="matrix(-1 0 0 1 615.878 91.3009)" fill="black"/>
<rect width="19.7088" height="19.7088" transform="matrix(-1 0 0 1 614.471 92.7087)" fill="#0BE4F2"/>
<path d="M598.985 92.7087H597.577V101.155H594.762V102.563H601.801V112.417H603.209V102.563H606.024V112.417H607.432V102.563H614.471V101.155H611.655V92.7087H610.247V101.155H598.985V92.7087Z" fill="#183C5C"/>
<path d="M608.84 94.1165H600.393V99.7475H608.84V94.1165Z" fill="#0BE4F2"/>
<path d="M613.063 103.971H608.84V111.01H613.063V103.971Z" fill="#0BE4F2"/>
<path d="M596.17 103.971H600.393V111.01H596.17V103.971Z" fill="#0BE4F2"/>
<rect width="23.1678" height="22.5243" transform="matrix(-1 0 0 1 607.512 70.0637)" fill="black"/>
<rect width="20.2719" height="19.7088" transform="matrix(-1 0 0 1 606.064 71.4715)" fill="#0BE4F2"/>
<path d="M590.137 71.4715H588.689V79.9181H585.793V81.3259H593.033V91.1803H594.481V81.3259H597.377V91.1803H598.825V81.3259H606.064V79.9181H603.168V71.4715H601.72V79.9181H590.137V71.4715Z" fill="#183C5C"/>
<path d="M600.272 72.8793H591.585V78.5103H600.272V72.8793Z" fill="#0BE4F2"/>
<path d="M604.616 82.7337H600.272V89.7725H604.616V82.7337Z" fill="#0BE4F2"/>
<path d="M587.241 82.7337H591.585V89.7725H587.241V82.7337Z" fill="#0BE4F2"/>
<rect width="22.5243" height="22.5243" transform="matrix(-1 0 0 1 598.503 47.5394)" fill="black"/>
<rect width="19.7088" height="19.7088" transform="matrix(-1 0 0 1 597.095 48.9472)" fill="#0BE4F2"/>
<path d="M581.61 48.9472H580.202V57.3938H577.386V58.8016H584.425V68.656H585.833V58.8016H588.648V68.656H590.056V58.8016H597.095V57.3938H594.279V48.9472H592.872V57.3938H581.61V48.9472Z" fill="#183C5C"/>
<path d="M591.464 50.355H583.017V55.9861H591.464V50.355Z" fill="#0BE4F2"/>
<path d="M595.687 60.2094H591.464V67.2482H595.687V60.2094Z" fill="#0BE4F2"/>
<path d="M578.794 60.2094H583.017V67.2482H578.794V60.2094Z" fill="#0BE4F2"/>
<rect width="22.5243" height="23.1678" transform="matrix(-1 0 0 1 588.85 24.3716)" fill="black"/>
<rect width="19.7088" height="20.2719" transform="matrix(-1 0 0 1 587.442 25.8196)" fill="#0BE4F2"/>
<path d="M571.956 25.8196H570.549V34.5075H567.733V35.9555H574.772V46.0914H576.18V35.9555H578.995V46.0914H580.403V35.9555H587.442V34.5075H584.626V25.8196H583.219V34.5075H571.956V25.8196Z" fill="#183C5C"/>
<path d="M581.811 27.2676H573.364V33.0595H581.811V27.2676Z" fill="#0BE4F2"/>
<path d="M586.034 37.4035H581.811V44.6435H586.034V37.4035Z" fill="#0BE4F2"/>
<path d="M569.141 37.4035H573.364V44.6435H569.141V37.4035Z" fill="#0BE4F2"/>
<rect x="557.315" y="1.84729" width="23.1678" height="22.5243" fill="black"/>
<rect x="558.763" y="3.25507" width="20.2719" height="19.7088" fill="#0BE4F2"/>
<path d="M574.691 3.25507H576.139V11.7017H579.035V13.1094H571.795V22.9638H570.347V13.1094H567.451V22.9638H566.003V13.1094H558.763V11.7017H561.659V3.25507H563.107V11.7017H574.691V3.25507Z" fill="#183C5C"/>
<path d="M564.555 4.66284H573.243V10.2939H564.555V4.66284Z" fill="#0BE4F2"/>
<path d="M560.211 14.5172H564.555V21.5561H560.211V14.5172Z" fill="#0BE4F2"/>
<path d="M577.587 14.5172H573.243V21.5561H577.587V14.5172Z" fill="#0BE4F2"/>
<rect x="92.0278" y="23.0845" width="23.1678" height="23.1678" fill="black"/>
<rect x="93.4758" y="24.5325" width="20.2719" height="20.2719" fill="#0BE4F2"/>
<path d="M109.404 24.5325H110.852V33.2204H113.748V34.6684H106.508V44.8043H105.06V34.6684H102.164V44.8043H100.716V34.6684H93.4758V33.2204H96.3718V24.5325H97.8198V33.2204H109.404V24.5325Z" fill="#183C5C"/>
<path d="M99.2678 25.9805H107.956V31.7724H99.2678V25.9805Z" fill="#0BE4F2"/>
<path d="M94.9238 36.1164H99.2678V43.3564H94.9238V36.1164Z" fill="#0BE4F2"/>
<path d="M112.3 36.1164H107.956V43.3564H112.3V36.1164Z" fill="#0BE4F2"/>
<rect y="68.7766" width="22.5243" height="22.5243" fill="black"/>
<rect x="1.40771" y="70.1844" width="19.7088" height="19.7088" fill="#0BE4F2"/>
<path d="M16.8932 70.1844H18.3009V78.631H21.1165V80.0388H14.0776V89.8931H12.6699V80.0388H9.85432V89.8931H8.44656V80.0388H1.40771V78.631H4.22325V70.1844H5.63102V78.631H16.8932V70.1844Z" fill="#183C5C"/>
<path d="M7.03873 71.5922H15.4853V77.2232H7.03873V71.5922Z" fill="#48EAF6"/>
<path d="M2.81543 81.4465H7.03873V88.4854H2.81543V81.4465Z" fill="#48EAF6"/>
<path d="M19.7086 81.4465H15.4853V88.4854H19.7086V81.4465Z" fill="#48EAF6"/>
<rect width="23.1678" height="22.5243" transform="matrix(-1 0 0 1 115.196 91.3009)" fill="black"/>
<rect width="20.2719" height="19.7088" transform="matrix(-1 0 0 1 113.748 92.7087)" fill="#0BE4F2"/>
<path d="M97.8199 92.7087H96.3719V101.155H93.4759V102.563H100.716V112.417H102.164V102.563H105.06V112.417H106.508V102.563H113.748V101.155H110.852V92.7087H109.404V101.155H97.8199V92.7087Z" fill="#183C5C"/>
<path d="M107.956 94.1165H99.2679V99.7475H107.956V94.1165Z" fill="#0BE4F2"/>
<path d="M112.3 103.971H107.956V111.01H112.3V103.971Z" fill="#0BE4F2"/>
<path d="M94.9239 103.971H99.2679V111.01H94.9239V103.971Z" fill="#0BE4F2"/>
<rect width="22.5243" height="22.5243" transform="matrix(-1 0 0 1 82.3745 46.2523)" fill="black"/>
<rect width="19.7088" height="19.7088" transform="matrix(-1 0 0 1 80.9668 47.6601)" fill="#0BE4F2"/>
<path d="M65.4813 47.6601H64.0736V56.1067H61.258V57.5145H68.2969V67.3689H69.7047V57.5145H72.5202V67.3689H73.928V57.5145H80.9668V56.1067H78.1513V47.6601H76.7435V56.1067H65.4813V47.6601Z" fill="#183C5C"/>
<path d="M75.3358 49.0679H66.8892V54.6989H75.3358V49.0679Z" fill="#48EAF6"/>
<path d="M79.5591 58.9222H75.3358V65.9611H79.5591V58.9222Z" fill="#48EAF6"/>
<path d="M62.6659 58.9222H66.8892V65.9611H62.6659V58.9222Z" fill="#48EAF6"/>
<rect width="22.5243" height="23.1678" transform="matrix(-1 0 0 1 92.0278 23.0845)" fill="black"/>
<rect width="19.7088" height="20.2719" transform="matrix(-1 0 0 1 90.6201 24.5325)" fill="#0BE4F2"/>
<path d="M75.1347 24.5325H73.7269V33.2204H70.9114V34.6684H77.9502V44.8043H79.358V34.6684H82.1735V44.8043H83.5813V34.6684H90.6201V33.2204H87.8046V24.5325H86.3968V33.2204H75.1347V24.5325Z" fill="#183C5C"/>
<path d="M84.9891 25.9805H76.5425V31.7724H84.9891V25.9805Z" fill="#0BE4F2"/>
<path d="M89.2124 36.1164H84.9891V43.3564H89.2124V36.1164Z" fill="#0BE4F2"/>
<path d="M72.3192 36.1164H76.5425V43.3564H72.3192V36.1164Z" fill="#0BE4F2"/>
<rect width="23.1678" height="22.5243" transform="matrix(-1 0 0 1 115.196 0.560181)" fill="black"/>
<rect width="20.2719" height="19.7088" transform="matrix(-1 0 0 1 113.748 1.96796)" fill="#0BE4F2"/>
<path d="M97.8199 1.96796H96.3719V10.4146H93.4759V11.8223H100.716V21.6767H102.164V11.8223H105.06V21.6767H106.508V11.8223H113.748V10.4146H110.852V1.96796H109.404V10.4146H97.8199V1.96796Z" fill="#183C5C"/>
<path d="M107.956 3.37573H99.2679V9.00681H107.956V3.37573Z" fill="#0BE4F2"/>
<path d="M112.3 13.2301H107.956V20.269H112.3V13.2301Z" fill="#0BE4F2"/>
<path d="M94.9239 13.2301H99.2679V20.269H94.9239V13.2301Z" fill="#0BE4F2"/>
<rect width="23.1678" height="22.5243" transform="matrix(-1 0 0 1 115.196 46.2523)" fill="black"/>
<rect width="20.2719" height="19.7088" transform="matrix(-1 0 0 1 113.748 47.6601)" fill="#0BE4F2"/>
<path d="M97.8199 47.6601H96.3719V56.1067H93.4759V57.5145H100.716V67.3689H102.164V57.5145H105.06V67.3689H106.508V57.5145H113.748V56.1067H110.852V47.6601H109.404V56.1067H97.8199V47.6601Z" fill="#183C5C"/>
<path d="M107.956 49.0679H99.2679V54.6989H107.956V49.0679Z" fill="#0BE4F2"/>
<path d="M112.3 58.9222H107.956V65.9611H112.3V58.9222Z" fill="#0BE4F2"/>
<path d="M94.9239 58.9222H99.2679V65.9611H94.9239V58.9222Z" fill="#0BE4F2"/>
<rect width="23.1678" height="22.5243" transform="matrix(-1 0 0 1 115.196 68.7766)" fill="black"/>
<rect width="20.2719" height="19.7088" transform="matrix(-1 0 0 1 113.748 70.1844)" fill="#0BE4F2"/>
<path d="M97.8199 70.1844H96.3719V78.631H93.4759V80.0388H100.716V89.8931H102.164V80.0388H105.06V89.8931H106.508V80.0388H113.748V78.631H110.852V70.1844H109.404V78.631H97.8199V70.1844Z" fill="#183C5C"/>
<path d="M107.956 71.5922H99.2679V77.2232H107.956V71.5922Z" fill="#0BE4F2"/>
<path d="M112.3 81.4465H107.956V88.4854H112.3V81.4465Z" fill="#0BE4F2"/>
<path d="M94.9239 81.4465H99.2679V88.4854H94.9239V81.4465Z" fill="#0BE4F2"/>
</svg>
