<svg width="99" height="115" viewBox="0 0 99 115" fill="none" xmlns="http://www.w3.org/2000/svg">
<path d="M53.625 4.10718H45.375V20.5357H53.625V16.4286H57.75V8.21432H53.625V4.10718Z" fill="#F0D0B0"/>
<path d="M90.75 78.0358V69.8215H94.875V61.6072H24.75V78.0358H66V86.25H86.625V78.0358H90.75Z" fill="#F0D0B0"/>
<path d="M28.875 82.1429V86.25H24.75V90.3572H20.625V82.1429H28.875Z" fill="#F0D0B0"/>
<path d="M37.125 36.9643H41.25V24.6429H86.625V53.3929H78.375V57.5H57.75V53.3929H41.25V45.1786H37.125V36.9643Z" fill="#F0D0B0"/>
<path d="M78.375 4.10718H82.5V12.3215H78.375V4.10718Z" fill="#F0D0B0"/>
<path d="M20.625 94.4643H4.125V110.893H20.625V94.4643Z" fill="#F0D0B0"/>
<path d="M78.375 8.21436H61.875V12.3215H57.75V16.4286H53.625V20.5358H45.375V28.7501H49.5V24.6429H57.75V20.5358H66V16.4286H78.375V8.21436Z" fill="#F83800"/>
<path d="M82.5 69.8215H78.375V65.7144H74.25V61.6072H66V65.7144H70.125V73.9286H82.5V69.8215Z" fill="#F83800"/>
<path d="M53.625 57.5001V61.6072H57.75V65.7144H61.875V73.9286H53.625V78.0358H49.5V69.8215H45.375V65.7144H41.25V61.6072H45.375V57.5001H53.625Z" fill="#F83800"/>
<path d="M37.125 86.2501H28.875V94.4644H24.75V90.3572H20.625V86.2501H12.375V90.3572H8.25V94.4644H12.375V98.5715H16.5V102.679H20.625V94.4644H24.75V106.786H33V102.679H37.125V106.786H45.375V102.679H37.125V98.5715H33V90.3572H37.125V86.2501Z" fill="#F83800"/>
<path d="M12.375 106.786H8.25V102.679H4.125V110.893H12.375V106.786Z" fill="#F83800"/>
<path d="M41.25 0H53.625V4.10714H45.375V28.75H49.5V24.6429H57.75V28.75H53.625V36.9643H57.75V41.0714H53.625V45.1786H49.5V41.0714H45.375V32.8571H41.25V36.9643H37.125V28.75H41.25V0Z" fill="black"/>
<path d="M37.125 45.1786H33V36.9643H37.125V45.1786Z" fill="black"/>
<path d="M41.25 49.2857H37.125V45.1786H41.25V49.2857Z" fill="black"/>
<path d="M37.125 102.679V106.786H45.375V102.679H37.125Z" fill="black"/>
<path fill-rule="evenodd" clip-rule="evenodd" d="M78.375 53.3929V57.5H57.75V53.3929H49.5V49.2857H41.25V53.3929H45.375V57.5H37.125V61.6071H24.75V65.7143H20.625V73.9286H24.75V78.0357H20.625V82.1429H12.375V86.25H8.25V90.3571H4.125V98.5714H0V110.893H4.125V115H16.5V110.893H20.625V106.786H24.75V110.893H33V106.786H37.125V110.893H45.375V106.786H61.875V102.679H74.25V98.5714H82.5V94.4643H86.625V86.25H90.75V73.9286H94.875V69.8214H99V61.6071H94.875V57.5H82.5V53.3929H86.625V49.2857H94.875V45.1786H90.75V36.9643H86.625V28.75H90.75V24.6429H94.875V20.5357H90.75V16.4286H82.5V12.3214H86.625V0H78.375V4.10714H61.875V8.21429H57.75V4.10714H53.625V8.21429H57.75V12.3214H61.875V8.21429H78.375V4.10714H82.5V12.3214H78.375V16.4286H66V20.5357H57.75V24.6429H82.5V36.9643H86.625V45.1786H82.5V49.2857H74.25V45.1786H66V41.0714H61.875V45.1786H57.75V49.2857H66V53.3929H78.375ZM94.875 61.6071V69.8214H86.625V65.7143H82.5V61.6071H94.875ZM86.625 86.25V78.0357H82.5V86.25H86.625ZM37.125 102.679H33V106.786H24.75V94.4643H28.875V86.25H37.125V90.3571H33V98.5714H37.125V102.679ZM28.875 86.25H24.75V94.4643H20.625V106.786H16.5V110.893H4.125V98.5714H8.25V90.3571H12.375V86.25H20.625V82.1429H28.875V86.25ZM45.375 69.8214V78.0357H37.125V73.9286H24.75V65.7143H41.25V69.8214H45.375ZM45.375 69.8214V65.7143H41.25V61.6071H45.375V57.5H53.625V61.6071H57.75V65.7143H61.875V73.9286H53.625V78.0357H49.5V69.8214H45.375ZM74.25 65.7143H78.375V69.8214H82.5V73.9286H70.125V65.7143H66V61.6071H74.25V65.7143ZM66 78.0357H74.25V86.25H66V78.0357Z" fill="black"/>
<path d="M74.25 28.75H78.375V36.9643H74.25V28.75Z" fill="black"/>
<path d="M70.125 28.75H66V36.9643H70.125V28.75Z" fill="black"/>
</svg>
