<svg width="634" height="122" viewBox="0 0 634 122" fill="none" xmlns="http://www.w3.org/2000/svg">
<rect x="164.154" y="5.44647" width="21.7858" height="21.7858" fill="black"/>
<rect x="165.516" y="6.80811" width="19.0626" height="19.0626" fill="#0BE4F2"/>
<path d="M180.493 6.80811H181.855V14.9778H184.578V16.3394H177.77V25.8707H176.408V16.3394H173.685V25.8707H172.324V16.3394H165.516V14.9778H168.239V6.80811H169.6V14.9778H180.493V6.80811Z" fill="#183C5C"/>
<path d="M170.962 8.16968H179.132V13.6161H170.962V8.16968Z" fill="#48EAF6"/>
<path d="M166.877 17.701H170.962V24.509H166.877V17.701Z" fill="#48EAF6"/>
<path d="M183.217 17.701H179.132V24.509H183.217V17.701Z" fill="#48EAF6"/>
<rect x="164.154" y="49.0181" width="21.7858" height="21.7858" fill="black"/>
<rect x="165.516" y="50.3797" width="19.0626" height="19.0626" fill="#0BE4F2"/>
<path d="M180.493 50.3797H181.855V58.5494H184.578V59.911H177.77V69.4423H176.408V59.911H173.685V69.4423H172.324V59.911H165.516V58.5494H168.239V50.3797H169.6V58.5494H180.493V50.3797Z" fill="#183C5C"/>
<path d="M170.962 51.7413H179.132V57.1877H170.962V51.7413Z" fill="#48EAF6"/>
<path d="M166.877 61.2726H170.962V68.0806H166.877V61.2726Z" fill="#48EAF6"/>
<path d="M183.217 61.2726H179.132V68.0806H183.217V61.2726Z" fill="#48EAF6"/>
<rect x="164.154" y="70.8038" width="21.7858" height="21.7858" fill="black"/>
<rect x="165.516" y="72.1655" width="19.0626" height="19.0626" fill="#0BE4F2"/>
<path d="M180.493 72.1655H181.855V80.3351H184.578V81.6968H177.77V91.228H176.408V81.6968H173.685V91.228H172.324V81.6968H165.516V80.3351H168.239V72.1655H169.6V80.3351H180.493V72.1655Z" fill="#183C5C"/>
<path d="M170.962 73.527H179.132V78.9735H170.962V73.527Z" fill="#48EAF6"/>
<path d="M166.877 83.0583H170.962V89.8664H166.877V83.0583Z" fill="#48EAF6"/>
<path d="M183.217 83.0583H179.132V89.8664H183.217V83.0583Z" fill="#48EAF6"/>
<rect x="164.154" y="92.5896" width="21.7858" height="21.7858" fill="black"/>
<rect x="165.516" y="93.9512" width="19.0626" height="19.0626" fill="#0BE4F2"/>
<path d="M180.493 93.9512H181.855V102.121H184.578V103.483H177.77V113.014H176.408V103.483H173.685V113.014H172.324V103.483H165.516V102.121H168.239V93.9512H169.6V102.121H180.493V93.9512Z" fill="#183C5C"/>
<path d="M170.962 95.3128H179.132V100.759H170.962V95.3128Z" fill="#48EAF6"/>
<path d="M166.877 104.844H170.962V111.652H166.877V104.844Z" fill="#48EAF6"/>
<path d="M183.217 104.844H179.132V111.652H183.217V104.844Z" fill="#48EAF6"/>
<rect x="383.374" y="12.2545" width="21.7858" height="21.7858" fill="black"/>
<rect x="384.735" y="13.6161" width="19.0626" height="19.0626" fill="#0BE4F2"/>
<path d="M399.713 13.6161H401.074V21.7858H403.798V23.1474H396.99V32.6787H395.628V23.1474H392.905V32.6787H391.543V23.1474H384.735V21.7858H387.458V13.6161H388.82V21.7858H399.713V13.6161Z" fill="#183C5C"/>
<path d="M390.182 14.9777H398.351V20.4241H390.182V14.9777Z" fill="#48EAF6"/>
<path d="M386.097 24.5089H390.182V31.317H386.097V24.5089Z" fill="#48EAF6"/>
<path d="M402.436 24.5089H398.351V31.317H402.436V24.5089Z" fill="#48EAF6"/>
<rect x="361.588" y="2.72327" width="21.7858" height="21.7858" fill="black"/>
<rect x="362.949" y="4.0849" width="19.0626" height="19.0626" fill="#0BE4F2"/>
<path d="M377.927 4.0849H379.289V12.2546H382.012V13.6162H375.204V23.1475H373.842V13.6162H371.119V23.1475H369.757V13.6162H362.949V12.2546H365.672V4.0849H367.034V12.2546H377.927V4.0849Z" fill="#183C5C"/>
<path d="M368.396 5.44647H376.565V10.8929H368.396V5.44647Z" fill="#48EAF6"/>
<path d="M364.311 14.9778H368.396V21.7858H364.311V14.9778Z" fill="#48EAF6"/>
<path d="M380.65 14.9778H376.565V21.7858H380.65V14.9778Z" fill="#48EAF6"/>
<rect x="362.949" y="96.6744" width="21.7858" height="21.7858" fill="black"/>
<rect x="364.311" y="98.0361" width="19.0626" height="19.0626" fill="#0BE4F2"/>
<path d="M379.289 98.0361H380.65V106.206H383.374V107.567H376.566V117.099H375.204V107.567H372.481V117.099H371.119V107.567H364.311V106.206H367.034V98.0361H368.396V106.206H379.289V98.0361Z" fill="#183C5C"/>
<path d="M369.758 99.3976H377.927V104.844H369.758V99.3976Z" fill="#48EAF6"/>
<path d="M365.673 108.929H369.758V115.737H365.673V108.929Z" fill="#48EAF6"/>
<path d="M382.012 108.929H377.927V115.737H382.012V108.929Z" fill="#48EAF6"/>
<rect x="339.802" y="13.6161" width="21.7858" height="21.7858" fill="black"/>
<rect x="341.164" y="14.9778" width="19.0626" height="19.0626" fill="#0BE4F2"/>
<path d="M356.141 14.9778H357.503V23.1475H360.226V24.5091H353.418V34.0404H352.056V24.5091H349.333V34.0404H347.972V24.5091H341.164V23.1475H343.887V14.9778H345.248V23.1475H356.141V14.9778Z" fill="#183C5C"/>
<path d="M346.61 16.3394H354.78V21.7858H346.61V16.3394Z" fill="#48EAF6"/>
<path d="M342.525 25.8706H346.61V32.6787H342.525V25.8706Z" fill="#48EAF6"/>
<path d="M358.865 25.8706H354.78V32.6787H358.865V25.8706Z" fill="#48EAF6"/>
<rect x="319.378" y="34.0403" width="21.7858" height="21.7858" fill="black"/>
<rect x="320.739" y="35.4019" width="19.0626" height="19.0626" fill="#0BE4F2"/>
<path d="M335.717 35.4019H337.079V43.5716H339.802V44.9332H332.994V54.4645H331.632V44.9332H328.909V54.4645H327.547V44.9332H320.739V43.5716H323.463V35.4019H324.824V43.5716H335.717V35.4019Z" fill="#183C5C"/>
<path d="M326.186 36.7635H334.356V42.2099H326.186V36.7635Z" fill="#48EAF6"/>
<path d="M322.101 46.2948H326.186V53.1028H322.101V46.2948Z" fill="#48EAF6"/>
<path d="M338.44 46.2948H334.356V53.1028H338.44V46.2948Z" fill="#48EAF6"/>
<rect x="341.164" y="85.7816" width="21.7858" height="21.7858" fill="black"/>
<rect x="342.525" y="87.1432" width="19.0626" height="19.0626" fill="#0BE4F2"/>
<path d="M357.503 87.1432H358.864V95.3129H361.588V96.6745H354.78V106.206H353.418V96.6745H350.695V106.206H349.333V96.6745H342.525V95.3129H345.248V87.1432H346.61V95.3129H357.503V87.1432Z" fill="#183C5C"/>
<path d="M347.972 88.5048H356.141V93.9512H347.972V88.5048Z" fill="#48EAF6"/>
<path d="M343.887 98.036H347.972V104.844H343.887V98.036Z" fill="#48EAF6"/>
<path d="M360.226 98.036H356.141V104.844H360.226V98.036Z" fill="#48EAF6"/>
<rect x="319.378" y="55.8261" width="21.7858" height="21.7858" fill="black"/>
<rect x="320.739" y="57.1877" width="19.0626" height="19.0626" fill="#0BE4F2"/>
<path d="M335.717 57.1877H337.079V65.3574H339.802V66.719H332.994V76.2503H331.632V66.719H328.909V76.2503H327.547V66.719H320.739V65.3574H323.463V57.1877H324.824V65.3574H335.717V57.1877Z" fill="#183C5C"/>
<path d="M326.186 58.5493H334.356V63.9958H326.186V58.5493Z" fill="#48EAF6"/>
<path d="M322.101 68.0806H326.186V74.8887H322.101V68.0806Z" fill="#48EAF6"/>
<path d="M338.44 68.0806H334.356V74.8887H338.44V68.0806Z" fill="#48EAF6"/>
<rect x="319.378" y="77.6119" width="21.7858" height="21.7858" fill="black"/>
<rect x="320.739" y="78.9736" width="19.0626" height="19.0626" fill="#0BE4F2"/>
<path d="M335.717 78.9736H337.079V87.1432H339.802V88.5049H332.994V98.0361H331.632V88.5049H328.909V98.0361H327.547V88.5049H320.739V87.1432H323.463V78.9736H324.824V87.1432H335.717V78.9736Z" fill="#183C5C"/>
<path d="M326.186 80.3351H334.356V85.7816H326.186V80.3351Z" fill="#48EAF6"/>
<path d="M322.101 89.8664H326.186V96.6745H322.101V89.8664Z" fill="#48EAF6"/>
<path d="M338.44 89.8664H334.356V96.6745H338.44V89.8664Z" fill="#48EAF6"/>
<rect x="384.735" y="84.4199" width="21.7858" height="21.7858" fill="black"/>
<rect x="386.097" y="85.7816" width="19.0626" height="19.0626" fill="#0BE4F2"/>
<path d="M401.074 85.7816H402.436V93.9512H405.159V95.3128H398.351V104.844H396.99V95.3128H394.266V104.844H392.905V95.3128H386.097V93.9512H388.82V85.7816H390.182V93.9512H401.074V85.7816Z" fill="#183C5C"/>
<path d="M391.543 87.1431H399.713V92.5896H391.543V87.1431Z" fill="#48EAF6"/>
<path d="M387.458 96.6744H391.543V103.482H387.458V96.6744Z" fill="#48EAF6"/>
<path d="M403.798 96.6744H399.713V103.482H403.798V96.6744Z" fill="#48EAF6"/>
<rect x="511.365" y="12.2545" width="21.7858" height="21.7858" fill="black"/>
<rect x="512.727" y="13.6161" width="19.0626" height="19.0626" fill="#0BE4F2"/>
<path d="M527.704 13.6161H529.066V21.7858H531.789V23.1474H524.981V32.6787H523.62V23.1474H520.896V32.6787H519.535V23.1474H512.727V21.7858H515.45V13.6161H516.812V21.7858H527.704V13.6161Z" fill="#183C5C"/>
<path d="M518.173 14.9777H526.343V20.4241H518.173V14.9777Z" fill="#48EAF6"/>
<path d="M514.088 24.5089H518.173V31.317H514.088V24.5089Z" fill="#48EAF6"/>
<path d="M530.428 24.5089H526.343V31.317H530.428V24.5089Z" fill="#48EAF6"/>
<rect x="489.579" width="21.7858" height="21.7858" fill="black"/>
<rect x="490.941" y="1.36163" width="19.0626" height="19.0626" fill="#0BE4F2"/>
<path d="M505.919 1.36163H507.28V9.53131H510.003V10.8929H503.195V20.4242H501.834V10.8929H499.111V20.4242H497.749V10.8929H490.941V9.53131H493.664V1.36163H495.026V9.53131H505.919V1.36163Z" fill="#183C5C"/>
<path d="M496.387 2.72321H504.557V8.16965H496.387V2.72321Z" fill="#48EAF6"/>
<path d="M492.303 12.2545H496.387V19.0626H492.303V12.2545Z" fill="#48EAF6"/>
<path d="M508.642 12.2545H504.557V19.0626H508.642V12.2545Z" fill="#48EAF6"/>
<rect x="490.941" y="99.3977" width="21.7858" height="21.7858" fill="black"/>
<rect x="492.302" y="100.759" width="19.0626" height="19.0626" fill="#0BE4F2"/>
<path d="M507.28 100.759H508.642V108.929H511.365V110.291H504.557V119.822H503.195V110.291H500.472V119.822H499.111V110.291H492.302V108.929H495.026V100.759H496.387V108.929H507.28V100.759Z" fill="#183C5C"/>
<path d="M497.749 102.121H505.919V107.567H497.749V102.121Z" fill="#48EAF6"/>
<path d="M493.664 111.652H497.749V118.46H493.664V111.652Z" fill="#48EAF6"/>
<path d="M510.004 111.652H505.919V118.46H510.004V111.652Z" fill="#48EAF6"/>
<rect x="467.794" y="13.6161" width="21.7858" height="21.7858" fill="black"/>
<rect x="469.155" y="14.9778" width="19.0626" height="19.0626" fill="#0BE4F2"/>
<path d="M484.133 14.9778H485.494V23.1475H488.218V24.5091H481.41V34.0404H480.048V24.5091H477.325V34.0404H475.963V24.5091H469.155V23.1475H471.878V14.9778H473.24V23.1475H484.133V14.9778Z" fill="#183C5C"/>
<path d="M474.602 16.3394H482.771V21.7858H474.602V16.3394Z" fill="#48EAF6"/>
<path d="M470.517 25.8706H474.602V32.6787H470.517V25.8706Z" fill="#48EAF6"/>
<path d="M486.856 25.8706H482.771V32.6787H486.856V25.8706Z" fill="#48EAF6"/>
<rect x="447.369" y="34.0403" width="21.7858" height="21.7858" fill="black"/>
<rect x="448.731" y="35.4019" width="19.0626" height="19.0626" fill="#0BE4F2"/>
<path d="M463.709 35.4019H465.07V43.5716H467.794V44.9332H460.985V54.4645H459.624V44.9332H456.901V54.4645H455.539V44.9332H448.731V43.5716H451.454V35.4019H452.816V43.5716H463.709V35.4019Z" fill="#183C5C"/>
<path d="M454.177 36.7635H462.347V42.2099H454.177V36.7635Z" fill="#48EAF6"/>
<path d="M450.093 46.2948H454.177V53.1028H450.093V46.2948Z" fill="#48EAF6"/>
<path d="M466.432 46.2948H462.347V53.1028H466.432V46.2948Z" fill="#48EAF6"/>
<rect x="469.155" y="85.7816" width="21.7858" height="21.7858" fill="black"/>
<rect x="470.517" y="87.1432" width="19.0626" height="19.0626" fill="#0BE4F2"/>
<path d="M485.494 87.1432H486.856V95.3129H489.579V96.6745H482.771V106.206H481.41V96.6745H478.686V106.206H477.325V96.6745H470.517V95.3129H473.24V87.1432H474.602V95.3129H485.494V87.1432Z" fill="#183C5C"/>
<path d="M475.963 88.5048H484.133V93.9512H475.963V88.5048Z" fill="#48EAF6"/>
<path d="M471.878 98.036H475.963V104.844H471.878V98.036Z" fill="#48EAF6"/>
<path d="M488.218 98.036H484.133V104.844H488.218V98.036Z" fill="#48EAF6"/>
<rect x="447.369" y="55.8261" width="21.7858" height="21.7858" fill="black"/>
<rect x="448.731" y="57.1877" width="19.0626" height="19.0626" fill="#0BE4F2"/>
<path d="M463.709 57.1877H465.07V65.3574H467.794V66.719H460.985V76.2503H459.624V66.719H456.901V76.2503H455.539V66.719H448.731V65.3574H451.454V57.1877H452.816V65.3574H463.709V57.1877Z" fill="#183C5C"/>
<path d="M454.177 58.5493H462.347V63.9958H454.177V58.5493Z" fill="#48EAF6"/>
<path d="M450.093 68.0806H454.177V74.8887H450.093V68.0806Z" fill="#48EAF6"/>
<path d="M466.432 68.0806H462.347V74.8887H466.432V68.0806Z" fill="#48EAF6"/>
<rect x="447.369" y="77.6119" width="21.7858" height="21.7858" fill="black"/>
<rect x="448.731" y="78.9736" width="19.0626" height="19.0626" fill="#0BE4F2"/>
<path d="M463.709 78.9736H465.07V87.1432H467.794V88.5049H460.985V98.0361H459.624V88.5049H456.901V98.0361H455.539V88.5049H448.731V87.1432H451.454V78.9736H452.816V87.1432H463.709V78.9736Z" fill="#183C5C"/>
<path d="M454.177 80.3351H462.347V85.7816H454.177V80.3351Z" fill="#48EAF6"/>
<path d="M450.093 89.8664H454.177V96.6745H450.093V89.8664Z" fill="#48EAF6"/>
<path d="M466.432 89.8664H462.347V96.6745H466.432V89.8664Z" fill="#48EAF6"/>
<rect x="533.151" y="31.3171" width="21.7858" height="21.7858" fill="black"/>
<rect x="534.512" y="32.6787" width="19.0626" height="19.0626" fill="#0BE4F2"/>
<path d="M549.49 32.6787H550.852V40.8484H553.575V42.21H546.767V51.7413H545.405V42.21H542.682V51.7413H541.321V42.21H534.512V40.8484H537.236V32.6787H538.597V40.8484H549.49V32.6787Z" fill="#183C5C"/>
<path d="M539.959 34.0403H548.129V39.4867H539.959V34.0403Z" fill="#48EAF6"/>
<path d="M535.874 43.5716H539.959V50.3796H535.874V43.5716Z" fill="#48EAF6"/>
<path d="M552.213 43.5716H548.129V50.3796H552.213V43.5716Z" fill="#48EAF6"/>
<rect x="609.401" y="13.6161" width="21.7858" height="21.7858" fill="black"/>
<rect x="610.763" y="14.9778" width="19.0626" height="19.0626" fill="#0BE4F2"/>
<path d="M625.74 14.9778H627.102V23.1475H629.825V24.5091H623.017V34.0404H621.656V24.5091H618.932V34.0404H617.571V24.5091H610.763V23.1475H613.486V14.9778H614.848V23.1475H625.74V14.9778Z" fill="#183C5C"/>
<path d="M616.209 16.3394H624.379V21.7858H616.209V16.3394Z" fill="#48EAF6"/>
<path d="M612.124 25.8706H616.209V32.6787H612.124V25.8706Z" fill="#48EAF6"/>
<path d="M628.464 25.8706H624.379V32.6787H628.464V25.8706Z" fill="#48EAF6"/>
<rect x="587.615" y="1.36157" width="21.7858" height="21.7858" fill="black"/>
<rect x="588.977" y="2.72321" width="19.0626" height="19.0626" fill="#0BE4F2"/>
<path d="M603.955 2.72321H605.316V10.8929H608.04V12.2545H601.232V21.7858H599.87V12.2545H597.147V21.7858H595.785V12.2545H588.977V10.8929H591.7V2.72321H593.062V10.8929H603.955V2.72321Z" fill="#183C5C"/>
<path d="M594.424 4.08478H602.593V9.53123H594.424V4.08478Z" fill="#48EAF6"/>
<path d="M590.339 13.6161H594.424V20.4241H590.339V13.6161Z" fill="#48EAF6"/>
<path d="M606.678 13.6161H602.593V20.4241H606.678V13.6161Z" fill="#48EAF6"/>
<rect x="560.383" y="34.0403" width="21.7858" height="21.7858" fill="black"/>
<rect x="561.745" y="35.4019" width="19.0626" height="19.0626" fill="#0BE4F2"/>
<path d="M576.722 35.4019H578.084V43.5716H580.807V44.9332H573.999V54.4645H572.638V44.9332H569.914V54.4645H568.553V44.9332H561.745V43.5716H564.468V35.4019H565.829V43.5716H576.722V35.4019Z" fill="#183C5C"/>
<path d="M567.191 36.7635H575.361V42.2099H567.191V36.7635Z" fill="#48EAF6"/>
<path d="M563.106 46.2948H567.191V53.1028H563.106V46.2948Z" fill="#48EAF6"/>
<path d="M579.446 46.2948H575.361V53.1028H579.446V46.2948Z" fill="#48EAF6"/>
<rect x="582.169" y="46.2948" width="21.7858" height="21.7858" fill="black"/>
<rect x="583.531" y="47.6564" width="19.0626" height="19.0626" fill="#0BE4F2"/>
<path d="M598.508 47.6564H599.87V55.8261H602.593V57.1877H595.785V66.719H594.423V57.1877H591.7V66.719H590.339V57.1877H583.531V55.8261H586.254V47.6564H587.615V55.8261H598.508V47.6564Z" fill="#183C5C"/>
<path d="M588.977 49.018H597.147V54.4645H588.977V49.018Z" fill="#48EAF6"/>
<path d="M584.892 58.5493H588.977V65.3574H584.892V58.5493Z" fill="#48EAF6"/>
<path d="M601.232 58.5493H597.147V65.3574H601.232V58.5493Z" fill="#48EAF6"/>
<rect x="598.508" y="89.8665" width="21.7858" height="21.7858" fill="black"/>
<rect x="599.87" y="91.2281" width="19.0626" height="19.0626" fill="#0BE4F2"/>
<path d="M614.848 91.2281H616.209V99.3978H618.932V100.759H612.124V110.291H610.763V100.759H608.04V110.291H606.678V100.759H599.87V99.3978H602.593V91.2281H603.955V99.3978H614.848V91.2281Z" fill="#183C5C"/>
<path d="M605.316 92.5897H613.486V98.0361H605.316V92.5897Z" fill="#48EAF6"/>
<path d="M601.232 102.121H605.316V108.929H601.232V102.121Z" fill="#48EAF6"/>
<path d="M617.571 102.121H613.486V108.929H617.571V102.121Z" fill="#48EAF6"/>
<rect x="578.084" y="95.3128" width="21.7858" height="21.7858" fill="black"/>
<rect x="579.446" y="96.6744" width="19.0626" height="19.0626" fill="#0BE4F2"/>
<path d="M594.423 96.6744H595.785V104.844H598.508V106.206H591.7V115.737H590.339V106.206H587.615V115.737H586.254V106.206H579.446V104.844H582.169V96.6744H583.531V104.844H594.423V96.6744Z" fill="#183C5C"/>
<path d="M584.892 98.036H593.062V103.482H584.892V98.036Z" fill="#48EAF6"/>
<path d="M580.807 107.567H584.892V114.375H580.807V107.567Z" fill="#48EAF6"/>
<path d="M597.147 107.567H593.062V114.375H597.147V107.567Z" fill="#48EAF6"/>
<rect x="561.745" y="77.6119" width="21.7858" height="21.7858" fill="black"/>
<rect x="563.106" y="78.9736" width="19.0626" height="19.0626" fill="#0BE4F2"/>
<path d="M578.084 78.9736H579.446V87.1432H582.169V88.5049H575.361V98.0361H573.999V88.5049H571.276V98.0361H569.915V88.5049H563.106V87.1432H565.83V78.9736H567.191V87.1432H578.084V78.9736Z" fill="#183C5C"/>
<path d="M568.553 80.3351H576.723V85.7816H568.553V80.3351Z" fill="#48EAF6"/>
<path d="M564.468 89.8664H568.553V96.6745H564.468V89.8664Z" fill="#48EAF6"/>
<path d="M580.807 89.8664H576.723V96.6745H580.807V89.8664Z" fill="#48EAF6"/>
<rect x="612.125" y="78.9735" width="21.7858" height="21.7858" fill="black"/>
<rect x="613.486" y="80.3351" width="19.0626" height="19.0626" fill="#0BE4F2"/>
<path d="M628.464 80.3351H629.825V88.5048H632.549V89.8664H625.741V99.3977H624.379V89.8664H621.656V99.3977H620.294V89.8664H613.486V88.5048H616.209V80.3351H617.571V88.5048H628.464V80.3351Z" fill="#183C5C"/>
<path d="M618.933 81.6967H627.102V87.1432H618.933V81.6967Z" fill="#48EAF6"/>
<path d="M614.848 91.228H618.933V98.0361H614.848V91.228Z" fill="#48EAF6"/>
<path d="M631.187 91.228H627.102V98.0361H631.187V91.228Z" fill="#48EAF6"/>
<rect x="603.955" y="57.1877" width="21.7858" height="21.7858" fill="black"/>
<rect x="605.316" y="58.5493" width="19.0626" height="19.0626" fill="#0BE4F2"/>
<path d="M620.294 58.5493H621.656V66.719H624.379V68.0806H617.571V77.6119H616.209V68.0806H613.486V77.6119H612.124V68.0806H605.316V66.719H608.04V58.5493H609.401V66.719H620.294V58.5493Z" fill="#183C5C"/>
<path d="M610.763 59.9109H618.932V65.3573H610.763V59.9109Z" fill="#48EAF6"/>
<path d="M606.678 69.4422H610.763V76.2502H606.678V69.4422Z" fill="#48EAF6"/>
<path d="M623.017 69.4422H618.932V76.2502H623.017V69.4422Z" fill="#48EAF6"/>
<rect x="565.83" y="12.2545" width="21.7858" height="21.7858" fill="black"/>
<rect x="567.191" y="13.6161" width="19.0626" height="19.0626" fill="#0BE4F2"/>
<path d="M582.169 13.6161H583.531V21.7858H586.254V23.1474H579.446V32.6787H578.084V23.1474H575.361V32.6787H573.999V23.1474H567.191V21.7858H569.914V13.6161H571.276V21.7858H582.169V13.6161Z" fill="#183C5C"/>
<path d="M572.638 14.9777H580.807V20.4241H572.638V14.9777Z" fill="#48EAF6"/>
<path d="M568.553 24.5089H572.638V31.317H568.553V24.5089Z" fill="#48EAF6"/>
<path d="M584.892 24.5089H580.807V31.317H584.892V24.5089Z" fill="#48EAF6"/>
<rect x="533.151" y="53.1029" width="21.7858" height="21.7858" fill="black"/>
<rect x="534.512" y="54.4645" width="19.0626" height="19.0626" fill="#0BE4F2"/>
<path d="M549.49 54.4645H550.852V62.6342H553.575V63.9958H546.767V73.5271H545.405V63.9958H542.682V73.5271H541.321V63.9958H534.512V62.6342H537.236V54.4645H538.597V62.6342H549.49V54.4645Z" fill="#183C5C"/>
<path d="M539.959 55.8261H548.129V61.2726H539.959V55.8261Z" fill="#48EAF6"/>
<path d="M535.874 65.3574H539.959V72.1655H535.874V65.3574Z" fill="#48EAF6"/>
<path d="M552.213 65.3574H548.129V72.1655H552.213V65.3574Z" fill="#48EAF6"/>
<rect x="533.151" y="74.8887" width="21.7858" height="21.7858" fill="black"/>
<rect x="534.512" y="76.2503" width="19.0626" height="19.0626" fill="#0BE4F2"/>
<path d="M549.49 76.2503H550.852V84.42H553.575V85.7816H546.767V95.3129H545.405V85.7816H542.682V95.3129H541.321V85.7816H534.512V84.42H537.236V76.2503H538.597V84.42H549.49V76.2503Z" fill="#183C5C"/>
<path d="M539.959 77.6119H548.129V83.0583H539.959V77.6119Z" fill="#48EAF6"/>
<path d="M535.874 87.1432H539.959V93.9512H535.874V87.1432Z" fill="#48EAF6"/>
<path d="M552.213 87.1432H548.129V93.9512H552.213V87.1432Z" fill="#48EAF6"/>
<rect x="512.727" y="84.4199" width="21.7858" height="21.7858" fill="black"/>
<rect x="514.088" y="85.7816" width="19.0626" height="19.0626" fill="#0BE4F2"/>
<path d="M529.066 85.7816H530.428V93.9512H533.151V95.3128H526.343V104.844H524.981V95.3128H522.258V104.844H520.896V95.3128H514.088V93.9512H516.811V85.7816H518.173V93.9512H529.066V85.7816Z" fill="#183C5C"/>
<path d="M519.535 87.1431H527.704V92.5896H519.535V87.1431Z" fill="#48EAF6"/>
<path d="M515.45 96.6744H519.535V103.482H515.45V96.6744Z" fill="#48EAF6"/>
<path d="M531.789 96.6744H527.704V103.482H531.789V96.6744Z" fill="#48EAF6"/>
<rect x="185.94" y="92.5896" width="21.7858" height="21.7858" fill="black"/>
<rect x="187.301" y="93.9512" width="19.0626" height="19.0626" fill="#0BE4F2"/>
<path d="M202.279 93.9512H203.641V102.121H206.364V103.483H199.556V113.014H198.194V103.483H195.471V113.014H194.109V103.483H187.301V102.121H190.024V93.9512H191.386V102.121H202.279V93.9512Z" fill="#183C5C"/>
<path d="M192.748 95.3128H200.917V100.759H192.748V95.3128Z" fill="#48EAF6"/>
<path d="M188.663 104.844H192.748V111.652H188.663V104.844Z" fill="#48EAF6"/>
<path d="M205.002 104.844H200.917V111.652H205.002V104.844Z" fill="#48EAF6"/>
<rect x="207.726" y="92.5896" width="21.7858" height="21.7858" fill="black"/>
<rect x="209.087" y="93.9512" width="19.0626" height="19.0626" fill="#0BE4F2"/>
<path d="M224.065 93.9512H225.427V102.121H228.15V103.483H221.342V113.014H219.98V103.483H217.257V113.014H215.895V103.483H209.087V102.121H211.81V93.9512H213.172V102.121H224.065V93.9512Z" fill="#183C5C"/>
<path d="M214.534 95.3128H222.703V100.759H214.534V95.3128Z" fill="#48EAF6"/>
<path d="M210.449 104.844H214.534V111.652H210.449V104.844Z" fill="#48EAF6"/>
<path d="M226.788 104.844H222.703V111.652H226.788V104.844Z" fill="#48EAF6"/>
<rect x="164.154" y="27.2323" width="21.7858" height="21.7858" fill="black"/>
<rect x="165.516" y="28.5939" width="19.0626" height="19.0626" fill="#0BE4F2"/>
<path d="M180.493 28.5939H181.855V36.7636H184.578V38.1252H177.77V47.6565H176.408V38.1252H173.685V47.6565H172.324V38.1252H165.516V36.7636H168.239V28.5939H169.6V36.7636H180.493V28.5939Z" fill="#183C5C"/>
<path d="M170.962 29.9555H179.132V35.402H170.962V29.9555Z" fill="#48EAF6"/>
<path d="M166.877 39.4868H170.962V46.2949H166.877V39.4868Z" fill="#48EAF6"/>
<path d="M183.217 39.4868H179.132V46.2949H183.217V39.4868Z" fill="#48EAF6"/>
<rect x="416.052" y="9.53131" width="21.7858" height="21.7858" fill="black"/>
<rect x="417.414" y="10.8929" width="19.0626" height="19.0626" fill="#0BE4F2"/>
<path d="M432.392 10.8929H433.753V19.0626H436.476V20.4242H429.668V29.9555H428.307V20.4242H425.583V29.9555H424.222V20.4242H417.414V19.0626H420.137V10.8929H421.499V19.0626H432.392V10.8929Z" fill="#183C5C"/>
<path d="M422.86 12.2545H431.03V17.701H422.86V12.2545Z" fill="#48EAF6"/>
<path d="M418.776 21.7858H422.86V28.5939H418.776V21.7858Z" fill="#48EAF6"/>
<path d="M435.115 21.7858H431.03V28.5939H435.115V21.7858Z" fill="#48EAF6"/>
<rect x="416.052" y="53.1029" width="21.7858" height="21.7858" fill="black"/>
<rect x="417.414" y="54.4645" width="19.0626" height="19.0626" fill="#0BE4F2"/>
<path d="M432.392 54.4645H433.753V62.6342H436.476V63.9958H429.668V73.5271H428.307V63.9958H425.583V73.5271H424.222V63.9958H417.414V62.6342H420.137V54.4645H421.499V62.6342H432.392V54.4645Z" fill="#183C5C"/>
<path d="M422.86 55.8261H431.03V61.2726H422.86V55.8261Z" fill="#48EAF6"/>
<path d="M418.776 65.3574H422.86V72.1655H418.776V65.3574Z" fill="#48EAF6"/>
<path d="M435.115 65.3574H431.03V72.1655H435.115V65.3574Z" fill="#48EAF6"/>
<rect x="416.052" y="74.8887" width="21.7858" height="21.7858" fill="black"/>
<rect x="417.414" y="76.2503" width="19.0626" height="19.0626" fill="#0BE4F2"/>
<path d="M432.392 76.2503H433.753V84.42H436.476V85.7816H429.668V95.3129H428.307V85.7816H425.583V95.3129H424.222V85.7816H417.414V84.42H420.137V76.2503H421.499V84.42H432.392V76.2503Z" fill="#183C5C"/>
<path d="M422.86 77.6119H431.03V83.0583H422.86V77.6119Z" fill="#48EAF6"/>
<path d="M418.776 87.1432H422.86V93.9512H418.776V87.1432Z" fill="#48EAF6"/>
<path d="M435.115 87.1432H431.03V93.9512H435.115V87.1432Z" fill="#48EAF6"/>
<rect x="416.052" y="96.6744" width="21.7858" height="21.7858" fill="black"/>
<rect x="417.414" y="98.0361" width="19.0626" height="19.0626" fill="#0BE4F2"/>
<path d="M432.392 98.0361H433.753V106.206H436.476V107.567H429.668V117.099H428.307V107.567H425.583V117.099H424.222V107.567H417.414V106.206H420.137V98.0361H421.499V106.206H432.392V98.0361Z" fill="#183C5C"/>
<path d="M422.86 99.3976H431.03V104.844H422.86V99.3976Z" fill="#48EAF6"/>
<path d="M418.776 108.929H422.86V115.737H418.776V108.929Z" fill="#48EAF6"/>
<path d="M435.115 108.929H431.03V115.737H435.115V108.929Z" fill="#48EAF6"/>
<rect x="416.052" y="31.3171" width="21.7858" height="21.7858" fill="black"/>
<rect x="417.414" y="32.6787" width="19.0626" height="19.0626" fill="#0BE4F2"/>
<path d="M432.392 32.6787H433.753V40.8484H436.476V42.21H429.668V51.7413H428.307V42.21H425.583V51.7413H424.222V42.21H417.414V40.8484H420.137V32.6787H421.499V40.8484H432.392V32.6787Z" fill="#183C5C"/>
<path d="M422.86 34.0403H431.03V39.4867H422.86V34.0403Z" fill="#48EAF6"/>
<path d="M418.776 43.5716H422.86V50.3796H418.776V43.5716Z" fill="#48EAF6"/>
<path d="M435.115 43.5716H431.03V50.3796H435.115V43.5716Z" fill="#48EAF6"/>
<rect x="0.760498" y="9.53131" width="21.7858" height="21.7858" fill="black"/>
<rect x="2.12207" y="10.8929" width="19.0626" height="19.0626" fill="#0BE4F2"/>
<path d="M17.0998 10.8929H18.4614V19.0626H21.1846V20.4242H14.3766V29.9555H13.015V20.4242H10.2917V29.9555H8.93013V20.4242H2.12207V19.0626H4.84529V10.8929H6.20691V19.0626H17.0998V10.8929Z" fill="#183C5C"/>
<path d="M7.5686 12.2545H15.7383V17.701H7.5686V12.2545Z" fill="#48EAF6"/>
<path d="M3.48376 21.7858H7.5686V28.5939H3.48376V21.7858Z" fill="#48EAF6"/>
<path d="M19.8231 21.7858H15.7383V28.5939H19.8231V21.7858Z" fill="#48EAF6"/>
<rect x="0.760498" y="53.1029" width="21.7858" height="21.7858" fill="black"/>
<rect x="2.12207" y="54.4645" width="19.0626" height="19.0626" fill="#0BE4F2"/>
<path d="M17.0998 54.4645H18.4614V62.6342H21.1846V63.9958H14.3766V73.5271H13.015V63.9958H10.2917V73.5271H8.93013V63.9958H2.12207V62.6342H4.84529V54.4645H6.20691V62.6342H17.0998V54.4645Z" fill="#183C5C"/>
<path d="M7.5686 55.8261H15.7383V61.2726H7.5686V55.8261Z" fill="#48EAF6"/>
<path d="M3.48376 65.3574H7.5686V72.1655H3.48376V65.3574Z" fill="#48EAF6"/>
<path d="M19.8231 65.3574H15.7383V72.1655H19.8231V65.3574Z" fill="#48EAF6"/>
<rect x="0.760498" y="74.8887" width="21.7858" height="21.7858" fill="black"/>
<rect x="2.12207" y="76.2503" width="19.0626" height="19.0626" fill="#0BE4F2"/>
<path d="M17.0998 76.2503H18.4614V84.42H21.1846V85.7816H14.3766V95.3129H13.015V85.7816H10.2917V95.3129H8.93013V85.7816H2.12207V84.42H4.84529V76.2503H6.20691V84.42H17.0998V76.2503Z" fill="#183C5C"/>
<path d="M7.5686 77.6119H15.7383V83.0583H7.5686V77.6119Z" fill="#48EAF6"/>
<path d="M3.48376 87.1432H7.5686V93.9512H3.48376V87.1432Z" fill="#48EAF6"/>
<path d="M19.8231 87.1432H15.7383V93.9512H19.8231V87.1432Z" fill="#48EAF6"/>
<rect x="0.760498" y="96.6744" width="21.7858" height="21.7858" fill="black"/>
<rect x="2.12207" y="98.0361" width="19.0626" height="19.0626" fill="#0BE4F2"/>
<path d="M17.0998 98.0361H18.4614V106.206H21.1846V107.567H14.3766V117.099H13.015V107.567H10.2917V117.099H8.93013V107.567H2.12207V106.206H4.84529V98.0361H6.20691V106.206H17.0998V98.0361Z" fill="#183C5C"/>
<path d="M7.5686 99.3976H15.7383V104.844H7.5686V99.3976Z" fill="#48EAF6"/>
<path d="M3.48376 108.929H7.5686V115.737H3.48376V108.929Z" fill="#48EAF6"/>
<path d="M19.8231 108.929H15.7383V115.737H19.8231V108.929Z" fill="#48EAF6"/>
<rect x="0.760498" y="31.3171" width="21.7858" height="21.7858" fill="black"/>
<rect x="2.12207" y="32.6787" width="19.0626" height="19.0626" fill="#0BE4F2"/>
<path d="M17.0998 32.6787H18.4614V40.8484H21.1846V42.21H14.3766V51.7413H13.015V42.21H10.2917V51.7413H8.93013V42.21H2.12207V40.8484H4.84529V32.6787H6.20691V40.8484H17.0998V32.6787Z" fill="#183C5C"/>
<path d="M7.5686 34.0403H15.7383V39.4867H7.5686V34.0403Z" fill="#48EAF6"/>
<path d="M3.48376 43.5716H7.5686V50.3796H3.48376V43.5716Z" fill="#48EAF6"/>
<path d="M19.8231 43.5716H15.7383V50.3796H19.8231V43.5716Z" fill="#48EAF6"/>
<rect x="21.1847" y="9.53131" width="21.7858" height="21.7858" fill="black"/>
<rect x="22.5463" y="10.8929" width="19.0626" height="19.0626" fill="#0BE4F2"/>
<path d="M37.524 10.8929H38.8856V19.0626H41.6088V20.4242H34.8008V29.9555H33.4392V20.4242H30.7159V29.9555H29.3543V20.4242H22.5463V19.0626H25.2695V10.8929H26.6311V19.0626H37.524V10.8929Z" fill="#183C5C"/>
<path d="M27.9928 12.2545H36.1625V17.701H27.9928V12.2545Z" fill="#48EAF6"/>
<path d="M23.908 21.7858H27.9928V28.5939H23.908V21.7858Z" fill="#48EAF6"/>
<path d="M40.2473 21.7858H36.1625V28.5939H40.2473V21.7858Z" fill="#48EAF6"/>
<rect x="42.9706" y="20.4241" width="21.7858" height="21.7858" fill="black"/>
<rect x="44.3322" y="21.7858" width="19.0626" height="19.0626" fill="#0BE4F2"/>
<path d="M59.3099 21.7858H60.6715V29.9554H63.3947V31.3171H56.5867V40.8483H55.2251V31.3171H52.5018V40.8483H51.1402V31.3171H44.3322V29.9554H47.0554V21.7858H48.417V29.9554H59.3099V21.7858Z" fill="#183C5C"/>
<path d="M49.7787 23.1473H57.9484V28.5938H49.7787V23.1473Z" fill="#48EAF6"/>
<path d="M45.6938 32.6786H49.7787V39.4867H45.6938V32.6786Z" fill="#48EAF6"/>
<path d="M62.0332 32.6786H57.9484V39.4867H62.0332V32.6786Z" fill="#48EAF6"/>
<rect x="51.14" y="42.21" width="21.7858" height="21.7858" fill="black"/>
<rect x="52.5016" y="43.5716" width="19.0626" height="19.0626" fill="#0BE4F2"/>
<path d="M67.4793 43.5716H68.8409V51.7413H71.5642V53.1029H64.7561V62.6342H63.3945V53.1029H60.6713V62.6342H59.3096V53.1029H52.5016V51.7413H55.2248V43.5716H56.5864V51.7413H67.4793V43.5716Z" fill="#183C5C"/>
<path d="M57.9481 44.9332H66.1178V50.3796H57.9481V44.9332Z" fill="#48EAF6"/>
<path d="M53.8633 54.4645H57.9481V61.2725H53.8633V54.4645Z" fill="#48EAF6"/>
<path d="M70.2026 54.4645H66.1178V61.2725H70.2026V54.4645Z" fill="#48EAF6"/>
<rect x="21.1847" y="63.9958" width="21.7858" height="21.7858" fill="black"/>
<rect x="22.5463" y="65.3574" width="19.0626" height="19.0626" fill="#0BE4F2"/>
<path d="M37.524 65.3574H38.8856V73.5271H41.6088V74.8887H34.8008V84.42H33.4392V74.8887H30.7159V84.42H29.3543V74.8887H22.5463V73.5271H25.2695V65.3574H26.6311V73.5271H37.524V65.3574Z" fill="#183C5C"/>
<path d="M27.9928 66.719H36.1625V72.1654H27.9928V66.719Z" fill="#48EAF6"/>
<path d="M23.908 76.2503H27.9928V83.0583H23.908V76.2503Z" fill="#48EAF6"/>
<path d="M40.2473 76.2503H36.1625V83.0583H40.2473V76.2503Z" fill="#48EAF6"/>
<rect x="42.9706" y="63.9958" width="21.7858" height="21.7858" fill="black"/>
<rect x="44.3322" y="65.3574" width="19.0626" height="19.0626" fill="#0BE4F2"/>
<path d="M59.3099 65.3574H60.6715V73.5271H63.3947V74.8887H56.5867V84.42H55.2251V74.8887H52.5018V84.42H51.1402V74.8887H44.3322V73.5271H47.0554V65.3574H48.417V73.5271H59.3099V65.3574Z" fill="#183C5C"/>
<path d="M49.7787 66.719H57.9484V72.1654H49.7787V66.719Z" fill="#48EAF6"/>
<path d="M45.6938 76.2503H49.7787V83.0583H45.6938V76.2503Z" fill="#48EAF6"/>
<path d="M62.0332 76.2503H57.9484V83.0583H62.0332V76.2503Z" fill="#48EAF6"/>
<rect x="67.4794" y="93.9512" width="21.7858" height="21.7858" fill="black"/>
<rect x="68.8409" y="95.3128" width="19.0626" height="19.0626" fill="#0BE4F2"/>
<path d="M83.8187 95.3128H85.1803V103.482H87.9035V104.844H81.0955V114.375H79.7338V104.844H77.0106V114.375H75.649V104.844H68.8409V103.482H71.5642V95.3128H72.9258V103.482H83.8187V95.3128Z" fill="#183C5C"/>
<path d="M74.2875 96.6744H82.4571V102.121H74.2875V96.6744Z" fill="#0BE4F2"/>
<path d="M70.2026 106.206H74.2875V113.014H70.2026V106.206Z" fill="#0BE4F2"/>
<path d="M86.542 106.206H82.4571V113.014H86.542V106.206Z" fill="#0BE4F2"/>
<rect x="75.6492" y="73.527" width="21.7858" height="21.7858" fill="black"/>
<rect x="77.0107" y="74.8887" width="19.0626" height="19.0626" fill="#0BE4F2"/>
<path d="M91.9885 74.8887H93.3501V83.0583H96.0733V84.42H89.2653V93.9512H87.9036V84.42H85.1804V93.9512H83.8188V84.42H77.0107V83.0583H79.734V74.8887H81.0956V83.0583H91.9885V74.8887Z" fill="#183C5C"/>
<path d="M82.4573 76.2502H90.6269V81.6967H82.4573V76.2502Z" fill="#0BE4F2"/>
<path d="M78.3724 85.7815H82.4573V92.5896H78.3724V85.7815Z" fill="#0BE4F2"/>
<path d="M94.7118 85.7815H90.6269V92.5896H94.7118V85.7815Z" fill="#0BE4F2"/>
<rect x="98.7966" y="73.527" width="21.7858" height="21.7858" fill="black"/>
<rect x="100.158" y="74.8887" width="19.0626" height="19.0626" fill="#0BE4F2"/>
<path d="M115.136 74.8887H116.498V83.0583H119.221V84.42H112.413V93.9512H111.051V84.42H108.328V93.9512H106.966V84.42H100.158V83.0583H102.881V74.8887H104.243V83.0583H115.136V74.8887Z" fill="#183C5C"/>
<path d="M105.605 76.2502H113.774V81.6967H105.605V76.2502Z" fill="#0BE4F2"/>
<path d="M101.52 85.7815H105.605V92.5896H101.52V85.7815Z" fill="#0BE4F2"/>
<path d="M117.859 85.7815H113.774V92.5896H117.859V85.7815Z" fill="#0BE4F2"/>
<rect x="83.819" y="51.7413" width="21.7858" height="21.7858" fill="black"/>
<rect x="85.1805" y="53.1029" width="19.0626" height="19.0626" fill="#0BE4F2"/>
<path d="M100.158 53.1029H101.52V61.2726H104.243V62.6342H97.4351V72.1655H96.0734V62.6342H93.3502V72.1655H91.9886V62.6342H85.1805V61.2726H87.9038V53.1029H89.2654V61.2726H100.158V53.1029Z" fill="#183C5C"/>
<path d="M90.6271 54.4645H98.7967V59.9109H90.6271V54.4645Z" fill="#0BE4F2"/>
<path d="M86.5422 63.9958H90.6271V70.8038H86.5422V63.9958Z" fill="#0BE4F2"/>
<path d="M102.882 63.9958H98.7967V70.8038H102.882V63.9958Z" fill="#0BE4F2"/>
<rect x="93.3501" y="29.9555" width="21.7858" height="21.7858" fill="black"/>
<rect x="94.7117" y="31.3171" width="19.0626" height="19.0626" fill="#0BE4F2"/>
<path d="M109.689 31.3171H111.051V39.4868H113.774V40.8484H106.966V50.3797H105.605V40.8484H102.881V50.3797H101.52V40.8484H94.7117V39.4868H97.4349V31.3171H98.7965V39.4868H109.689V31.3171Z" fill="#183C5C"/>
<path d="M100.158 32.6787H108.328V38.1252H100.158V32.6787Z" fill="#0BE4F2"/>
<path d="M96.0734 42.21H100.158V49.0181H96.0734V42.21Z" fill="#0BE4F2"/>
<path d="M112.413 42.21H108.328V49.0181H112.413V42.21Z" fill="#0BE4F2"/>
<rect width="21.7858" height="21.7858" transform="matrix(-1 0 0 1 153.261 93.9512)" fill="black"/>
<rect width="19.0626" height="19.0626" transform="matrix(-1 0 0 1 151.9 95.3128)" fill="#0BE4F2"/>
<path d="M136.922 95.3128H135.56V103.482H132.837V104.844H139.645V114.375H141.007V104.844H143.73V114.375H145.091V104.844H151.9V103.482H149.176V95.3128H147.815V103.482H136.922V95.3128Z" fill="#183C5C"/>
<path d="M146.453 96.6744H138.283V102.121H146.453V96.6744Z" fill="#0BE4F2"/>
<path d="M150.538 106.206H146.453V113.014H150.538V106.206Z" fill="#0BE4F2"/>
<path d="M134.198 106.206H138.283V113.014H134.198V106.206Z" fill="#0BE4F2"/>
<rect width="21.7858" height="21.7858" transform="matrix(-1 0 0 1 145.091 73.527)" fill="black"/>
<rect width="19.0626" height="19.0626" transform="matrix(-1 0 0 1 143.73 74.8887)" fill="#0BE4F2"/>
<path d="M128.752 74.8887H127.39V83.0583H124.667V84.42H131.475V93.9512H132.837V84.42H135.56V93.9512H136.922V84.42H143.73V83.0583H141.007V74.8887H139.645V83.0583H128.752V74.8887Z" fill="#183C5C"/>
<path d="M138.283 76.2502H130.114V81.6967H138.283V76.2502Z" fill="#0BE4F2"/>
<path d="M142.368 85.7815H138.283V92.5896H142.368V85.7815Z" fill="#0BE4F2"/>
<path d="M126.029 85.7815H130.114V92.5896H126.029V85.7815Z" fill="#0BE4F2"/>
<rect width="21.7858" height="21.7858" transform="matrix(-1 0 0 1 136.922 51.7413)" fill="black"/>
<rect width="19.0626" height="19.0626" transform="matrix(-1 0 0 1 135.56 53.1029)" fill="#0BE4F2"/>
<path d="M120.582 53.1029H119.221V61.2726H116.498V62.6342H123.306V72.1655H124.667V62.6342H127.391V72.1655H128.752V62.6342H135.56V61.2726H132.837V53.1029H131.475V61.2726H120.582V53.1029Z" fill="#183C5C"/>
<path d="M130.114 54.4645H121.944V59.9109H130.114V54.4645Z" fill="#0BE4F2"/>
<path d="M134.198 63.9958H130.114V70.8038H134.198V63.9958Z" fill="#0BE4F2"/>
<path d="M117.859 63.9958H121.944V70.8038H117.859V63.9958Z" fill="#0BE4F2"/>
<rect width="21.7858" height="21.7858" transform="matrix(-1 0 0 1 127.391 29.9555)" fill="black"/>
<rect width="19.0626" height="19.0626" transform="matrix(-1 0 0 1 126.029 31.3171)" fill="#0BE4F2"/>
<path d="M111.051 31.3171H109.69V39.4868H106.966V40.8484H113.774V50.3797H115.136V40.8484H117.859V50.3797H119.221V40.8484H126.029V39.4868H123.306V31.3171H121.944V39.4868H111.051V31.3171Z" fill="#183C5C"/>
<path d="M120.582 32.6787H112.413V38.1252H120.582V32.6787Z" fill="#0BE4F2"/>
<path d="M124.667 42.21H120.582V49.0181H124.667V42.21Z" fill="#0BE4F2"/>
<path d="M108.328 42.21H112.413V49.0181H108.328V42.21Z" fill="#0BE4F2"/>
<rect x="97.4351" y="8.16962" width="21.7858" height="21.7858" fill="black"/>
<rect x="98.7966" y="9.53125" width="19.0626" height="19.0626" fill="#0BE4F2"/>
<path d="M113.774 9.53125H115.136V17.7009H117.859V19.0625H111.051V28.5938H109.69V19.0625H106.966V28.5938H105.605V19.0625H98.7966V17.7009H101.52V9.53125H102.881V17.7009H113.774V9.53125Z" fill="#183C5C"/>
<path d="M104.243 10.8928H112.413V16.3393H104.243V10.8928Z" fill="#0BE4F2"/>
<path d="M100.158 20.4241H104.243V27.2322H100.158V20.4241Z" fill="#0BE4F2"/>
<path d="M116.498 20.4241H112.413V27.2322H116.498V20.4241Z" fill="#0BE4F2"/>
<rect x="232.234" y="96.6744" width="21.7858" height="21.7858" fill="black"/>
<rect x="233.596" y="98.0361" width="19.0626" height="19.0626" fill="#0BE4F2"/>
<path d="M248.574 98.0361H249.935V106.206H252.659V107.567H245.851V117.099H244.489V107.567H241.766V117.099H240.404V107.567H233.596V106.206H236.319V98.0361H237.681V106.206H248.574V98.0361Z" fill="#183C5C"/>
<path d="M239.043 99.3976H247.212V104.844H239.043V99.3976Z" fill="#0BE4F2"/>
<path d="M234.958 108.929H239.043V115.737H234.958V108.929Z" fill="#0BE4F2"/>
<path d="M251.297 108.929H247.212V115.737H251.297V108.929Z" fill="#0BE4F2"/>
<rect x="240.404" y="76.2503" width="21.7858" height="21.7858" fill="black"/>
<rect x="241.766" y="77.6119" width="19.0626" height="19.0626" fill="#0BE4F2"/>
<path d="M256.743 77.6119H258.105V85.7816H260.828V87.1432H254.02V96.6745H252.659V87.1432H249.935V96.6745H248.574V87.1432H241.766V85.7816H244.489V77.6119H245.851V85.7816H256.743V77.6119Z" fill="#183C5C"/>
<path d="M247.212 78.9735H255.382V84.42H247.212V78.9735Z" fill="#0BE4F2"/>
<path d="M243.127 88.5048H247.212V95.3129H243.127V88.5048Z" fill="#0BE4F2"/>
<path d="M259.467 88.5048H255.382V95.3129H259.467V88.5048Z" fill="#0BE4F2"/>
<rect x="263.552" y="76.2503" width="21.7858" height="21.7858" fill="black"/>
<rect x="264.913" y="77.6119" width="19.0626" height="19.0626" fill="#0BE4F2"/>
<path d="M279.891 77.6119H281.253V85.7816H283.976V87.1432H277.168V96.6745H275.806V87.1432H273.083V96.6745H271.721V87.1432H264.913V85.7816H267.637V77.6119H268.998V85.7816H279.891V77.6119Z" fill="#183C5C"/>
<path d="M270.36 78.9735H278.53V84.42H270.36V78.9735Z" fill="#0BE4F2"/>
<path d="M266.275 88.5048H270.36V95.3129H266.275V88.5048Z" fill="#0BE4F2"/>
<path d="M282.614 88.5048H278.53V95.3129H282.614V88.5048Z" fill="#0BE4F2"/>
<rect x="248.574" y="54.4645" width="21.7858" height="21.7858" fill="black"/>
<rect x="249.936" y="55.8262" width="19.0626" height="19.0626" fill="#0BE4F2"/>
<path d="M264.913 55.8262H266.275V63.9958H268.998V65.3575H262.19V74.8887H260.828V65.3575H258.105V74.8887H256.744V65.3575H249.936V63.9958H252.659V55.8262H254.02V63.9958H264.913V55.8262Z" fill="#183C5C"/>
<path d="M255.382 57.1877H263.552V62.6342H255.382V57.1877Z" fill="#0BE4F2"/>
<path d="M251.297 66.719H255.382V73.5271H251.297V66.719Z" fill="#0BE4F2"/>
<path d="M267.637 66.719H263.552V73.5271H267.637V66.719Z" fill="#0BE4F2"/>
<rect x="258.105" y="32.6786" width="21.7858" height="21.7858" fill="black"/>
<rect x="259.467" y="34.0403" width="19.0626" height="19.0626" fill="#0BE4F2"/>
<path d="M274.445 34.0403H275.806V42.21H278.529V43.5716H271.721V53.1029H270.36V43.5716H267.636V53.1029H266.275V43.5716H259.467V42.21H262.19V34.0403H263.552V42.21H274.445V34.0403Z" fill="#183C5C"/>
<path d="M264.913 35.4019H273.083V40.8483H264.913V35.4019Z" fill="#0BE4F2"/>
<path d="M260.828 44.9331H264.913V51.7412H260.828V44.9331Z" fill="#0BE4F2"/>
<path d="M277.168 44.9331H273.083V51.7412H277.168V44.9331Z" fill="#0BE4F2"/>
<rect width="21.7858" height="21.7858" transform="matrix(-1 0 0 1 318.016 96.6744)" fill="black"/>
<rect width="19.0626" height="19.0626" transform="matrix(-1 0 0 1 316.655 98.0361)" fill="#0BE4F2"/>
<path d="M301.677 98.0361H300.315V106.206H297.592V107.567H304.4V117.099H305.762V107.567H308.485V117.099H309.846V107.567H316.655V106.206H313.931V98.0361H312.57V106.206H301.677V98.0361Z" fill="#183C5C"/>
<path d="M311.208 99.3976H303.038V104.844H311.208V99.3976Z" fill="#0BE4F2"/>
<path d="M315.293 108.929H311.208V115.737H315.293V108.929Z" fill="#0BE4F2"/>
<path d="M298.954 108.929H303.038V115.737H298.954V108.929Z" fill="#0BE4F2"/>
<rect width="21.7858" height="21.7858" transform="matrix(-1 0 0 1 309.846 76.2503)" fill="black"/>
<rect width="19.0626" height="19.0626" transform="matrix(-1 0 0 1 308.485 77.6119)" fill="#0BE4F2"/>
<path d="M293.507 77.6119H292.146V85.7816H289.422V87.1432H296.23V96.6745H297.592V87.1432H300.315V96.6745H301.677V87.1432H308.485V85.7816H305.762V77.6119H304.4V85.7816H293.507V77.6119Z" fill="#183C5C"/>
<path d="M303.038 78.9735H294.869V84.42H303.038V78.9735Z" fill="#0BE4F2"/>
<path d="M307.123 88.5048H303.038V95.3129H307.123V88.5048Z" fill="#0BE4F2"/>
<path d="M290.784 88.5048H294.869V95.3129H290.784V88.5048Z" fill="#0BE4F2"/>
<rect width="21.7858" height="21.7858" transform="matrix(-1 0 0 1 301.677 54.4645)" fill="black"/>
<rect width="19.0626" height="19.0626" transform="matrix(-1 0 0 1 300.315 55.8262)" fill="#0BE4F2"/>
<path d="M285.337 55.8262H283.976V63.9958H281.253V65.3575H288.061V74.8887H289.422V65.3575H292.146V74.8887H293.507V65.3575H300.315V63.9958H297.592V55.8262H296.23V63.9958H285.337V55.8262Z" fill="#183C5C"/>
<path d="M294.869 57.1877H286.699V62.6342H294.869V57.1877Z" fill="#0BE4F2"/>
<path d="M298.953 66.719H294.869V73.5271H298.953V66.719Z" fill="#0BE4F2"/>
<path d="M282.614 66.719H286.699V73.5271H282.614V66.719Z" fill="#0BE4F2"/>
<rect width="21.7858" height="21.7858" transform="matrix(-1 0 0 1 292.146 32.6786)" fill="black"/>
<rect width="19.0626" height="19.0626" transform="matrix(-1 0 0 1 290.784 34.0403)" fill="#0BE4F2"/>
<path d="M275.806 34.0403H274.445V42.21H271.721V43.5716H278.529V53.1029H279.891V43.5716H282.614V53.1029H283.976V43.5716H290.784V42.21H288.061V34.0403H286.699V42.21H275.806V34.0403Z" fill="#183C5C"/>
<path d="M285.337 35.4019H277.168V40.8483H285.337V35.4019Z" fill="#0BE4F2"/>
<path d="M289.422 44.9331H285.337V51.7412H289.422V44.9331Z" fill="#0BE4F2"/>
<path d="M273.083 44.9331H277.168V51.7412H273.083V44.9331Z" fill="#0BE4F2"/>
<rect x="262.19" y="10.8929" width="21.7858" height="21.7858" fill="black"/>
<rect x="263.552" y="12.2545" width="19.0626" height="19.0626" fill="#0BE4F2"/>
<path d="M278.529 12.2545H279.891V20.4242H282.614V21.7858H275.806V31.3171H274.444V21.7858H271.721V31.3171H270.36V21.7858H263.552V20.4242H266.275V12.2545H267.636V20.4242H278.529V12.2545Z" fill="#183C5C"/>
<path d="M268.998 13.6161H277.168V19.0625H268.998V13.6161Z" fill="#0BE4F2"/>
<path d="M264.913 23.1474H268.998V29.9554H264.913V23.1474Z" fill="#0BE4F2"/>
<path d="M281.253 23.1474H277.168V29.9554H281.253V23.1474Z" fill="#0BE4F2"/>
</svg>
