<svg width="16" height="16" viewBox="0 0 16 16" fill="none" xmlns="http://www.w3.org/2000/svg">
<path d="M13 1H3V3H1V12H15V3H13V1Z" fill="#2038EC"/>
<path d="M5 0H11V1H5V0Z" fill="black"/>
<path d="M3 2V1H5V2H3Z" fill="black"/>
<path d="M2 3V2H3V3H2Z" fill="black"/>
<path d="M1 5V3H2V5H1Z" fill="black"/>
<path fill-rule="evenodd" clip-rule="evenodd" d="M14 3H15V5H14V3ZM15 5H16V16H15V14H1V16H0V5H1V12H15V5Z" fill="black"/>
<path fill-rule="evenodd" clip-rule="evenodd" d="M13 2V1H11V2H13ZM13 2H14V3H13V2Z" fill="black"/>
<path d="M10 5H8V7H10V5Z" fill="black"/>
<path fill-rule="evenodd" clip-rule="evenodd" d="M5 3V11H9V9H11V8H12V4H11V3H5ZM11 4V8H8V10H6V4H11Z" fill="black"/>
<path d="M5 2H6V3H5V2Z" fill="white"/>
<path d="M4 3H3V4H2V8H3V4H4V3Z" fill="white"/>
<path fill-rule="evenodd" clip-rule="evenodd" d="M6 4V10H8V8H11V4H6ZM10 5V7H8V5H10Z" fill="white"/>
<path d="M15 16V14H1V16H15Z" fill="white"/>
</svg>
