<svg width="32" height="64" viewBox="0 0 32 64" fill="none" xmlns="http://www.w3.org/2000/svg">
<g clip-path="url(#clip0_1052_17615)">
<rect width="30" height="400" transform="matrix(1 0 0 -1 1 48)" fill="black"/>
<rect width="28" height="400" transform="matrix(1 0 0 -1 2 48)" fill="#0F26F2"/>
<path d="M19 48H30L30 -352H19L19 48Z" fill="#0BE4F2"/>
<path d="M12 48H18L18 -352H12L12 48Z" fill="#0BE4F2"/>
<path d="M9 48H11L11 -352H9L9 48Z" fill="#0BE4F2"/>
<path d="M2 48H4L4 -352H2L2 48Z" fill="#0BE4F2"/>
<path d="M5 48H6L6 -352H5L5 48Z" fill="#0BE4F2"/>
<path d="M29 48H30L30 -352H29L29 48Z" fill="black"/>
<path d="M22 48H23L23 -352H22L22 48Z" fill="black"/>
<path d="M20 48H21L21 -352H20L20 48Z" fill="black"/>
<path d="M24 48H28L28 -352H24L24 48Z" fill="black"/>
</g>
<rect width="32" height="16" transform="matrix(1 0 0 -1 0 64)" fill="black"/>
<rect width="30" height="13" transform="matrix(1 0 0 -1 1 63)" fill="#0F26F2"/>
<path d="M20 62L31 62V50H20V62Z" fill="#0BE4F2"/>
<path d="M11 62H19V50H11L11 62Z" fill="#0BE4F2"/>
<path d="M8 62H10L10 50H8L8 62Z" fill="#0BE4F2"/>
<path d="M1 62H3L3 50H1L1 62Z" fill="#0BE4F2"/>
<path d="M4 62H5L5 50H4L4 62Z" fill="#0BE4F2"/>
<path d="M30 62H31V50H30V62Z" fill="black"/>
<path d="M23 62H24V50H23V62Z" fill="black"/>
<path d="M21 62H22V50H21V62Z" fill="black"/>
<path d="M25 62H29V50H25V62Z" fill="black"/>
<path d="M15 0H1V1H0V15H1V16H15V15H16V1H15V0Z" fill="black"/>
<path d="M14.125 1H1.875V1.875H1V14.125H1.875V15H14.125V14.125H15V1.875H14.125V1Z" fill="#3CBCFC"/>
<path d="M2 1H6V2H9V3H1V2H2V1Z" fill="#FCFCFC"/>
<path d="M10 1H14V2H15V4H14V3H12V2H10V1Z" fill="#FCFCFC"/>
<path d="M3 4V6H1V4H3Z" fill="#FCFCFC"/>
<path d="M3 14V12H1V14H2V15H4V14H3Z" fill="#FCFCFC"/>
<path d="M3 11V7H1V11H3Z" fill="#FCFCFC"/>
<path d="M14.125 1H1.875V1.875H1V14.125H1.875V15H14.125V14.125H15V1.875H14.125V1Z" fill="#747474"/>
<path d="M2 1H6V2H9V3H1V2H2V1Z" fill="#FCFCFC"/>
<path d="M10 1H14V2H15V4H14V3H12V2H10V1Z" fill="#FCFCFC"/>
<path d="M3 4V6H1V4H3Z" fill="#FCFCFC"/>
<path d="M3 14V12H1V14H2V15H4V14H3Z" fill="#FCFCFC"/>
<path d="M3 11V7H1V11H3Z" fill="#FCFCFC"/>
<path d="M14.125 1H1.875V1.875H1V14.125H1.875V15H14.125V14.125H15V1.875H14.125V1Z" fill="#FC8E2E"/>
<path d="M2 1H6V2H9V3H1V2H2V1Z" fill="#FCB5A8"/>
<path d="M10 1H14V2H15V4H14V3H12V2H10V1Z" fill="#FCB5A8"/>
<path d="M3 4V6H1V4H3Z" fill="#FCB5A8"/>
<path d="M3 14V12H1V14H2V15H4V14H3Z" fill="#FCB5A8"/>
<path d="M3 11V7H1V11H3Z" fill="#FCB5A8"/>
<path d="M6 3H3V4H5V5H8V7H9V10H8V13H6V14H5V15H7V14H8V13H9V11H10V6H9V4H6V3Z" fill="black"/>
<path d="M11 14V13H12V11H13V6H12V4H11V3H13V5H14V12H13V14H12V15H9V14H11Z" fill="black"/>
<path d="M3 10V12H4V11H6V10H7V8H6V7H5V6H3V7H4V8H5V10H3Z" fill="black"/>
<path d="M31 0H17V1H16V15H17V16H31V15H32V1H31V0Z" fill="black"/>
<path d="M30.125 1H17.875V1.875H17V14.125H17.875V15H30.125V14.125H31V1.875H30.125V1Z" fill="#3CBCFC"/>
<path d="M18 1H22V2H25V3H17V2H18V1Z" fill="#FCFCFC"/>
<path d="M26 1H30V2H31V4H30V3H28V2H26V1Z" fill="#FCFCFC"/>
<path d="M19 4V6H17V4H19Z" fill="#FCFCFC"/>
<path d="M19 14V12H17V14H18V15H20V14H19Z" fill="#FCFCFC"/>
<path d="M19 11V7H17V11H19Z" fill="#FCFCFC"/>
<path d="M30.125 1H17.875V1.875H17V14.125H17.875V15H30.125V14.125H31V1.875H30.125V1Z" fill="#747474"/>
<path d="M18 1H22V2H25V3H17V2H18V1Z" fill="#FCFCFC"/>
<path d="M26 1H30V2H31V4H30V3H28V2H26V1Z" fill="#FCFCFC"/>
<path d="M19 4V6H17V4H19Z" fill="#FCFCFC"/>
<path d="M19 14V12H17V14H18V15H20V14H19Z" fill="#FCFCFC"/>
<path d="M19 11V7H17V11H19Z" fill="#FCFCFC"/>
<path d="M30.125 1H17.875V1.875H17V14.125H17.875V15H30.125V14.125H31V1.875H30.125V1Z" fill="#FC8E2E"/>
<path d="M18 1H22V2H25V3H17V2H18V1Z" fill="#FCB5A8"/>
<path d="M26 1H30V2H31V4H30V3H28V2H26V1Z" fill="#FCB5A8"/>
<path d="M19 4V6H17V4H19Z" fill="#FCB5A8"/>
<path d="M19 14V12H17V14H18V15H20V14H19Z" fill="#FCB5A8"/>
<path d="M19 11V7H17V11H19Z" fill="#FCB5A8"/>
<path d="M22 3H19V4H21V5H24V7H25V10H24V13H22V14H21V15H23V14H24V13H25V11H26V6H25V4H22V3Z" fill="black"/>
<path d="M27 14V13H28V11H29V6H28V4H27V3H29V5H30V12H29V14H28V15H25V14H27Z" fill="black"/>
<path d="M19 10V12H20V11H22V10H23V8H22V7H21V6H19V7H20V8H21V10H19Z" fill="black"/>
<defs>
<clipPath id="clip0_1052_17615">
<rect width="30" height="32" fill="white" transform="matrix(1 0 0 -1 1 48)"/>
</clipPath>
</defs>
</svg>
