<svg width="57" height="79" viewBox="0 0 57 79" fill="none" xmlns="http://www.w3.org/2000/svg">
<path d="M3.5625 0H14.25V3.43478H17.8125V10.3043H14.25V6.86957H10.6875V3.43478H3.5625V0Z" fill="black"/>
<path d="M3.5625 13.7391H0V3.43478H3.5625V13.7391Z" fill="black"/>
<path d="M7.125 17.1739H3.5625V13.7391H7.125V17.1739Z" fill="black"/>
<path fill-rule="evenodd" clip-rule="evenodd" d="M10.6875 20.6087V17.1739H7.125V20.6087H3.5625V27.4783H0V37.7826H3.5625V44.6522H7.125V48.087H14.25V51.5217H3.5625V54.9565H0V65.2609H3.5625V72.1304H7.125V75.5652H14.25V79H21.375V75.5652H14.25V72.1304H7.125V65.2609H3.5625V58.3913H7.125V54.9565H14.25V58.3913H17.8125V61.8261H21.375V68.6957H17.8125V65.2609H14.25V61.8261H10.6875V65.2609H14.25V68.6957H17.8125V72.1304H24.9375V51.5217H32.0625V72.1304H39.1875V68.6957H42.75V65.2609H46.3125V61.8261H42.75V65.2609H39.1875V68.6957H35.625V61.8261H39.1875V58.3913H42.75V54.9565H49.875V58.3913H53.4375V65.2609H49.875V72.1304H42.75V75.5652H35.625V79H42.75V75.5652H49.875V72.1304H53.4375V65.2609H57V54.9565H53.4375V51.5217H42.75V48.087H49.875V44.6522H53.4375V37.7826H57V27.4783H53.4375V20.6087H49.875V17.1739H53.4375V13.7391H57V3.43478H53.4375V0H42.75V3.43478H39.1875V10.3043H35.625V17.1739H32.0625V20.6087H24.9375V17.1739H21.375V10.3043H17.8125V17.1739H21.375V20.6087H24.9375V24.0435H32.0625V20.6087H35.625V17.1739H39.1875V10.3043H42.75V6.86957H46.3125V3.43478H53.4375V13.7391H49.875V17.1739H46.3125V20.6087H42.75V24.0435H39.1875V27.4783H35.625V30.913H21.375V27.4783H17.8125V24.0435H14.25V20.6087H10.6875ZM10.6875 20.6087V24.0435H14.25V27.4783H17.8125V30.913H21.375V34.3478H35.625V30.913H39.1875V27.4783H42.75V24.0435H46.3125V20.6087H49.875V27.4783H53.4375V37.7826H49.875V44.6522H42.75V48.087H14.25V44.6522H7.125V37.7826H3.5625V27.4783H7.125V20.6087H10.6875ZM42.75 51.5217V54.9565H39.1875V58.3913H35.625V51.5217H42.75ZM17.8125 58.3913V54.9565H14.25V51.5217H21.375V58.3913H17.8125Z" fill="black"/>
<path d="M39.1875 0H42.75V3.43478H39.1875V0Z" fill="white"/>
<path d="M3.5625 3.43478H10.6875V6.86957H14.25V10.3043H17.8125V17.1739H21.375V20.6087H24.9375V24.0435H32.0625V20.6087H35.625V17.1739H39.1875V10.3043H42.75V6.86957H46.3125V3.43478H53.4375V13.7391H49.875V17.1739H46.3125V20.6087H42.75V24.0435H39.1875V27.4783H35.625V30.913H21.375V27.4783H17.8125V24.0435H14.25V20.6087H10.6875V17.1739H7.125V13.7391H3.5625V3.43478Z" fill="white"/>
<path d="M39.1875 10.3043H35.625V6.86957H39.1875V10.3043Z" fill="white"/>
<path d="M32.0625 17.1739V20.6087H24.9375V17.1739H32.0625Z" fill="white"/>
<path d="M32.0625 17.1739H35.625V13.7391H32.0625V17.1739Z" fill="white"/>
<path d="M24.9375 17.1739H21.375V13.7391H24.9375V17.1739Z" fill="white"/>
<path d="M17.8125 10.3043V6.86957H21.375V10.3043H17.8125Z" fill="white"/>
<path d="M14.25 0H17.8125V3.43478H14.25V0Z" fill="white"/>
<path d="M10.6875 27.4783H7.125V30.913H10.6875V27.4783Z" fill="white"/>
<path d="M3.5625 34.3478H7.125V37.7826H3.5625V34.3478Z" fill="white"/>
<path d="M14.25 41.2174H10.6875V44.6522H14.25V41.2174Z" fill="white"/>
<path d="M21.375 34.3478H24.9375V37.7826H21.375V34.3478Z" fill="white"/>
<path d="M32.0625 44.6522H24.9375V48.087H32.0625V44.6522Z" fill="white"/>
<path d="M32.0625 34.3478H35.625V37.7826H32.0625V34.3478Z" fill="white"/>
<path d="M46.3125 41.2174H42.75V44.6522H46.3125V41.2174Z" fill="white"/>
<path d="M49.875 34.3478H53.4375V37.7826H49.875V34.3478Z" fill="white"/>
<path d="M49.875 27.4783H46.3125V30.913H49.875V27.4783Z" fill="white"/>
<path d="M7.125 20.6086H10.6875V24.0434H14.25V27.4782H17.8125V30.913H21.375V37.7826H24.9375V34.3478H32.0625V37.7826H35.625V30.913H39.1875V27.4782H42.75V24.0434H46.3125V20.6086H49.875V27.4782H46.3125V30.913H49.875V27.4782H53.4375V34.3478H49.875V44.6521H46.3125V41.2173H42.75V48.0869H32.0625V44.6521H24.9375V48.0869H14.25V41.2173H10.6875V44.6521H7.125V34.3478H3.5625V27.4782H7.125V30.913H10.6875V27.4782H7.125V20.6086Z" fill="#FFF065"/>
<path d="M24.9375 51.5217H32.0625V72.1304H39.1875V68.6956H42.75V65.2609H46.3125V61.8261H42.75V65.2609H39.1875V68.6956H35.625V61.8261H39.1875V58.3913H42.75V54.9565H49.875V58.3913H53.4375V65.2609H49.875V72.1304H42.75V75.5652H35.625V79H21.375V75.5652H14.25V72.1304H7.125V65.2609H3.5625V58.3913H7.125V54.9565H14.25V58.3913H17.8125V61.8261H21.375V68.6956H17.8125V65.2609H14.25V61.8261H10.6875V65.2609H14.25V68.6956H17.8125V72.1304H24.9375V51.5217Z" fill="#4CFF75"/>
</svg>
