<svg width="60" height="89" viewBox="0 0 60 89" fill="none" xmlns="http://www.w3.org/2000/svg">
<path d="M37.5 3.70825H18.75V7.41659H11.25V14.8333H7.5V22.2499H3.75V37.0833H7.5V44.4999H11.25V48.2083H15V51.9166H22.5V55.6249H41.25V48.2083H22.5V40.7916H18.75V37.0833H15V33.3749H11.25V22.2499H15V18.5416H18.75V14.8333H45V7.41659H37.5V3.70825Z" fill="#FFF065"/>
<path d="M45 14.8333V18.5416H48.75V14.8333H45Z" fill="#FFF065"/>
<path d="M26.25 59.3333H33.75V81.5833H41.25V77.8749H37.5V70.4583H41.25V66.7499H45V63.0416H56.25V74.1666H52.5V81.5833H45V85.2916H37.5V88.9999H22.5V85.2916H15V81.5833H7.5V74.1666H3.75V63.0416H18.75V70.4583H22.5V81.5833H26.25V59.3333Z" fill="#4CFF75"/>
<path d="M37.5 0H18.75V3.70833H37.5V0Z" fill="black"/>
<path d="M45 7.41667V3.70833H37.5V7.41667H45Z" fill="black"/>
<path d="M48.75 11.125V7.41667H45V11.125H48.75Z" fill="black"/>
<path d="M41.25 29.6667H33.75V33.375H37.5V37.0833H45V33.375H41.25V29.6667Z" fill="black"/>
<path fill-rule="evenodd" clip-rule="evenodd" d="M15 22.25V18.5417H18.75V14.8333H45V18.5417H48.75V11.125H52.5V18.5417H56.25V22.25H60V29.6667H56.25V33.375H48.75V37.0833H45V40.7917H48.75V44.5H52.5V51.9167H48.75V55.625H41.25V59.3333H37.5V66.75H41.25V63.0417H45V59.3333H56.25V63.0417H60V74.1667H56.25V81.5833H52.5V85.2917H45V89H37.5V85.2917H45V81.5833H52.5V74.1667H56.25V66.75H52.5V63.0417H45V66.75H41.25V70.4583H37.5V77.875H41.25V74.1667H45V70.4583H48.75V74.1667H45V77.875H41.25V81.5833H33.75V59.3333H26.25V81.5833H18.75V77.875H15V74.1667H11.25V70.4583H15V74.1667H18.75V77.875H22.5V70.4583H18.75V66.75H15V63.0417H7.5V66.75H3.75V74.1667H7.5V81.5833H15V85.2917H22.5V89H15V85.2917H7.5V81.5833H3.75V74.1667H0V63.0417H3.75V59.3333H15V63.0417H18.75V66.75H22.5V55.625H15V51.9167H11.25V48.2083H7.5V44.5H3.75V37.0833H0V22.25H3.75V14.8333H7.5V7.41667H11.25V3.70833H18.75V7.41667H11.25V14.8333H7.5V22.25H3.75V37.0833H7.5V44.5H11.25V48.2083H15V51.9167H22.5V55.625H41.25V51.9167H33.75V48.2083H26.25V44.5H22.5V40.7917H18.75V37.0833H15V33.375H11.25V22.25H15ZM15 22.25V33.375H18.75V37.0833H22.5V40.7917H26.25V44.5H33.75V48.2083H41.25V51.9167H48.75V44.5H45V40.7917H37.5V37.0833H33.75V33.375H26.25V29.6667H22.5V25.9583H41.25V29.6667H56.25V25.9583H52.5V22.25H41.25V18.5417H22.5V22.25H15Z" fill="black"/>
<path d="M33.75 7.41675H37.5V11.1251H33.75V7.41675Z" fill="white"/>
<path d="M48.75 11.1251H45V14.8334H48.75V11.1251Z" fill="white"/>
<path fill-rule="evenodd" clip-rule="evenodd" d="M41.25 18.5417H22.5V22.2501H15V33.3751H18.75V37.0834H22.5V40.7917H26.25V44.5001H33.75V48.2084H41.25V51.9167H48.75V44.5001H45V40.7917H37.5V37.0834H33.75V33.3751H26.25V29.6667H22.5V25.9584H41.25V29.6667H56.25V25.9584H52.5V22.2501H41.25V18.5417ZM26.25 44.5001H22.5V48.2084H26.25V44.5001Z" fill="white"/>
<path d="M56.25 29.6667V37.0834H60V29.6667H56.25Z" fill="white"/>
<path d="M45 37.0834V33.3751H41.25V29.6667H33.75V33.3751H37.5V37.0834H45Z" fill="white"/>
<path fill-rule="evenodd" clip-rule="evenodd" d="M48.75 37.0834H52.5V33.3751H48.75V37.0834ZM48.75 37.0834H45V40.7917H48.75V37.0834Z" fill="white"/>
<path d="M48.75 40.7917V44.5001H52.5V40.7917H48.75Z" fill="white"/>
<path d="M22.5 7.41675H18.75V11.1251H22.5V7.41675Z" fill="white"/>
<path d="M7.5 14.8334H11.25V18.5417H7.5V14.8334Z" fill="white"/>
<path d="M11.25 29.6667H7.5V33.3751H11.25V29.6667Z" fill="white"/>
<path d="M11.25 40.7917H15V44.5001H11.25V40.7917Z" fill="white"/>
<path d="M30 51.9167H33.75V55.6251H30V51.9167Z" fill="white"/>
<path d="M41.25 29.6667H33.75V33.3751H41.25V29.6667Z" fill="white"/>
<path d="M45 33.3751H37.5V37.0834H45V33.3751Z" fill="white"/>
</svg>
