<svg width="60" height="89" viewBox="0 0 60 89" fill="none" xmlns="http://www.w3.org/2000/svg">
<path d="M22.5 3.70825H41.25V7.41659H48.75V14.8333H52.5V22.2499H56.25V37.0833H52.5V44.4999H48.75V48.2083H45V51.9166H37.5V55.6249H18.75V48.2083H37.5V40.7916H41.25V37.0833H45V33.3749H48.75V22.2499H45V18.5416H41.25V14.8333H15V7.41659H22.5V3.70825Z" fill="#FFF065"/>
<path d="M15 14.8333V18.5416H11.25V14.8333H15Z" fill="#FFF065"/>
<path d="M33.75 59.3333H26.25V81.5833H18.75V77.8749H22.5V70.4583H18.75V66.7499H15V63.0416H3.75V74.1666H7.5V81.5833H15V85.2916H22.5V88.9999H37.5V85.2916H45V81.5833H52.5V74.1666H56.25V63.0416H41.25V70.4583H37.5V81.5833H33.75V59.3333Z" fill="#4CFF75"/>
<path d="M22.5 0H41.25V3.70833H22.5V0Z" fill="black"/>
<path d="M15 7.41667V3.70833H22.5V7.41667H15Z" fill="black"/>
<path d="M11.25 11.125V7.41667H15V11.125H11.25Z" fill="black"/>
<path d="M18.75 29.6667H26.25V33.375H22.5V37.0833H15V33.375H18.75V29.6667Z" fill="black"/>
<path fill-rule="evenodd" clip-rule="evenodd" d="M45 22.25V18.5417H41.25V14.8333H15V18.5417H11.25V11.125H7.5V18.5417H3.75V22.25H0V29.6667H3.75V33.375H11.25V37.0833H15V40.7917H11.25V44.5H7.5V51.9167H11.25V55.625H18.75V59.3333H22.5V66.75H18.75V63.0417H15V59.3333H3.75V63.0417H0V74.1667H3.75V81.5833H7.5V85.2917H15V89H22.5V85.2917H15V81.5833H7.5V74.1667H3.75V66.75H7.5V63.0417H15V66.75H18.75V70.4583H22.5V77.875H18.75V74.1667H15V70.4583H11.25V74.1667H15V77.875H18.75V81.5833H26.25V59.3333H33.75V81.5833H41.25V77.875H45V74.1667H48.75V70.4583H45V74.1667H41.25V77.875H37.5V70.4583H41.25V66.75H45V63.0417H52.5V66.75H56.25V74.1667H52.5V81.5833H45V85.2917H37.5V89H45V85.2917H52.5V81.5833H56.25V74.1667H60V63.0417H56.25V59.3333H45V63.0417H41.25V66.75H37.5V55.625H45V51.9167H48.75V48.2083H52.5V44.5H56.25V37.0833H60V22.25H56.25V14.8333H52.5V7.41667H48.75V3.70833H41.25V7.41667H48.75V14.8333H52.5V22.25H56.25V37.0833H52.5V44.5H48.75V48.2083H45V51.9167H37.5V55.625H18.75V51.9167H26.25V48.2083H33.75V44.5H37.5V40.7917H41.25V37.0833H45V33.375H48.75V22.25H45ZM45 22.25V33.375H41.25V37.0833H37.5V40.7917H33.75V44.5H26.25V48.2083H18.75V51.9167H11.25V44.5H15V40.7917H22.5V37.0833H26.25V33.375H33.75V29.6667H37.5V25.9583H18.75V29.6667H3.75V25.9583H7.5V22.25H18.75V18.5417H37.5V22.25H45Z" fill="black"/>
<path d="M26.25 7.41675H22.5V11.1251H26.25V7.41675Z" fill="white"/>
<path d="M11.25 11.1251H15V14.8334H11.25V11.1251Z" fill="white"/>
<path fill-rule="evenodd" clip-rule="evenodd" d="M18.75 18.5417H37.5V22.2501H45V33.3751H41.25V37.0834H37.5V40.7917H33.75V44.5001H26.25V48.2084H18.75V51.9167H11.25V44.5001H15V40.7917H22.5V37.0834H26.25V33.3751H33.75V29.6667H37.5V25.9584H18.75V29.6667H3.75V25.9584H7.5V22.2501H18.75V18.5417ZM33.75 44.5001H37.5V48.2084H33.75V44.5001Z" fill="white"/>
<path d="M3.75 29.6667V37.0834H0V29.6667H3.75Z" fill="white"/>
<path d="M15 37.0834V33.3751H18.75V29.6667H26.25V33.3751H22.5V37.0834H15Z" fill="white"/>
<path fill-rule="evenodd" clip-rule="evenodd" d="M11.25 37.0834H7.5V33.3751H11.25V37.0834ZM11.25 37.0834H15V40.7917H11.25V37.0834Z" fill="white"/>
<path d="M11.25 40.7917V44.5001H7.5V40.7917H11.25Z" fill="white"/>
<path d="M37.5 7.41675H41.25V11.1251H37.5V7.41675Z" fill="white"/>
<path d="M52.5 14.8334H48.75V18.5417H52.5V14.8334Z" fill="white"/>
<path d="M48.75 29.6667H52.5V33.3751H48.75V29.6667Z" fill="white"/>
<path d="M48.75 40.7917H45V44.5001H48.75V40.7917Z" fill="white"/>
<path d="M30 51.9167H26.25V55.6251H30V51.9167Z" fill="white"/>
<path d="M18.75 29.6667H26.25V33.3751H18.75V29.6667Z" fill="white"/>
<path d="M15 33.3751H22.5V37.0834H15V33.3751Z" fill="white"/>
</svg>
