<svg width="75" height="374" viewBox="0 0 75 374" fill="none" xmlns="http://www.w3.org/2000/svg">
<path d="M32.8125 0H51.5625V4.675H60.9375V9.35H65.625V23.375H70.3125V51.425H75V65.45H70.3125V79.475H75V112.2H70.3125V126.225H75V140.25H70.3125V154.275H75V187H70.3125V196.35H75V215.05H70.3125V229.075H75V261.8H70.3125V275.825H75V289.85H70.3125V303.875H75V336.6H70.3125V350.625H75V364.65H70.3125V374H0V364.65H4.6875V355.3H0V331.925H4.6875V303.875H0V289.85H4.6875V280.5H0V257.125H4.6875V229.075H0V215.05H4.6875V205.7H0V182.325H4.6875V154.275H0V140.25H4.6875V130.9H0V107.525H4.6875V79.475H0V65.45H4.6875V56.1H0V37.4H4.6875V23.375H9.375V14.025H14.0625V9.35H18.75V4.675H32.8125V0Z" fill="#1C1282"/>
<path d="M51.5625 18.7002H32.8125V23.3752H28.125V28.0502H23.4375V32.7252H18.75V42.0752H23.4375V46.7502H18.75V51.4252H23.4375V46.7502H28.125V42.0752H32.8125V37.4002H37.5V32.7252H42.1875V28.0502H46.875V23.3752H51.5625V18.7002Z" fill="#192EEA"/>
<path d="M51.5625 79.4752V74.8002H60.9375V88.8252H56.25V93.5002H51.5625V98.1752H46.875V102.85H42.1875V107.525H37.5V112.2H32.8125V116.875H28.125V121.55H23.4375V116.875H18.75V107.525H23.4375V102.85H28.125V98.1752H32.8125V93.5002H37.5V88.8252H42.1875V84.1502H46.875V79.4752H51.5625Z" fill="#192EEA"/>
<path d="M23.4375 121.55V126.225H18.75V121.55H23.4375Z" fill="#192EEA"/>
<path d="M60.9375 149.6H51.5625V154.275H46.875V158.95H42.1875V163.625H37.5V168.3H32.8125V172.975H28.125V177.65H23.4375V182.325H18.75V191.675H23.4375V196.35H18.75V201.025H23.4375V196.35H28.125V191.675H32.8125V187H37.5V182.325H42.1875V177.65H46.875V172.975H51.5625V168.3H56.25V163.625H60.9375V149.6Z" fill="#192EEA"/>
<path d="M60.9375 224.4V238.425H56.25V243.1H51.5625V247.775H46.875V252.45H42.1875V257.125H37.5V261.8H32.8125V266.475H28.125V271.15H23.4375V266.475H18.75V257.125H23.4375V252.45H28.125V247.775H32.8125V243.1H37.5V238.425H42.1875V233.75H46.875V229.075H51.5625V224.4H60.9375Z" fill="#192EEA"/>
<path d="M23.4375 271.15V275.825H18.75V271.15H23.4375Z" fill="#192EEA"/>
<path d="M60.9375 299.2H51.5625V303.875H46.875V308.55H42.1875V313.225H37.5V317.9H32.8125V322.575H28.125V327.25H23.4375V331.925H18.75V341.275H23.4375V345.95H18.75V350.625H23.4375V345.95H28.125V341.275H32.8125V336.6H37.5V331.925H42.1875V327.25H46.875V322.575H51.5625V317.9H56.25V313.225H60.9375V299.2Z" fill="#192EEA"/>
<path d="M56.25 336.6V331.925H65.625V345.95H60.9375V350.625H56.25V355.3H51.5625V359.975H46.875V364.65H42.1875V369.325H37.5V374H18.75V369.325H23.4375V364.65H28.125V359.975H32.8125V355.3H37.5V350.625H42.1875V345.95H46.875V341.275H51.5625V336.6H56.25Z" fill="#192EEA"/>
<path d="M37.5 294.525V299.2H32.8125V303.875H28.125V308.55H23.4375V313.225H18.75V303.875H14.0625V299.2H18.75V294.525H23.4375V289.85H28.125V285.175H32.8125V280.5H37.5V275.825H42.1875V271.15H46.875V266.475H51.5625V261.8H56.25V257.125H65.625V271.15H60.9375V275.825H56.25V280.5H51.5625V285.175H46.875V289.85H42.1875V294.525H37.5Z" fill="#192EEA"/>
<path d="M37.5 219.725V224.4H32.8125V229.075H28.125V233.75H23.4375V238.425H18.75V229.075H14.0625V224.4H18.75V219.725H23.4375V215.05H28.125V210.375H32.8125V205.7H37.5V201.025H42.1875V196.35H46.875V191.675H51.5625V187H56.25V182.325H65.625V196.35H60.9375V201.025H56.25V205.7H51.5625V210.375H46.875V215.05H42.1875V219.725H37.5Z" fill="#192EEA"/>
<path d="M37.5 144.925V149.6H32.8125V154.275H28.125V158.95H23.4375V163.625H18.75V154.275H14.0625V149.6H18.75V144.925H23.4375V140.25H28.125V135.575H32.8125V130.9H37.5V126.225H42.1875V121.55H46.875V116.875H51.5625V112.2H56.25V107.525H65.625V121.55H60.9375V126.225H56.25V130.9H51.5625V135.575H46.875V140.25H42.1875V144.925H37.5Z" fill="#192EEA"/>
<path d="M37.5 70.1252V74.8002H32.8125V79.4752H28.125V84.1502H23.4375V88.8252H18.75V79.4752H14.0625V74.8002H18.75V70.1252H23.4375V65.4502H28.125V60.7752H32.8125V56.1002H37.5V51.4252H42.1875V46.7502H46.875V42.0752H51.5625V37.4002H56.25V32.7252H65.625V46.7502H60.9375V51.4252H56.25V56.1002H51.5625V60.7752H46.875V65.4502H42.1875V70.1252H37.5Z" fill="#192EEA"/>
<path d="M46.875 14.0249H32.8125V18.6999H23.4375V28.0499H18.75V46.7499H14.0625V60.7749H9.375V79.4749H14.0625V98.1749H18.75V121.55H14.0625V135.575H9.375V154.275H14.0625V172.975H18.75V196.35H14.0625V210.375H9.375V229.075H14.0625V247.775H18.75V271.15H14.0625V285.175H9.375V303.875H14.0625V322.575H18.75V345.95H14.0625V359.975H9.375V374H14.0625V359.975H18.75V345.95H23.4375V322.575H18.75V303.875H14.0625V285.175H18.75V271.15H23.4375V247.775H18.75V229.075H14.0625V210.375H18.75V196.35H23.4375V172.975H18.75V154.275H14.0625V135.575H18.75V121.55H23.4375V98.1749H18.75V79.4749H14.0625V60.7749H18.75V46.7499H23.4375V28.0499H28.125V23.3749H32.8125V18.6999H46.875V23.3749H56.25V32.7249H60.9375V51.4249H56.25V60.7749H51.5625V74.7999H56.25V93.4999H60.9375V126.225H56.25V135.575H51.5625V149.6H56.25V168.3H60.9375V201.025H56.25V210.375H51.5625V224.4H56.25V243.1H60.9375V275.825H56.25V285.175H51.5625V299.2H56.25V317.9H60.9375V350.625H56.25V359.975H51.5625V374H56.25V359.975H60.9375V350.625H65.625V317.9H60.9375V299.2H56.25V285.175H60.9375V275.825H65.625V243.1H60.9375V224.4H56.25V210.375H60.9375V201.025H65.625V168.3H60.9375V149.6H56.25V135.575H60.9375V126.225H65.625V93.4999H60.9375V74.7999H56.25V60.7749H60.9375V51.4249H65.625V32.7249H60.9375V23.3749H56.25V18.6999H46.875V14.0249Z" fill="black"/>
<path d="M42.1875 37.3999H46.875V51.4249H42.1875V60.7749H37.5V46.7499H42.1875V37.3999Z" fill="black"/>
<path d="M37.5 135.575V121.55H42.1875V112.2H37.5V102.85H32.8125V60.7749H37.5V98.1749H42.1875V107.525H46.875V126.225H42.1875V135.575H37.5Z" fill="black"/>
<path d="M37.5 210.375V196.35H42.1875V187H37.5V177.65H32.8125V135.575H37.5V172.975H42.1875V182.325H46.875V201.025H42.1875V210.375H37.5Z" fill="black"/>
<path d="M37.5 285.175V271.15H42.1875V261.8H37.5V252.45H32.8125V210.375H37.5V247.775H42.1875V257.125H46.875V275.825H42.1875V285.175H37.5Z" fill="black"/>
<path d="M37.5 359.975V345.95H42.1875V336.6H37.5V327.25H32.8125V285.175H37.5V322.575H42.1875V331.925H46.875V350.625H42.1875V359.975H37.5Z" fill="black"/>
<path d="M37.5 359.975V374H32.8125V359.975H37.5Z" fill="black"/>
</svg>
