<svg width="62" height="61" viewBox="0 0 62 61" fill="none" xmlns="http://www.w3.org/2000/svg">
<path fill-rule="evenodd" clip-rule="evenodd" d="M59.6154 0H2.38462V2.34615H0V58.6538H2.38462V61H59.6154V58.6538H62V2.34615H59.6154V0ZM57.2308 4.69231H4.76923V56.3077H57.2308V4.69231Z" fill="#FCFCFC"/>
<path d="M33.3847 16.4231H28.6154V21.1154H26.2308V25.8077H14.3077V28.1538H16.6924V30.5H19.077V32.8461H21.4616V37.5384H19.077V42.2308H16.6924V46.9231H14.3077V49.2692H19.077V46.9231H23.8462V44.5769H28.6154V42.2308H33.3847V44.5769H38.1539V46.9231H42.9231V49.2692H47.6924V46.9231H45.3077V42.2308H42.9231V37.5384H40.5385V32.8461H42.9231V30.5H45.3077V28.1538H47.6924V25.8077H35.7693V21.1154H33.3847V16.4231Z" fill="#FCFCFC"/>
<path d="M28.6155 28.1538H26.2308V35.1923H28.6155V28.1538Z" fill="black"/>
<path d="M35.7693 28.1538H33.3847V35.1923H35.7693V28.1538Z" fill="black"/>
</svg>
