<svg width="32" height="48" viewBox="0 0 32 48" fill="none" xmlns="http://www.w3.org/2000/svg">
<rect width="32" height="48" fill="black"/>
<rect x="1" y="1" width="29" height="46" fill="#FC8E2E"/>
<path fill-rule="evenodd" clip-rule="evenodd" d="M16 2H29V46H12V42H13V40H15V35H14V22H13V38H11V40H10V27H11V34H12V27H11V16H12V11H11V7H10V8H9V16H10V23H9V36H8V35H7V34H6V37H7V45H6V40H5V32H6V26H5V16H6V10H5V8H7V11H8V5H7V2H9V6H10V2H14V8H13V16H14V8H15V3H16V2ZM8 27V16H7V27H8Z" fill="#C24108"/>
<path d="M10 16V11H11V16H10Z" fill="#C24108"/>
<path d="M10 40V45H9V40H10Z" fill="#C24108"/>
<path d="M8 1H10V6H9V2H8V1Z" fill="black"/>
<path d="M30 2V47H2V46H17V45H18V40H19V46H21V45H22V42H23V46H24V44H25V40H26V46H28V40H27V35H28V38H29V34H28V22H27V31H26V39H25V40H24V36H25V28H26V16H28V8H27V15H26V16H25V12H26V7H27V2H30Z" fill="black"/>
<path d="M26 7H25V2H26V7Z" fill="black"/>
<path d="M21 31V40H19V35H20V31H21Z" fill="black"/>
<path d="M21 15H20V16H19V19H20V24H21V31H22V18H21V15Z" fill="black"/>
<path fill-rule="evenodd" clip-rule="evenodd" d="M21 8V6H22V2H20V8H21ZM21 8V15H22V8H21Z" fill="black"/>
</svg>
